<?xml version="1.0" encoding="UTF-8" standalone="no"?>
<svg
   xmlns:dc="http://purl.org/dc/elements/1.1/"
   xmlns:cc="http://creativecommons.org/ns#"
   xmlns:rdf="http://www.w3.org/1999/02/22-rdf-syntax-ns#"
   xmlns:svg="http://www.w3.org/2000/svg"
   xmlns="http://www.w3.org/2000/svg"
   viewBox="0 0 50 69"
   id="svg2"
   height="69mm"
   width="50mm"
   version="1.0">
  <metadata
     id="metadata151">
    <rdf:RDF>
      <cc:Work
         rdf:about="">
        <dc:format>image/svg+xml</dc:format>
        <dc:type
           rdf:resource="http://purl.org/dc/dcmitype/StillImage" />
        <dc:title></dc:title>
      </cc:Work>
    </rdf:RDF>
  </metadata>
  <defs
     id="defs4">
    <pattern
       y="0"
       x="0"
       height="6"
       width="6"
       patternUnits="userSpaceOnUse"
       id="EMFhbasepattern" />
  </defs>
  <path
     id="path7"
     d="m 23.388997,17.991526 c 0.04233,0.1905 0.105834,0.338666 0.169334,0.4445 0.0635,0.08467 0.148166,0.169333 0.275166,0.232833 0.105834,0.04233 0.254,0.0635 0.423334,0.0635 0.232833,0 0.423333,-0.0635 0.550305,-0.1905 0.127,-0.127 0.1905,-0.3175 0.1905,-0.550333 0,-0.148167 -0.02117,-0.275167 -0.08467,-0.381 -0.04233,-0.105834 -0.127,-0.211667 -0.253972,-0.3175 -0.105833,-0.08467 -0.296333,-0.190472 -0.550333,-0.317472 -0.254,-0.127 -0.4445,-0.232834 -0.5715,-0.359834 -0.148167,-0.105833 -0.254,-0.232833 -0.3175,-0.359833 -0.0635,-0.127 -0.105833,-0.275167 -0.105833,-0.4445 0,-0.232833 0.0635,-0.423333 0.169333,-0.592667 0.105833,-0.169333 0.254,-0.3175 0.465667,-0.402166 0.211666,-0.08467 0.4445,-0.148167 0.719666,-0.148167 0.169334,0 0.317472,0.02117 0.465639,0.04233 0.148166,0 0.338666,0.04233 0.5715,0.105834 l 0,0.8255 -0.3175,0 c -0.04233,-0.169334 -0.105834,-0.3175 -0.169334,-0.423334 -0.08467,-0.105833 -0.169333,-0.169333 -0.275138,-0.211666 -0.08467,-0.04233 -0.211667,-0.0635 -0.359833,-0.0635 -0.148167,0 -0.254,0.02117 -0.359834,0.08467 -0.105833,0.04233 -0.1905,0.127 -0.254,0.232834 -0.0635,0.08467 -0.105833,0.211666 -0.105833,0.338666 0,0.148167 0.04233,0.275167 0.08467,0.381 0.0635,0.105834 0.148166,0.1905 0.254,0.275167 0.105833,0.105833 0.275166,0.1905 0.486833,0.296333 0.275167,0.127 0.465638,0.254 0.613805,0.359834 0.148167,0.127 0.254,0.253972 0.338667,0.402138 0.08467,0.148167 0.127,0.3175 0.127,0.508 0,0.211667 -0.02117,0.402167 -0.105834,0.550334 -0.0635,0.148166 -0.148166,0.275166 -0.275166,0.359833 -0.127,0.105833 -0.275167,0.169333 -0.444472,0.211667 -0.169333,0.04233 -0.338667,0.0635 -0.550333,0.0635 -0.3175,0 -0.6985,-0.0635 -1.121834,-0.169334 l 0,-0.846666 z m 0,0"
     style="fill:#000000;fill-opacity:1;fill-rule:nonzero;stroke:none" />
  <path
     id="path9"
     d="m 45.359884,18.160859 c 0,0.127 0,0.232833 0.02117,0.296333 0,0.0635 0.02117,0.127 0.0635,0.169334 0.02117,0.04233 0.0635,0.08467 0.105833,0.105833 0.04233,0.02117 0.127,0.04233 0.232834,0.0635 l 0,0.148167 -1.375834,0 0,-0.148167 c 0.127,-0.04233 0.211667,-0.0635 0.275167,-0.105833 0.04233,-0.04233 0.0635,-0.105834 0.0635,-0.169334 0.02117,-0.08467 0.04233,-0.1905 0.04233,-0.338666 l 0,-2.688139 c 0,-0.148167 -0.02117,-0.254 -0.02117,-0.3175 -0.02117,-0.0635 -0.04233,-0.105833 -0.0635,-0.148167 -0.02117,-0.04233 -0.04233,-0.0635 -0.08467,-0.08467 -0.04233,-0.02117 -0.105833,-0.04233 -0.211667,-0.0635 l 0,-0.169334 1.545167,0 c 0.486833,0 0.846667,0.105834 1.0795,0.296334 0.232833,0.169333 0.359833,0.465666 0.359833,0.8255 0,0.211666 -0.04233,0.423333 -0.127,0.592666 -0.0635,0.169334 -0.169333,0.3175 -0.296333,0.423334 -0.148167,0.105833 -0.296333,0.1905 -0.486833,0.232833 -0.1905,0.04233 -0.381,0.0635 -0.592667,0.0635 -0.232833,0 -0.402167,0 -0.529167,0 z m 0,-1.291139 0.359834,0 c 0.232833,0 0.423333,-0.02117 0.5715,-0.08467 0.148166,-0.0635 0.275166,-0.148167 0.359833,-0.296334 0.0635,-0.148166 0.105833,-0.338666 0.105833,-0.5715 0,-0.169333 -0.02117,-0.3175 -0.0635,-0.4445 -0.04233,-0.127 -0.105833,-0.211666 -0.1905,-0.275166 -0.08467,-0.08467 -0.1905,-0.127 -0.3175,-0.169334 -0.105833,-0.02117 -0.232833,-0.04233 -0.359833,-0.04233 -0.211667,0 -0.359833,0 -0.465667,0.02117 z m 0,0"
     style="fill:#000000;fill-opacity:1;fill-rule:nonzero;stroke:none" />
  <path
     id="path11"
     d="m 28.193802,16.86972 13.038582,0"
     style="fill:none;stroke:#000000;stroke-width:0.69849485px;stroke-linecap:butt;stroke-linejoin:miter;stroke-miterlimit:8;stroke-dasharray:none;stroke-opacity:1" />
  <path
     id="path13"
     d="m 40.893718,15.811387 2.116666,1.058333 -2.116666,1.058306 z m 0,0"
     style="fill:#000000;fill-opacity:1;fill-rule:evenodd;stroke:none" />
  <path
     id="path15"
     d="m 5.0799718,14.816554 0,0.846666 -0.3175,0 c -0.042333,-0.169333 -0.1058334,-0.3175 -0.1905,-0.423333 -0.0635,-0.105833 -0.1693334,-0.1905 -0.2751667,-0.232833 -0.084667,-0.04233 -0.2116667,-0.0635 -0.3598333,-0.0635 -0.2116667,0 -0.4021667,0.0635 -0.5715,0.211666 -0.1481667,0.148167 -0.2963334,0.359834 -0.381,0.635 -0.1058334,0.296334 -0.1481667,0.635 -0.1481667,1.037167 0,0.402139 0.042333,0.740805 0.127,1.037139 0.0635,0.275166 0.1905,0.508 0.3386667,0.656166 0.1481666,0.127 0.3386666,0.211667 0.5715,0.211667 0.1693333,0 0.2963333,-0.02117 0.4021666,-0.08467 0.127,-0.04233 0.2116667,-0.105833 0.2751667,-0.211666 0.084667,-0.105834 0.1481667,-0.275167 0.2116667,-0.465667 l 0.3175,0 0,0.867833 c -0.2116667,0.0635 -0.4021667,0.105834 -0.6138334,0.127 -0.1905,0.02117 -0.4233333,0.04233 -0.6561666,0.04233 -0.5291667,0 -0.9313334,-0.1905 -1.2064916,-0.550334 -0.2539971,-0.338666 -0.4021638,-0.867833 -0.4021638,-1.587472 0,-0.423333 0.084667,-0.8255 0.2116667,-1.143 0.1481638,-0.338666 0.3598305,-0.592666 0.613822,-0.783166 0.2751667,-0.1905 0.5926667,-0.275167 0.9736667,-0.275167 0.1905,0 0.3598333,0.02117 0.5291666,0.04233 0.1481667,0.02117 0.3386667,0.04233 0.5503334,0.105834 z m 0,0"
     style="fill:#000000;fill-opacity:1;fill-rule:nonzero;stroke:none" />
  <path
     id="path17"
     d="m 1.8414859,55.435218 0,-0.148167 c 0.1058333,-0.02117 0.1693333,-0.04233 0.2116667,-0.08467 0.042333,-0.02117 0.063497,-0.04233 0.084664,-0.08467 0.021167,-0.02117 0.042333,-0.08467 0.0635,-0.148167 0,-0.0635 0,-0.169333 0,-0.3175 l 0,-2.667 c 0,-0.148167 0,-0.254 0,-0.3175 -0.021167,-0.0635 -0.042333,-0.127 -0.0635,-0.148167 -0.021167,-0.04233 -0.042331,-0.0635 -0.084664,-0.08467 -0.042333,-0.02117 -0.1058334,-0.0635 -0.2116667,-0.08467 l 0,-0.148167 1.3546525,0 c 0.4021667,0 0.7196667,0.04233 0.9736667,0.127 0.2328333,0.08467 0.4445,0.211667 0.6138333,0.381 0.1905,0.169334 0.3175,0.381 0.4021667,0.635 0.084667,0.232834 0.127,0.529167 0.127,0.867834 0,0.359833 -0.042333,0.677333 -0.127,0.931333 -0.084667,0.275167 -0.1905,0.486833 -0.3598333,0.677333 -0.127,0.148167 -0.2751667,0.275167 -0.4656667,0.381 -0.1693333,0.08467 -0.3598333,0.148167 -0.5715,0.1905 -0.1905,0.02117 -0.4868333,0.04233 -0.8255,0.04233 z m 0.9524943,-0.296334 c 0.084658,0.02117 0.2116582,0.02117 0.3598249,0.02117 0.1693333,0 0.3386667,-0.02117 0.4656667,-0.04233 0.1481666,-0.04233 0.254,-0.08467 0.381,-0.148167 0.1058333,-0.0635 0.2116666,-0.148167 0.2963333,-0.254 0.084667,-0.105833 0.1481667,-0.232833 0.2116667,-0.381 0.0635,-0.148167 0.1058333,-0.296333 0.127,-0.486833 0.021167,-0.169334 0.042333,-0.359834 0.042333,-0.5715 0,-0.423334 -0.0635,-0.762 -0.1905,-1.037167 -0.1058333,-0.254 -0.2751667,-0.465667 -0.508,-0.5715 -0.2116667,-0.127 -0.4868333,-0.1905 -0.7831667,-0.1905 -0.1481666,0 -0.2751666,0 -0.4021582,0 z m 0,0"
     style="fill:#000000;fill-opacity:1;fill-rule:nonzero;stroke:none" />
  <path
     id="path19"
     d="m 24.658997,39.560218 0,-0.169334 c 0.105834,-0.02117 0.190472,-0.04233 0.232805,-0.0635 0.04233,-0.02117 0.08467,-0.0635 0.105834,-0.105833 0.02117,-0.04233 0.04233,-0.105833 0.04233,-0.169333 0,-0.0635 0,-0.148167 -0.02117,-0.232834 -0.02117,-0.08467 -0.04233,-0.169333 -0.0635,-0.275166 l -0.127,-0.402167 -1.439305,0 -0.105833,0.3175 c -0.0635,0.148167 -0.08467,0.254 -0.105833,0.338667 -0.02117,0.08467 -0.02117,0.148166 -0.02117,0.211666 0,0.127 0.02117,0.211667 0.08467,0.275167 0.0635,0.0635 0.169333,0.08467 0.296333,0.105833 l 0,0.169334 -1.3335,0 0,-0.169334 c 0.127,-0.02117 0.232833,-0.08467 0.3175,-0.1905 0.08467,-0.127 0.169333,-0.275166 0.254,-0.486833 l 1.291167,-3.450167 0.486833,0 1.037138,3.471334 c 0.0635,0.148166 0.105834,0.275166 0.148167,0.359833 0.04233,0.08467 0.08467,0.148167 0.127,0.1905 0.0635,0.0635 0.127,0.08467 0.232833,0.105833 l 0,0.169334 z m -1.185333,-1.693334 1.291167,0 -0.592667,-1.989666 z m 0,0"
     style="fill:#000000;fill-opacity:1;fill-rule:nonzero;stroke:none" />
  <path
     id="path21"
     d="m 40.216384,35.326884 0,0.931334 -0.3175,0 c -0.04233,-0.148167 -0.08467,-0.254 -0.127,-0.338667 -0.04233,-0.08467 -0.08467,-0.148167 -0.127,-0.1905 -0.04233,-0.0635 -0.105833,-0.08467 -0.169333,-0.105833 -0.0635,-0.02117 -0.148167,-0.02117 -0.232833,-0.02117 l -0.910167,0 0,1.672167 0.635,0 c 0.08467,0 0.169333,0 0.211667,-0.04233 0.04233,-0.02117 0.08467,-0.08467 0.127,-0.148166 0.04233,-0.0635 0.0635,-0.169334 0.105833,-0.3175 l 0.275167,0 0,1.312333 -0.275167,0 c -0.04233,-0.148167 -0.08467,-0.254 -0.105833,-0.338667 -0.04233,-0.0635 -0.08467,-0.105833 -0.127,-0.148166 -0.04233,-0.02117 -0.127,-0.04233 -0.211667,-0.04233 l -0.635,0 0,1.227667 c 0,0.105833 0,0.211667 0.02117,0.296333 0,0.0635 0.02117,0.127 0.0635,0.169334 0.04233,0.04233 0.08467,0.08467 0.127,0.105833 0.0635,0.02117 0.127,0.02117 0.211666,0.04233 l 0,0.169334 -1.375833,0 0,-0.169334 c 0.127,-0.02117 0.211667,-0.0635 0.254,-0.105833 0.04233,-0.04233 0.08467,-0.08467 0.08467,-0.169333 0.02117,-0.0635 0.02117,-0.1905 0.02117,-0.338667 l 0,-2.688167 c 0,-0.127 0,-0.232833 0,-0.296333 -0.02117,-0.0635 -0.04233,-0.127 -0.0635,-0.169333 -0.02117,-0.02117 -0.0635,-0.0635 -0.105833,-0.08467 -0.02117,-0.02117 -0.08467,-0.04233 -0.1905,-0.0635 l 0,-0.148167 z m 0,0"
     style="fill:#000000;fill-opacity:1;fill-rule:nonzero;stroke:none" />
  <path
     id="path23"
     d="m 24.256831,21.229997 0,10.413887"
     style="fill:none;stroke:#00ae4f;stroke-width:0.69849485px;stroke-linecap:butt;stroke-linejoin:miter;stroke-miterlimit:8;stroke-dasharray:none;stroke-opacity:1" />
  <path
     id="path25"
     d="m 25.315136,31.284051 -1.058305,2.116667 -1.058334,-2.116667 z m 0,0"
     style="fill:#00ae4f;fill-opacity:1;fill-rule:evenodd;stroke:none" />
  <path
     id="path27"
     d="m 19.621359,61.615602 0,-0.148166 c 0.127,-0.04233 0.211667,-0.0635 0.254,-0.105834 0.04233,-0.04233 0.08467,-0.105833 0.08467,-0.1905 0.02117,-0.0635 0.02117,-0.169333 0.02117,-0.338666 l 0,-2.667 c 0,-0.148167 0,-0.254 -0.02117,-0.3175 0,-0.0635 -0.02117,-0.105834 -0.04233,-0.148167 -0.02117,-0.04233 -0.0635,-0.0635 -0.105833,-0.08467 -0.02117,-0.02117 -0.08467,-0.04233 -0.1905,-0.08467 l 0,-0.148167 1.693305,0 c 0.338667,0 0.592667,0.04233 0.804333,0.105833 0.1905,0.0635 0.338667,0.169334 0.4445,0.3175 0.08467,0.127 0.148167,0.3175 0.148167,0.529167 0,0.169333 -0.04233,0.338667 -0.105833,0.465667 -0.08467,0.127 -0.169334,0.232833 -0.275167,0.338666 -0.127,0.08467 -0.254,0.148167 -0.4445,0.232834 l 0,0.02117 c 0.296333,0.08467 0.508,0.232834 0.656167,0.402167 0.127,0.169333 0.211666,0.381 0.211666,0.635 0,0.275167 -0.0635,0.508 -0.1905,0.677333 -0.127,0.1905 -0.296333,0.3175 -0.529166,0.402167 -0.211667,0.0635 -0.486834,0.105833 -0.804334,0.105833 z m 1.481638,-2.328333 c 0.3175,0 0.550334,-0.08467 0.719667,-0.232833 0.169333,-0.148167 0.254,-0.381 0.254,-0.656167 0,-0.148167 -0.02117,-0.275167 -0.0635,-0.359833 -0.04233,-0.08467 -0.127,-0.169334 -0.1905,-0.232834 -0.08467,-0.04233 -0.1905,-0.08467 -0.296333,-0.105833 -0.105834,-0.02117 -0.232834,-0.04233 -0.359834,-0.04233 -0.08467,0 -0.1905,0 -0.317471,0 -0.127,0.02117 -0.211667,0.02117 -0.275167,0.02117 l 0,1.608667 z m -0.529138,2.032 c 0.148167,0.02117 0.3175,0.02117 0.507972,0.02117 0.254,0 0.465666,-0.04233 0.613833,-0.105834 0.148167,-0.0635 0.254,-0.169333 0.338667,-0.296333 0.0635,-0.127 0.105833,-0.296333 0.105833,-0.508 0,-0.1905 -0.04233,-0.359833 -0.127,-0.486833 -0.0635,-0.127 -0.1905,-0.232834 -0.338667,-0.296334 -0.148166,-0.0635 -0.359833,-0.08467 -0.635,-0.08467 l -0.465638,0 z m 0,0"
     style="fill:#000000;fill-opacity:1;fill-rule:nonzero;stroke:none" />
  <path
     id="path29"
     d="m 27.939802,57.530436 c -0.08467,0.02117 -0.148166,0.04233 -0.1905,0.0635 -0.04233,0.04233 -0.08467,0.0635 -0.105833,0.105833 -0.02117,0.02117 -0.04233,0.08467 -0.04233,0.148167 -0.02117,0.0635 -0.02117,0.169333 -0.02117,0.3175 l 0,2.667 c 0,0.148166 0,0.254 0.02117,0.3175 0,0.0635 0.02117,0.105833 0.04233,0.148166 0.02117,0.04233 0.04233,0.0635 0.08467,0.08467 0.04233,0.04233 0.127,0.0635 0.211666,0.08467 l 0,0.148166 -1.291166,0 0,-0.148166 c 0.127,-0.02117 0.211666,-0.0635 0.254,-0.105834 0.04233,-0.04233 0.0635,-0.08467 0.08467,-0.148166 0.02117,-0.08467 0.02117,-0.211667 0.02117,-0.381 l 0,-1.185334 c 0,-0.296333 0,-0.613833 0.02117,-0.931333 0,-0.338667 0.02117,-0.550333 0.02117,-0.656167 l -0.04233,0 -1.227667,3.069167 -0.359833,0 -1.142972,-3.132667 -0.04233,0 c 0,0.127 0,0.359834 0.02117,0.6985 0,0.3175 0.02117,0.656167 0.02117,1.016 l 0,1.121834 c 0,0.148166 0,0.254 0,0.3175 0.02117,0.0635 0.02117,0.105833 0.0635,0.148166 0.02117,0.04233 0.04233,0.0635 0.08467,0.08467 0.04233,0.04233 0.105833,0.0635 0.211667,0.08467 l 0,0.148166 -1.143,0 0,-0.148166 c 0.148166,-0.04233 0.211666,-0.0635 0.254,-0.105834 0.0635,-0.04233 0.08467,-0.105833 0.105833,-0.1905 0,-0.0635 0.02117,-0.169333 0.02117,-0.338666 l 0,-2.667 c 0,-0.148167 -0.02117,-0.254 -0.02117,-0.3175 -0.02117,-0.0635 -0.04233,-0.105834 -0.0635,-0.148167 -0.02117,-0.04233 -0.04233,-0.0635 -0.08467,-0.08467 -0.04233,-0.02117 -0.105833,-0.04233 -0.211666,-0.08467 l 0,-0.148167 1.121833,0 1.079472,3.026833 1.2065,-3.026833 1.037166,0 z m 0,0"
     style="fill:#000000;fill-opacity:1;fill-rule:nonzero;stroke:none" />
  <path
     id="path31"
     d="m 20.975997,16.86972 -11.4722201,0"
     style="fill:none;stroke:#000000;stroke-width:0.69849485px;stroke-linecap:butt;stroke-linejoin:miter;stroke-miterlimit:8;stroke-dasharray:none;stroke-opacity:1" />
  <path
     id="path33"
     d="M 9.863582,15.811387 7.7469436,16.86972 9.863582,17.928026 Z m 0,0"
     style="fill:#000000;fill-opacity:1;fill-rule:evenodd;stroke:none" />
  <path
     id="path35"
     d="m 3.8099718,20.891359 0,10.583192"
     style="fill:none;stroke:#000000;stroke-width:0.69849485px;stroke-linecap:butt;stroke-linejoin:miter;stroke-miterlimit:8;stroke-dasharray:none;stroke-opacity:1" />
  <path
     id="path37"
     d="M 4.8683051,31.114718 3.8099718,33.231384 2.7516469,31.114718 Z m 0,0"
     style="fill:#000000;fill-opacity:1;fill-rule:evenodd;stroke:none" />
  <path
     id="path39"
     d="m 3.5348051,57.509269 -0.021167,7.641167"
     style="fill:none;stroke:#ff0000;stroke-width:0.69849485px;stroke-linecap:butt;stroke-linejoin:miter;stroke-miterlimit:8;stroke-dasharray:5.92666667, 1.97555556;stroke-dashoffset:0;stroke-opacity:1" />
  <path
     id="path41"
     d="m 2.4553164,64.811769 1.058322,2.116667 1.0583334,-2.116667 z m 0,0"
     style="fill:#ff0000;fill-opacity:1;fill-rule:evenodd;stroke:none" />
  <path
     id="path43"
     d="m 28.109136,37.443551 6.519248,0"
     style="fill:none;stroke:#000000;stroke-width:0.69849485px;stroke-linecap:butt;stroke-linejoin:miter;stroke-miterlimit:8;stroke-dasharray:none;stroke-opacity:1" />
  <path
     id="path45"
     d="m 34.268551,36.385218 2.116667,1.058333 -2.116667,1.058333 z m 0,0"
     style="fill:#000000;fill-opacity:1;fill-rule:evenodd;stroke:none" />
  <path
     id="path47"
     d="m 24.256831,42.565884 0,10.16"
     style="fill:none;stroke:#00ae4f;stroke-width:0.69849485px;stroke-linecap:butt;stroke-linejoin:miter;stroke-miterlimit:8;stroke-dasharray:none;stroke-opacity:1" />
  <path
     id="path49"
     d="m 25.315136,52.366051 -1.058305,2.116667 -1.058334,-2.116667 z m 0,0"
     style="fill:#00ae4f;fill-opacity:1;fill-rule:evenodd;stroke:none" />
  <path
     id="path51"
     d="m 45.846718,20.806692 0,8.784026"
     style="fill:none;stroke:#000000;stroke-width:0.69849485px;stroke-linecap:butt;stroke-linejoin:miter;stroke-miterlimit:8;stroke-dasharray:5.92666667, 1.97555556;stroke-dashoffset:0;stroke-opacity:1" />
  <path
     id="path53"
     d="m 46.905051,29.230884 -1.058333,2.116667 -1.058334,-2.116667 z m 0,0"
     style="fill:#000000;fill-opacity:1;fill-rule:evenodd;stroke:none" />
  <path
     id="path55"
     d="m 31.580384,59.541269 10.541,0"
     style="fill:none;stroke:#00ae4f;stroke-width:0.69849485px;stroke-linecap:butt;stroke-linejoin:miter;stroke-miterlimit:8;stroke-dasharray:5.92666667, 1.97555556;stroke-dashoffset:0;stroke-opacity:1" />
  <path
     id="path57"
     d="m 41.761551,58.482936 2.116667,1.058333 -2.116667,1.058333 z m 0,0"
     style="fill:#00ae4f;fill-opacity:1;fill-rule:evenodd;stroke:none" />
  <path
     id="path59"
     d="m 19.367359,25.188136 c 0.127,-0.169334 0.254,-0.3175 0.381,-0.402167 0.127,-0.08464 0.254,-0.126972 0.381,-0.126972 0.105833,0 0.1905,0 0.254,0.02117 l -0.105833,0.465638 -0.211667,0 c 0,-0.0635 -0.02117,-0.105833 -0.02117,-0.127 -0.02117,-0.04233 -0.04233,-0.0635 -0.0635,-0.0635 -0.02117,-0.02117 -0.04233,-0.02117 -0.08467,-0.02117 -0.04233,0 -0.105834,0.02117 -0.148167,0.0635 -0.0635,0.04233 -0.127,0.105833 -0.211667,0.1905 -0.0635,0.105833 -0.127,0.1905 -0.169333,0.275166 -0.04233,0.08467 -0.08467,0.1905 -0.105833,0.3175 l -0.1905,0.889 -0.359834,0 0.296334,-1.312333 c 0.02117,-0.08467 0.02117,-0.148167 0.04233,-0.1905 0,-0.04233 0,-0.08467 0,-0.105833 0,-0.0635 0,-0.105834 -0.02117,-0.127 -0.02117,-0.02117 -0.04233,-0.04233 -0.08467,-0.04233 -0.04233,0 -0.08467,0.02117 -0.148167,0.0635 -0.04233,0.02117 -0.105833,0.08467 -0.1905,0.1905 l -0.105833,-0.127 c 0.127,-0.127 0.232833,-0.211666 0.3175,-0.275138 0.08467,-0.0635 0.169333,-0.08467 0.275166,-0.08467 0.08467,0 0.148167,0.02117 0.211667,0.08467 0.04233,0.06347 0.0635,0.126972 0.0635,0.232805 0,0.0635 0,0.127 -0.02117,0.211667 z m 0,0"
     style="fill:#a6a6a6;fill-opacity:1;fill-rule:nonzero;stroke:none" />
  <path
     id="path61"
     d="m 21.060664,27.114302 0,0.08467 c 0,0.02117 0,0.04233 0.02117,0.0635 0,0 0,0.02117 0,0.02117 0.02117,0.02117 0.02117,0.02117 0.04233,0.04233 0,0 0.02117,0.02117 0.04233,0.02117 0.02117,0 0.04233,0.02117 0.08467,0.02117 0.02117,0 0.0635,0 0.105833,0.02117 0.04233,0 0.105834,0 0.169334,0 l 0,0.127 -1.227639,0 0,-0.127 c 0.0635,0 0.105834,0 0.148167,0 0.04233,-0.02117 0.08467,-0.02117 0.105833,-0.02117 0.04233,0 0.0635,-0.02117 0.08467,-0.02117 0.02117,0 0.02117,0 0.04233,-0.02117 0.02117,0 0.02117,-0.02117 0.04233,-0.02117 0,-0.02117 0.02117,-0.02117 0.02117,-0.04233 0,-0.02117 0,-0.04233 0.02117,-0.0635 0,-0.02117 0,-0.0635 0,-0.08467 l 0,-1.121833 c 0,-0.04233 -0.02117,-0.0635 -0.02117,-0.08467 -0.02117,-0.02117 -0.04233,-0.02117 -0.0635,-0.02117 -0.04233,0 -0.08467,0.02117 -0.148166,0.04233 -0.0635,0.04233 -0.148167,0.08467 -0.254,0.148167 0,-0.02117 -0.02117,-0.04233 -0.02117,-0.0635 -0.02117,-0.02117 -0.04233,-0.04233 -0.04233,-0.0635 0.127,-0.08467 0.254,-0.148167 0.381,-0.211667 0.127,-0.08467 0.254,-0.148167 0.380971,-0.211667 l 0.08467,0 c 0,0.04233 0,0.105834 0,0.148167 l 0,0.127 0,0.127 z m 0,0"
     style="fill:#a6a6a6;fill-opacity:1;fill-rule:nonzero;stroke:none" />
  <path
     id="path63"
     d="m 6.8156102,43.751218 c 0.127,-0.169334 0.254,-0.3175 0.381,-0.402167 0.127,-0.08467 0.254,-0.127 0.381,-0.127 0.084667,0 0.1693334,0 0.254,0.02117 l -0.1058333,0.465666 -0.2116667,0 c -0.021167,-0.0635 -0.021167,-0.105833 -0.042333,-0.127 0,-0.04233 -0.021167,-0.0635 -0.042333,-0.0635 -0.021167,-0.02117 -0.0635,-0.02117 -0.084667,-0.02117 -0.042333,0 -0.1058333,0.02117 -0.1693333,0.0635 -0.0635,0.04233 -0.127,0.105833 -0.1905,0.1905 -0.0635,0.105833 -0.127,0.1905 -0.1693334,0.275166 -0.042333,0.08467 -0.084667,0.1905 -0.1058333,0.3175 l -0.2116667,0.889 -0.3386666,0 0.2963333,-1.312333 c 0,-0.08467 0.021167,-0.148167 0.021167,-0.1905 0,-0.04233 0.021167,-0.08467 0.021167,-0.105833 0,-0.0635 -0.021167,-0.105834 -0.042333,-0.127 0,-0.02117 -0.042333,-0.04233 -0.084667,-0.04233 -0.042333,0 -0.084667,0.02117 -0.127,0.0635 -0.042333,0.02117 -0.1058333,0.08467 -0.1905,0.1905 l -0.127,-0.127 c 0.127,-0.127 0.2328334,-0.211666 0.3175,-0.275166 0.084667,-0.0635 0.1905,-0.08467 0.2963334,-0.08467 0.084667,0 0.1481666,0.02117 0.1905,0.08467 0.0635,0.0635 0.084667,0.127 0.084667,0.232833 0,0.0635 -0.021167,0.127 -0.042333,0.211667 z m 0,0"
     style="fill:#a6a6a6;fill-opacity:1;fill-rule:nonzero;stroke:none" />
  <path
     id="path65"
     d="m 8.8476102,44.068718 c 0.021167,0.02117 0.021167,0.04233 0.021167,0.04233 0.021167,0.02117 0.042333,0.04233 0.042333,0.04233 l 0,0.08467 c -0.127,0 -0.2328333,0.02117 -0.3386666,0.0635 -0.1058334,0.04233 -0.1905,0.08467 -0.254,0.148167 -0.084667,0.0635 -0.1481667,0.148166 -0.1905,0.254 -0.0635,0.105833 -0.1058334,0.211666 -0.127,0.338666 l 0.021167,0 c 0.042333,-0.02117 0.084667,-0.04233 0.127,-0.08467 0.042333,-0.02117 0.084667,-0.02117 0.127,-0.04233 0.042333,-0.02117 0.084667,-0.02117 0.127,-0.02117 0.042333,-0.02117 0.084667,-0.02117 0.1481667,-0.02117 0.084667,0 0.1693333,0.02117 0.2328333,0.04233 0.0635,0.02117 0.127,0.0635 0.1693334,0.127 0.0635,0.04233 0.1058333,0.105834 0.127,0.169334 0.021167,0.08467 0.021167,0.148166 0.021167,0.254 0,0.08467 0,0.169333 -0.042333,0.254 -0.021167,0.08467 -0.084667,0.148166 -0.127,0.211666 -0.0635,0.0635 -0.1481667,0.105834 -0.2328333,0.127 -0.084667,0.04233 -0.2116667,0.0635 -0.3175,0.0635 -0.2328334,0 -0.4233334,-0.0635 -0.5291667,-0.211666 -0.127,-0.127 -0.1905,-0.3175 -0.1905,-0.592667 0,-0.105833 0.021167,-0.211667 0.042333,-0.3175 0.021167,-0.105833 0.0635,-0.211667 0.1058334,-0.296333 0.0635,-0.105834 0.127,-0.169334 0.1905,-0.254 0.084667,-0.0635 0.1481666,-0.127 0.254,-0.1905 0.084667,-0.04233 0.1693333,-0.105834 0.2751666,-0.127 0.1058334,-0.04233 0.2116667,-0.0635 0.3175,-0.0635 z m -0.4021666,0.994833 c -0.084667,0 -0.1481667,0 -0.1905,0.02117 -0.0635,0.02117 -0.127,0.04233 -0.1693334,0.0635 -0.021167,0.02117 -0.042333,0.04233 -0.0635,0.04233 0,0.02117 -0.021167,0.04233 -0.021167,0.0635 0,0 -0.021167,0.02117 -0.021167,0.04233 l 0,0.105834 c 0,0.381 0.1481667,0.550333 0.4021667,0.550333 0.084667,0 0.127,0 0.1905,-0.02117 0.042333,-0.02117 0.1058333,-0.0635 0.127,-0.105833 0.042333,-0.04233 0.0635,-0.08467 0.084667,-0.127 0,-0.0635 0.021167,-0.127 0.021167,-0.211667 0,-0.127 -0.042333,-0.232833 -0.1058333,-0.3175 -0.0635,-0.08467 -0.1481667,-0.105833 -0.254,-0.105833 z m 0,0"
     style="fill:#a6a6a6;fill-opacity:1;fill-rule:nonzero;stroke:none" />
  <path
     id="path67"
     d="m 36.660384,18.965192 c 0.127,-0.1905 0.254,-0.3175 0.381,-0.402166 0.127,-0.08467 0.254,-0.127 0.381,-0.127 0.105834,0 0.169334,0 0.254,0.02117 l -0.105833,0.465667 -0.211667,0 c 0,-0.0635 -0.02117,-0.105833 -0.04233,-0.127 0,-0.04233 -0.02117,-0.0635 -0.04233,-0.0635 -0.02117,-0.02117 -0.04233,-0.04233 -0.08467,-0.04233 -0.04233,0 -0.105833,0.04233 -0.169333,0.08467 -0.04233,0.04233 -0.127,0.105834 -0.1905,0.1905 -0.0635,0.08467 -0.127,0.1905 -0.169334,0.254 -0.04233,0.08467 -0.08467,0.1905 -0.105833,0.338667 l -0.1905,0.889 -0.359833,0 0.296333,-1.312333 c 0.02117,-0.08467 0.02117,-0.148167 0.02117,-0.1905 0.02117,-0.04233 0.02117,-0.08467 0.02117,-0.127 0,-0.04233 -0.02117,-0.08467 -0.04233,-0.105834 0,-0.02117 -0.04233,-0.04233 -0.0635,-0.04233 -0.04233,0 -0.105833,0.02117 -0.148167,0.0635 -0.04233,0.02117 -0.105833,0.08467 -0.1905,0.169333 l -0.127,-0.105833 c 0.127,-0.127 0.232834,-0.232833 0.3175,-0.275167 0.105834,-0.0635 0.1905,-0.08467 0.296334,-0.08467 0.08467,0 0.148166,0.02117 0.211666,0.08467 0.04233,0.04233 0.0635,0.127 0.0635,0.211667 0,0.08467 0,0.148167 -0.04233,0.211667 z m 0,0"
     style="fill:#a6a6a6;fill-opacity:1;fill-rule:nonzero;stroke:none" />
  <path
     id="path69"
     d="m 37.570551,19.748359 0,-0.3175 c 0.127,-0.04233 0.232833,-0.08467 0.338667,-0.105833 0.105833,-0.02117 0.211666,-0.04233 0.3175,-0.04233 0.08467,0 0.148166,0 0.232833,0.02117 0.0635,0.02117 0.127,0.04233 0.169333,0.08467 0.0635,0.04233 0.105834,0.08467 0.127,0.127 0.04233,0.0635 0.0635,0.127 0.0635,0.1905 0,0.0635 -0.02117,0.127 -0.04233,0.169333 -0.02117,0.0635 -0.04233,0.105833 -0.08467,0.148167 -0.04233,0.04233 -0.08467,0.08467 -0.148166,0.105833 -0.04233,0.04233 -0.105834,0.0635 -0.1905,0.105833 l 0,0.02117 c 0.0635,0 0.127,0.02117 0.1905,0.04233 0.0635,0.04233 0.105833,0.0635 0.169333,0.105834 0.04233,0.04233 0.08467,0.105833 0.105833,0.148166 0.02117,0.0635 0.04233,0.127 0.04233,0.1905 0,0.08467 -0.02117,0.148167 -0.0635,0.232805 -0.02117,0.0635 -0.0635,0.127 -0.127,0.169334 -0.0635,0.0635 -0.148167,0.105833 -0.232834,0.127 -0.08467,0.02117 -0.1905,0.04233 -0.3175,0.04233 -0.105833,0 -0.1905,0 -0.296333,-0.02117 -0.105833,-0.02117 -0.1905,-0.04233 -0.275167,-0.08467 l 0,-0.338639 0.1905,0 c 0.02117,0.0635 0.04233,0.105805 0.0635,0.126972 0.02117,0.04233 0.04233,0.08467 0.0635,0.105833 0.04233,0.02117 0.08467,0.04233 0.127,0.04233 0.04233,0.02117 0.08467,0.02117 0.127,0.02117 0.127,0 0.232834,-0.04233 0.296334,-0.105833 0.08467,-0.0635 0.105833,-0.148138 0.105833,-0.275138 0,-0.148167 -0.04233,-0.254 -0.127,-0.3175 -0.08467,-0.0635 -0.232833,-0.105834 -0.402167,-0.105834 l -0.148166,0 0,-0.148166 c 0.105833,0 0.211666,-0.02117 0.275166,-0.04233 0.08467,-0.02117 0.148167,-0.0635 0.211667,-0.105833 0.04233,-0.04233 0.08467,-0.08467 0.127,-0.148167 0.02117,-0.04233 0.02117,-0.105833 0.02117,-0.169333 0,-0.08467 -0.02117,-0.169333 -0.08467,-0.232833 -0.0635,-0.04233 -0.148167,-0.08467 -0.254,-0.08467 -0.08467,0 -0.169333,0.04233 -0.232833,0.08467 -0.0635,0.04233 -0.105834,0.127 -0.148167,0.232833 z m 0,0"
     style="fill:#a6a6a6;fill-opacity:1;fill-rule:nonzero;stroke:none" />
  <path
     id="path71"
     d="m 13.398387,19.007526 c 0.148167,-0.1905 0.275167,-0.3175 0.402167,-0.402167 0.105833,-0.08467 0.232833,-0.127 0.359833,-0.127 0.105833,0 0.1905,0 0.254,0.02117 l -0.08467,0.465666 -0.211666,0 c -0.02117,-0.0635 -0.02117,-0.105833 -0.04233,-0.127 -0.02117,-0.04233 -0.02117,-0.0635 -0.0635,-0.08467 -0.02117,0 -0.04233,-0.02117 -0.0635,-0.02117 -0.0635,0 -0.105833,0.02117 -0.169333,0.0635 -0.0635,0.04233 -0.127,0.127 -0.1905,0.211667 -0.08467,0.08467 -0.127,0.169333 -0.169333,0.254 -0.0635,0.08467 -0.08464,0.1905 -0.126972,0.3175 l -0.1905,0.910166 -0.359833,0 0.296333,-1.312333 c 0.02117,-0.08467 0.04233,-0.148167 0.04233,-0.1905 0,-0.04233 0,-0.08467 0,-0.127 0,-0.04233 0,-0.08467 -0.02117,-0.105833 -0.02117,-0.04233 -0.04233,-0.04233 -0.08467,-0.04233 -0.04233,0 -0.08467,0.02117 -0.127,0.04233 -0.04233,0.04233 -0.105833,0.105833 -0.1905,0.1905 l -0.127,-0.105834 c 0.127,-0.127 0.232833,-0.232833 0.3175,-0.296333 0.08467,-0.04233 0.1905,-0.0635 0.296333,-0.0635 0.08467,0 0.148167,0.02117 0.1905,0.08467 0.06347,0.04233 0.08464,0.127 0.08464,0.211666 0,0.0635 -0.02117,0.148167 -0.04233,0.211667 z m 0,0"
     style="fill:#a6a6a6;fill-opacity:1;fill-rule:nonzero;stroke:none" />
  <path
     id="path73"
     d="m 14.689554,21.229997 c 0.04233,0 0.0635,0 0.08467,-0.02117 0.02117,0 0.04233,0 0.04233,-0.02117 0.02117,0 0.04233,-0.02117 0.04233,-0.02117 0,-0.02117 0,-0.04233 0.02117,-0.0635 0,0 0,-0.02117 0,-0.0635 l 0,-0.105805 0,-0.1905 -0.867834,0 0,-0.127 c 0.148167,-0.211666 0.296334,-0.423333 0.4445,-0.635 0.169334,-0.211666 0.3175,-0.423333 0.465667,-0.635 l 0.254,0 0,1.227667 0.02117,0 c 0.04233,0 0.08467,0 0.105833,0 0.02117,0 0.04233,-0.02117 0.0635,-0.02117 0.02117,-0.02117 0.02117,-0.04233 0.04233,-0.0635 0,-0.02117 0.02117,-0.04233 0.04233,-0.08467 l 0.127,0 c 0,0.04233 -0.02117,0.105833 -0.02117,0.169333 0,0.0635 0,0.105833 0,0.169333 l -0.381,0 0,0.1905 0,0.148139 c 0,0.04233 0,0.0635 0.02117,0.08467 0,0.02117 0.02117,0.02117 0.0635,0.04233 0.02117,0 0.0635,0.02117 0.105833,0.02117 l 0,0.105834 -0.677333,0 z m -0.402167,-0.656138 0.592667,0 0,-0.3175 0,-0.127 c 0,-0.04233 0,-0.08467 0,-0.148167 0,-0.0635 0,-0.105833 0,-0.148166 0.02117,-0.04233 0.02117,-0.08467 0.02117,-0.127 l -0.02117,0 -0.296334,0.423333 c -0.105833,0.148167 -0.1905,0.296333 -0.296333,0.423333 z m 0,0"
     style="fill:#a6a6a6;fill-opacity:1;fill-rule:nonzero;stroke:none" />
  <path
     id="path75"
     d="m 7.3447769,23.833497 c 0.127,-0.1905 0.254,-0.3175 0.381,-0.402166 0.127,-0.08467 0.254,-0.127 0.381,-0.127 0.1058333,0 0.1905,0 0.254,0.02117 l -0.1058333,0.465667 -0.2116667,0 c 0,-0.0635 -0.021167,-0.105833 -0.021167,-0.148167 -0.021167,-0.02117 -0.042333,-0.04233 -0.0635,-0.0635 -0.021167,0 -0.042333,-0.02117 -0.084667,-0.02117 -0.042333,0 -0.1058334,0.02117 -0.1693334,0.0635 -0.042333,0.04233 -0.1058333,0.105833 -0.1905,0.211666 -0.0635,0.08467 -0.127,0.169334 -0.1693333,0.254 -0.042333,0.08467 -0.084667,0.1905 -0.1058333,0.3175 l -0.1905,0.910139 -0.3598334,0 0.2963334,-1.312305 c 0.021167,-0.08467 0.021167,-0.148167 0.021167,-0.1905 0.021167,-0.04233 0.021167,-0.08467 0.021167,-0.127 0,-0.04233 -0.021167,-0.08467 -0.021167,-0.105834 -0.021167,-0.04233 -0.042333,-0.04233 -0.084667,-0.04233 -0.042333,0 -0.1058334,0.02117 -0.1481667,0.04233 -0.042333,0.04233 -0.1058333,0.105834 -0.1905,0.1905 L 6.4769436,23.664164 c 0.1058333,-0.148167 0.2116666,-0.232833 0.2963333,-0.296333 0.1058333,-0.04233 0.1905,-0.0635 0.2963333,-0.0635 0.084667,0 0.1481667,0.02117 0.2116667,0.08467 0.042333,0.04233 0.0635,0.127 0.0635,0.211667 0,0.0635 0,0.148167 -0.042333,0.211667 z m 0,0"
     style="fill:#a6a6a6;fill-opacity:1;fill-rule:nonzero;stroke:none" />
  <path
     id="path77"
     d="m 8.2549436,25.738469 0.1905,0 c 0.042333,0.105833 0.084667,0.169333 0.1481666,0.211667 0.0635,0.0635 0.1481667,0.08467 0.254,0.08467 0.127,0 0.2328334,-0.04233 0.2963334,-0.105833 0.0635,-0.08467 0.1058333,-0.1905 0.1058333,-0.338667 0,-0.148166 -0.042333,-0.254 -0.1058333,-0.3175 -0.084667,-0.0635 -0.1693334,-0.105833 -0.3175,-0.105833 -0.021167,0 -0.0635,0 -0.084667,0 -0.042333,0 -0.0635,0 -0.084667,0 -0.042333,0.02117 -0.0635,0.02117 -0.084667,0.02117 -0.042333,0.02117 -0.0635,0.02117 -0.1058334,0.04233 l -0.127,-0.08467 0,-0.973638 0.8678334,0 0.0635,0 c 0.021167,0 0.021167,0 0.021167,-0.02117 0.021167,0 0.021167,0 0.042333,-0.02117 0,-0.02117 0,-0.04233 0.021167,-0.0635 l 0.1481667,0 -0.021167,0.381 -0.9101666,0 0,0.592638 c 0.042333,0 0.1058333,-0.02117 0.1693333,-0.04233 0.0635,0 0.127,0 0.1905,0 0.1058333,0 0.1905,0 0.2751667,0.02117 0.0635,0.04233 0.127,0.0635 0.1905,0.127 0.0635,0.04233 0.084667,0.105834 0.127,0.169334 0.021138,0.08467 0.042305,0.148166 0.042305,0.232833 0,0.105833 -0.021167,0.1905 -0.042305,0.275167 -0.042333,0.08467 -0.084667,0.148166 -0.1481667,0.1905 -0.0635,0.0635 -0.1481667,0.105833 -0.2328333,0.127 -0.084667,0.02117 -0.1905,0.04233 -0.3175,0.04233 -0.084667,0 -0.1693334,0 -0.2751667,-0.02117 -0.084667,-0.02117 -0.1905,-0.04233 -0.2963333,-0.08467 z m 0,0"
     style="fill:#a6a6a6;fill-opacity:1;fill-rule:nonzero;stroke:none" />
  <path
     id="path79"
     d="m 20.044692,47.772884 c 0.127,-0.169333 0.254,-0.3175 0.381,-0.402166 0.127,-0.08467 0.254,-0.127 0.381,-0.127 0.105834,0 0.190472,0 0.253972,0.02117 l -0.08467,0.465667 -0.232805,0 c 0,-0.0635 0,-0.105833 -0.02117,-0.127 -0.02117,-0.04233 -0.04233,-0.0635 -0.0635,-0.0635 -0.02117,-0.02117 -0.04233,-0.02117 -0.0635,-0.02117 -0.0635,0 -0.105834,0.02117 -0.169334,0.0635 -0.0635,0.04233 -0.127,0.105834 -0.211666,0.1905 -0.0635,0.105834 -0.127,0.1905 -0.169334,0.275167 -0.04233,0.08467 -0.0635,0.1905 -0.105833,0.3175 l -0.1905,0.889 -0.359833,0 0.296333,-1.312333 c 0.02117,-0.08467 0.04233,-0.148167 0.04233,-0.1905 0,-0.04233 0,-0.08467 0,-0.105834 0,-0.0635 0,-0.105833 -0.02117,-0.127 -0.02117,-0.02117 -0.04233,-0.04233 -0.08467,-0.04233 -0.04233,0 -0.08467,0.02117 -0.127,0.0635 -0.0635,0.02117 -0.127,0.08467 -0.211667,0.1905 l -0.105833,-0.127 c 0.127,-0.127 0.232833,-0.211667 0.3175,-0.275167 0.08467,-0.0635 0.169333,-0.08467 0.275167,-0.08467 0.08467,0 0.148166,0.02117 0.211666,0.08467 0.04233,0.0635 0.08467,0.127 0.08467,0.232834 0,0.0635 -0.02117,0.127 -0.04233,0.211666 z m 0,0"
     style="fill:#a6a6a6;fill-opacity:1;fill-rule:nonzero;stroke:none" />
  <path
     id="path81"
     d="m 21.822664,49.847218 c 0.04233,0 0.08467,0 0.105833,0 0.04233,0 0.0635,-0.02117 0.08467,-0.02117 0.02117,-0.02117 0.02117,-0.04233 0.04233,-0.0635 0.02117,-0.02117 0.02117,-0.0635 0.04233,-0.105833 l 0.148166,0 c 0,0.08467 -0.02117,0.148166 -0.02117,0.232833 0,0.0635 0,0.148167 -0.02117,0.211667 l -1.312305,0 0,-0.08467 c 0.04233,-0.04233 0.0635,-0.105833 0.105805,-0.148167 0.02117,-0.0635 0.0635,-0.127 0.105833,-0.169333 0.04233,-0.0635 0.08467,-0.127 0.148167,-0.1905 0.04233,-0.04233 0.105833,-0.105833 0.169333,-0.169333 0.08467,-0.105834 0.169334,-0.1905 0.232834,-0.254 0.0635,-0.0635 0.105833,-0.127 0.148166,-0.1905 0.02117,-0.04233 0.0635,-0.105834 0.0635,-0.148167 0.02117,-0.04233 0.02117,-0.08467 0.02117,-0.127 0,-0.0635 0,-0.105833 -0.02117,-0.169333 -0.02117,-0.04233 -0.04233,-0.0635 -0.0635,-0.105834 -0.02117,-0.02117 -0.0635,-0.04233 -0.105833,-0.0635 -0.04233,-0.02117 -0.08467,-0.02117 -0.148167,-0.02117 -0.08467,0 -0.169333,0.02117 -0.254,0.0635 -0.04233,0.0635 -0.105833,0.127 -0.148166,0.232833 l -0.190472,0 0,-0.296333 c 0.126972,-0.0635 0.253972,-0.105834 0.359805,-0.127 0.105833,-0.02117 0.211667,-0.04233 0.296333,-0.04233 0.105834,0 0.211667,0.02117 0.275167,0.04233 0.08467,0.02117 0.148167,0.0635 0.1905,0.105833 0.04233,0.04233 0.08467,0.08467 0.105833,0.148167 0.02117,0.04233 0.02117,0.105833 0.02117,0.169333 0,0.04233 0,0.08467 0,0.127 0,0.02117 -0.02117,0.0635 -0.02117,0.105833 -0.02117,0.02117 -0.04233,0.0635 -0.0635,0.105834 -0.02117,0.02117 -0.04233,0.0635 -0.08467,0.08467 -0.02117,0.04233 -0.0635,0.08467 -0.105834,0.127 -0.04233,0.04233 -0.08467,0.08467 -0.127,0.148167 l -0.169333,0.148167 c -0.04233,0.04233 -0.08467,0.105833 -0.148167,0.169333 -0.04233,0.04233 -0.08467,0.08467 -0.127,0.148167 -0.0635,0.04233 -0.08467,0.08467 -0.105833,0.127 z m 0,0"
     style="fill:#a6a6a6;fill-opacity:1;fill-rule:nonzero;stroke:none" />
  <path
     id="path83"
     d="m 24.256831,1.7568192 0,8.8264298"
     style="fill:none;stroke:#000000;stroke-width:0.69849485px;stroke-linecap:butt;stroke-linejoin:miter;stroke-miterlimit:8;stroke-dasharray:5.92666667, 1.97555556;stroke-dashoffset:0;stroke-opacity:1" />
  <path
     id="path85"
     d="m 25.315136,10.223415 -1.058305,2.116667 -1.058334,-2.116667 z m 0,0"
     style="fill:#000000;fill-opacity:1;fill-rule:evenodd;stroke:none" />
  <path
     id="path87"
     d="m 30.035218,45.889051 0.889,0 c 0.105833,0 0.169333,-0.02117 0.232833,-0.04233 0.04233,-0.02117 0.08467,-0.04233 0.127,-0.08467 0.04233,-0.04233 0.0635,-0.105833 0.08467,-0.1905 0.04233,-0.0635 0.0635,-0.1905 0.105833,-0.359833 l 0.232833,0 0,0.889 -2.2225,0 0,-0.105834 1.651,-2.963333 -0.867833,0 c -0.0635,0 -0.127,0 -0.148167,0.02117 -0.04233,0 -0.08467,0.02117 -0.105833,0.04233 -0.02117,0.02117 -0.0635,0.0635 -0.08467,0.08467 -0.02117,0.04233 -0.0635,0.105833 -0.08467,0.1905 -0.02117,0.0635 -0.0635,0.148166 -0.08467,0.275166 l -0.232833,0 0,-0.8255 2.159,0 0,0.105834 z m 0,0"
     style="fill:#000000;fill-opacity:1;fill-rule:nonzero;stroke:none" />
  <path
     id="path89"
     d="m 24.299164,50.185884 c 0.02117,-2.370666 1.587472,-4.466166 3.852305,-5.1435"
     style="fill:none;stroke:#00ae4f;stroke-width:0.69849485px;stroke-linecap:butt;stroke-linejoin:miter;stroke-miterlimit:8;stroke-dasharray:none;stroke-opacity:1" />
  <path
     id="path91"
     d="M 7.1542769,29.484884 C 5.2069718,28.659384 3.8734718,26.733302 3.8523051,24.531997"
     style="fill:none;stroke:#000000;stroke-width:0.69849485px;stroke-linecap:butt;stroke-linejoin:miter;stroke-miterlimit:8;stroke-dasharray:none;stroke-opacity:1" />
  <path
     id="path93"
     d="m 7.0484436,28.363051 1.8203333,1.545167 -2.3071667,0.508 z m 0,0"
     style="fill:#000000;fill-opacity:1;fill-rule:evenodd;stroke:none" />
  <path
     id="path95"
     d="m 10.413915,31.876718 0.867834,0 c 0.105833,0 0.169333,0 0.232833,-0.02117 0.04233,-0.02117 0.105833,-0.04233 0.127,-0.08467 0.04233,-0.04233 0.0635,-0.105833 0.08467,-0.1905 0.04233,-0.08467 0.0635,-0.1905 0.105833,-0.359833 l 0.232833,0 0,0.889 -2.2224997,0 0,-0.127 1.6509997,-2.942167 -0.867833,0 c -0.0635,0 -0.127,0 -0.148167,0.02117 -0.04233,0 -0.08467,0.02117 -0.105833,0.04233 -0.02117,0.02117 -0.0635,0.04233 -0.08467,0.08467 -0.02117,0.04233 -0.0635,0.105833 -0.08467,0.169333 -0.02117,0.08467 -0.0635,0.169334 -0.08467,0.275167 l -0.2328333,0 0,-0.8255 2.1590003,0 0,0.127 z m 0,0"
     style="fill:#000000;fill-opacity:1;fill-rule:nonzero;stroke:none" />
  <path
     id="path97"
     d="m 31.326384,16.86972 c 2.413,0.04233 4.487334,-1.481666 5.228167,-3.619471"
     style="fill:none;stroke:#000000;stroke-width:0.69849485px;stroke-linecap:butt;stroke-linejoin:miter;stroke-miterlimit:8;stroke-dasharray:none;stroke-opacity:1" />
  <path
     id="path99"
     d="m 37.549384,13.75822 -0.677333,-2.264805 -1.418167,1.904972 z m 0,0"
     style="fill:#000000;fill-opacity:1;fill-rule:evenodd;stroke:none" />
  <path
     id="path101"
     d="m 36.702718,9.9059153 0.867833,0 c 0.105833,0 0.1905,0 0.232833,-0.021167 0.0635,-0.021167 0.105834,-0.042333 0.148167,-0.084667 0.02117,-0.0635 0.0635,-0.1058333 0.08467,-0.1905 0.02117,-0.084638 0.0635,-0.1904718 0.105833,-0.3598051 l 0.232833,0 0,0.8889721 -2.2225,0 0,-0.127 1.651,-2.9421388 -0.889,0 c -0.0635,0 -0.105833,0 -0.148166,0 -0.04233,0.021167 -0.0635,0.042333 -0.08467,0.0635 -0.04233,0.021167 -0.0635,0.042333 -0.08467,0.084667 -0.04233,0.042333 -0.0635,0.1058333 -0.105833,0.1693333 -0.02117,0.084667 -0.04233,0.1693334 -0.0635,0.2751667 l -0.254,0 0,-0.8255 2.180167,0 0,0.127 z m 0,0"
     style="fill:#000000;fill-opacity:1;fill-rule:nonzero;stroke:none" />
  <path
     id="path103"
     d="m 5.0164718,38.692384 c 0,0.105834 0,0.211667 0,0.275167 0,0.0635 0.021167,0.105833 0.042333,0.127 0,0.04233 0.021167,0.0635 0.042333,0.105833 0.021167,0.02117 0.0635,0.04233 0.084667,0.0635 0.042333,0 0.1058333,0.02117 0.1905,0.04233 l 0,0.148166 -1.3123333,0 0,-0.148166 c 0.127,-0.02117 0.2116666,-0.0635 0.254,-0.08467 0.042333,-0.04233 0.0635,-0.105833 0.084667,-0.169333 0.021167,-0.0635 0.021167,-0.1905 0.021167,-0.359834 l 0,-1.291166 -1.7144915,0 0,1.291166 c 0,0.127 0,0.232834 0,0.296334 0.021167,0.0635 0.042333,0.127 0.0635,0.148166 0.021167,0.04233 0.042333,0.08467 0.084658,0.105834 0.042333,0.02117 0.1058333,0.04233 0.2116666,0.0635 l 0,0.148166 -1.3123192,0 0,-0.148166 c 0.127,-0.02117 0.2116667,-0.0635 0.2751667,-0.105834 0.042333,-0.04233 0.0635,-0.105833 0.0635,-0.169333 0.021164,-0.08467 0.042331,-0.1905 0.042331,-0.338667 l 0,-2.688166 c 0,-0.148167 -0.021167,-0.232834 -0.021167,-0.296334 -0.021164,-0.08467 -0.04233,-0.127 -0.063497,-0.169333 -0.021167,-0.02117 -0.042333,-0.0635 -0.084667,-0.08467 -0.042333,-0.02117 -0.1058333,-0.04233 -0.2116667,-0.0635 l 0,-0.169333 1.3123192,0 0,0.169333 c -0.084667,0.02117 -0.1481666,0.04233 -0.1905,0.0635 -0.042333,0.02117 -0.084658,0.04233 -0.1058248,0.08467 -0.021167,0.04233 -0.042333,0.08467 -0.042333,0.148167 -0.021167,0.0635 -0.021167,0.169333 -0.021167,0.3175 l 0,1.100666 1.7144915,0 0,-1.100666 c 0,-0.169334 0,-0.296334 -0.021167,-0.359834 -0.021167,-0.0635 -0.042333,-0.127 -0.084667,-0.148166 -0.042333,-0.04233 -0.127,-0.08467 -0.254,-0.105834 l 0,-0.169333 1.3123333,0 0,0.169333 c -0.127,0.02117 -0.2116667,0.0635 -0.254,0.08467 -0.042333,0.04233 -0.0635,0.08467 -0.084667,0.169333 -0.021167,0.0635 -0.021167,0.1905 -0.021167,0.359834 z m 0,0"
     style="fill:#000000;fill-opacity:1;fill-rule:nonzero;stroke:none" />
  <path
     id="path105"
     d="m 3.4713051,41.295884 0,6.4135"
     style="fill:none;stroke:#000000;stroke-width:0.69849485px;stroke-linecap:butt;stroke-linejoin:miter;stroke-miterlimit:8;stroke-dasharray:none;stroke-opacity:1" />
  <path
     id="path107"
     d="m 4.5296384,47.370718 -1.0583333,2.116666 -1.058322,-2.116666 z m 0,0"
     style="fill:#000000;fill-opacity:1;fill-rule:evenodd;stroke:none" />
  <path
     id="path109"
     d="m 30.310384,33.337218 c 0.148167,-0.1905 0.275167,-0.3175 0.402167,-0.402167 0.105833,-0.08467 0.232833,-0.148167 0.381,-0.148167 0.08467,0 0.169333,0.02117 0.232833,0.04233 l -0.08467,0.465666 -0.211667,0 c -0.02117,-0.0635 -0.02117,-0.105833 -0.04233,-0.148166 -0.02117,-0.02117 -0.02117,-0.04233 -0.0635,-0.0635 -0.02117,0 -0.04233,-0.02117 -0.0635,-0.02117 -0.0635,0 -0.105834,0.02117 -0.169334,0.0635 -0.0635,0.04233 -0.127,0.105833 -0.1905,0.211667 -0.08467,0.08467 -0.127,0.169333 -0.169333,0.254 -0.0635,0.08467 -0.08467,0.1905 -0.127,0.3175 l -0.1905,0.910166 -0.359833,0 0.296333,-1.312333 c 0.02117,-0.08467 0.04233,-0.148167 0.04233,-0.1905 0,-0.04233 0,-0.08467 0,-0.127 0,-0.04233 0,-0.08467 -0.02117,-0.105833 -0.02117,-0.04233 -0.04233,-0.04233 -0.08467,-0.04233 -0.04233,0 -0.08467,0.02117 -0.127,0.04233 -0.04233,0.04233 -0.105833,0.105833 -0.1905,0.1905 l -0.127,-0.105834 c 0.127,-0.148166 0.232833,-0.232833 0.3175,-0.296333 0.08467,-0.04233 0.1905,-0.08467 0.296333,-0.08467 0.08467,0 0.148167,0.04233 0.1905,0.105834 0.0635,0.04233 0.08467,0.127 0.08467,0.211666 0,0.0635 -0.02117,0.148167 -0.04233,0.211667 z m 0,0"
     style="fill:#a6a6a6;fill-opacity:1;fill-rule:nonzero;stroke:none" />
  <path
     id="path111"
     d="m 32.596384,33.760551 -0.910166,1.905 -0.232834,0 0,-0.0635 0.846667,-1.629833 0,-0.02117 -0.656167,0 c -0.0635,0 -0.08467,0 -0.127,0 -0.02117,0.02117 -0.04233,0.02117 -0.0635,0.04233 l -0.02117,0.02117 c 0,0 0,0.02117 -0.02117,0.04233 0,0 0,0.02117 -0.02117,0.04233 0,0.02117 0,0.04233 -0.02117,0.08467 l -0.148167,0 0.04233,-0.508 1.3335,0 z m 0,0"
     style="fill:#a6a6a6;fill-opacity:1;fill-rule:nonzero;stroke:none" />
  <path
     id="path113"
     d="m 7.0696102,62.187102 c 0.127,-0.1905 0.254,-0.3175 0.381,-0.402166 0.127,-0.08467 0.254,-0.148167 0.381,-0.148167 0.084667,0 0.1693334,0.02117 0.254,0.04233 l -0.1058333,0.465667 -0.2116667,0 c -0.021167,-0.0635 -0.021167,-0.105833 -0.042333,-0.148167 0,-0.02117 -0.021167,-0.04233 -0.042333,-0.0635 -0.021167,0 -0.0635,-0.02117 -0.084667,-0.02117 -0.042333,0 -0.1058333,0.02117 -0.1693333,0.0635 -0.0635,0.04233 -0.127,0.105833 -0.1905,0.211666 -0.0635,0.08467 -0.127,0.169334 -0.1693334,0.254 -0.042333,0.08467 -0.084667,0.1905 -0.1058333,0.3175 l -0.2116667,0.910167 -0.3386666,0 0.2963333,-1.312333 c 0,-0.08467 0.021167,-0.148167 0.021167,-0.1905 0,-0.0635 0.021167,-0.08467 0.021167,-0.127 0,-0.04233 -0.021167,-0.08467 -0.042333,-0.105834 0,-0.04233 -0.042333,-0.04233 -0.084667,-0.04233 -0.042333,0 -0.084667,0.02117 -0.127,0.04233 -0.042333,0.04233 -0.1058333,0.105834 -0.1905,0.1905 l -0.127,-0.105833 c 0.127,-0.148167 0.2328334,-0.232833 0.3175,-0.296333 0.084667,-0.04233 0.1905,-0.08467 0.2963334,-0.08467 0.084667,0 0.1481666,0.04233 0.1905,0.105833 0.0635,0.04233 0.084667,0.127 0.084667,0.211667 0,0.0635 -0.021167,0.148167 -0.042333,0.211667 z m 0,0"
     style="fill:#a6a6a6;fill-opacity:1;fill-rule:nonzero;stroke:none" />
  <path
     id="path115"
     d="m 7.8316102,64.409602 c 0.021167,0 0.042333,0 0.0635,-0.02117 0.021167,0 0.042333,-0.02117 0.0635,-0.04233 0.021167,-0.02117 0.021167,-0.04233 0.042333,-0.08467 0,-0.0635 0.021167,-0.127 0.042333,-0.211667 l 0.254,-1.121833 c 0.021167,-0.04233 0.021167,-0.08467 0.021167,-0.105834 0.021167,-0.04233 0.021167,-0.08467 0.021167,-0.105833 0,-0.04233 -0.021167,-0.0635 -0.042333,-0.08467 -0.021167,-0.02117 -0.0635,-0.04233 -0.127,-0.04233 l 0.021167,-0.105833 0.6138333,0 c 0.1058333,0 0.1905,0.02117 0.254,0.02117 0.084667,0.02117 0.1481667,0.02117 0.1905,0.04233 0.084667,0.02117 0.1481667,0.0635 0.2116667,0.105833 0.0635,0.02117 0.1058051,0.08467 0.1481384,0.127 0.042333,0.0635 0.084667,0.127 0.1058333,0.211667 0.021167,0.08467 0.042333,0.169333 0.042333,0.254 0,0.1905 -0.042333,0.359833 -0.084667,0.508 -0.0635,0.169333 -0.1481384,0.296333 -0.2539718,0.402166 -0.1058333,0.105834 -0.2328333,0.1905 -0.4021666,0.254 -0.1481667,0.0635 -0.3386667,0.105834 -0.5503334,0.105834 l -0.6561666,0 z m 0.4445,-0.0635 0.042333,0 c 0,0 0.021167,0 0.042333,0 l 0.0635,0 0.042333,0 c 0.1693334,0 0.2963334,-0.02117 0.4233334,-0.08467 0.127,-0.04233 0.2116666,-0.127 0.2963333,-0.232834 0.084667,-0.127 0.1481667,-0.232833 0.1905,-0.359833 0.042333,-0.127 0.0635,-0.275167 0.0635,-0.423333 0,-0.08467 -0.021167,-0.169334 -0.042333,-0.254 -0.021167,-0.0635 -0.0635,-0.127 -0.1058334,-0.169334 -0.0635,-0.0635 -0.127,-0.105833 -0.2116666,-0.127 -0.0635,-0.02117 -0.1481667,-0.04233 -0.254,-0.04233 -0.021167,0 -0.0635,0 -0.084667,0 -0.021167,0 -0.0635,0 -0.084667,0.02117 z m 0,0"
     style="fill:#a6a6a6;fill-opacity:1;fill-rule:nonzero;stroke:none" />
  <path
     id="path117"
     d="m 10.477415,64.155602 c 0,0.0635 0.02117,0.127 0.02117,0.211667 0,0.0635 -0.02117,0.127 -0.04233,0.1905 -0.02117,0.0635 -0.0635,0.127 -0.127,0.169333 -0.04233,0.0635 -0.127,0.127 -0.211667,0.211667 l -0.08467,-0.105833 c 0.04233,-0.04233 0.08467,-0.08467 0.105834,-0.127 0.02117,-0.04233 0.04233,-0.08467 0.0635,-0.148167 0,-0.04233 0,-0.105833 0,-0.169333 0,-0.08467 0,-0.169334 0,-0.232834 z m 0,0"
     style="fill:#a6a6a6;fill-opacity:1;fill-rule:nonzero;stroke:none" />
  <path
     id="path119"
     d="m 12.064915,64.176769 c -0.105833,0.127 -0.232833,0.211667 -0.359833,0.275167 -0.105833,0.04233 -0.232833,0.08467 -0.381,0.08467 -0.08467,0 -0.148167,-0.02117 -0.211667,-0.04233 -0.0635,-0.02117 -0.127,-0.0635 -0.169333,-0.105833 -0.04233,-0.04233 -0.0635,-0.105834 -0.08467,-0.169334 -0.02117,-0.0635 -0.04233,-0.148166 -0.04233,-0.232833 0,-0.04233 0.02117,-0.105833 0.02117,-0.169333 0.02117,-0.0635 0.02117,-0.127 0.04233,-0.1905 0.02117,-0.0635 0.0635,-0.127 0.08467,-0.1905 0.04233,-0.0635 0.08467,-0.127 0.127,-0.169334 0.08467,-0.105833 0.169333,-0.1905 0.296333,-0.254 0.127,-0.0635 0.254,-0.08467 0.402167,-0.08467 0.127,0 0.232833,0.02117 0.3175,0.08467 0.0635,0.0635 0.08467,0.127 0.08467,0.232834 0,0.381 -0.338666,0.5715 -1.058333,0.5715 0,0.02117 0,0.0635 0,0.08467 0,0.04233 -0.02117,0.0635 -0.02117,0.105834 0,0.105833 0.02117,0.1905 0.08467,0.254 0.04233,0.04233 0.105833,0.0635 0.211667,0.0635 0.04233,0 0.08467,0 0.127,0 0.0635,-0.02117 0.105833,-0.04233 0.148166,-0.0635 0.04233,-0.02117 0.08467,-0.04233 0.127,-0.08467 0.04233,-0.04233 0.08467,-0.08467 0.148167,-0.127 z m -0.889,-0.508 c 0.127,0 0.232834,0 0.338667,-0.02117 0.08467,-0.02117 0.169333,-0.0635 0.232833,-0.08467 0.0635,-0.04233 0.105834,-0.08467 0.127,-0.127 0.02117,-0.04233 0.04233,-0.105834 0.04233,-0.148167 0,-0.0635 -0.02117,-0.127 -0.04233,-0.148167 -0.04233,-0.04233 -0.08467,-0.0635 -0.148166,-0.0635 -0.0635,0 -0.105834,0.02117 -0.169334,0.04233 -0.04233,0.02117 -0.105833,0.0635 -0.148166,0.127 -0.0635,0.04233 -0.105834,0.105833 -0.148167,0.1905 -0.02117,0.0635 -0.0635,0.148166 -0.08467,0.232833 z m 0,0"
     style="fill:#a6a6a6;fill-opacity:1;fill-rule:nonzero;stroke:none" />
  <path
     id="path121"
     d="m 13.144415,63.753436 c -0.02117,-0.08467 -0.04233,-0.148167 -0.0635,-0.211667 0,-0.0635 -0.02117,-0.127 -0.02117,-0.169333 -0.02117,-0.04233 -0.04233,-0.08467 -0.04233,-0.127 -0.02117,-0.02117 -0.02117,-0.04233 -0.04233,-0.0635 0,-0.02117 -0.02117,-0.02117 -0.04233,-0.04233 0,0 -0.02117,0 -0.04233,0 -0.02117,0 -0.02117,0 -0.04233,0 -0.02117,0.02117 -0.04233,0.02117 -0.04233,0.04233 -0.02117,0 -0.04233,0.02117 -0.0635,0.0635 -0.02117,0.02117 -0.04233,0.04233 -0.0635,0.08467 l -0.127,-0.0635 c 0.04233,-0.0635 0.08467,-0.127 0.127,-0.169333 0.02117,-0.04233 0.0635,-0.08467 0.105833,-0.105833 0.02117,-0.02117 0.0635,-0.04233 0.105833,-0.04233 0.02117,-0.02117 0.0635,-0.02117 0.127,-0.02117 0.04233,0 0.08467,0 0.127,0.04233 0.04233,0.02117 0.0635,0.04233 0.08467,0.105833 0.02117,0.04233 0.04233,0.105834 0.0635,0.169334 0.02117,0.0635 0.04233,0.148166 0.04233,0.232833 l 0.02114,0 c 0.0635,-0.08467 0.127,-0.148167 0.169333,-0.211667 0.04233,-0.0635 0.08467,-0.105833 0.127,-0.148166 0.02117,-0.04233 0.0635,-0.08467 0.08467,-0.105834 0.04233,-0.02117 0.0635,-0.04233 0.08467,-0.04233 0.02117,-0.02117 0.0635,-0.02117 0.08467,-0.04233 0.02117,0 0.0635,0 0.105833,0 0.04233,0 0.08467,0 0.127,0.02117 l -0.0635,0.296334 -0.127,0 c -0.02117,-0.04233 -0.02117,-0.0635 -0.0635,-0.0635 0,0 -0.02117,0 -0.04233,0.02117 0,0 -0.02117,0 -0.04233,0.02117 -0.02117,0 -0.04233,0.02117 -0.0635,0.04233 -0.02117,0.02117 -0.04233,0.0635 -0.08467,0.08467 -0.04233,0.04233 -0.0635,0.08467 -0.105833,0.148167 -0.04233,0.04233 -0.105834,0.105833 -0.148167,0.169333 0.02117,0.148167 0.04233,0.254 0.0635,0.338667 0.02117,0.08467 0.04233,0.169333 0.0635,0.211666 0.02117,0.04233 0.04233,0.0635 0.0635,0.08467 0,0.02117 0.04233,0.02117 0.0635,0.02117 0.02117,0 0.02117,0 0.04233,0 0.02117,0 0.02117,-0.02117 0.04233,-0.04233 0.02117,0 0.04233,-0.02117 0.0635,-0.04233 0.02117,-0.04233 0.04233,-0.0635 0.0635,-0.105833 l 0.127,0.0635 c -0.0635,0.0635 -0.105834,0.127 -0.127,0.169333 -0.04233,0.04233 -0.0635,0.08467 -0.105834,0.105833 -0.04233,0.02117 -0.0635,0.04233 -0.105833,0.04233 -0.04233,0.02117 -0.0635,0.02117 -0.105833,0.02117 -0.04233,0 -0.08467,0 -0.127,-0.02117 -0.02117,0 -0.04233,-0.02117 -0.0635,-0.0635 -0.02114,-0.02117 -0.04231,-0.04233 -0.04231,-0.0635 -0.02117,-0.04233 -0.04233,-0.0635 -0.04233,-0.105834 -0.02117,-0.02117 -0.02117,-0.0635 -0.04233,-0.105833 0,-0.02117 0,-0.0635 -0.02117,-0.105833 0,-0.02117 0,-0.04233 0,-0.0635 -0.02117,-0.04233 -0.02117,-0.0635 -0.02117,-0.0635 l -0.02117,0 c -0.0635,0.08467 -0.105833,0.148166 -0.148167,0.211666 -0.0635,0.0635 -0.08467,0.105834 -0.127,0.148167 -0.04233,0.0635 -0.0635,0.08467 -0.105833,0.127 -0.02117,0.02117 -0.0635,0.04233 -0.08467,0.0635 -0.02117,0.02117 -0.0635,0.02117 -0.08467,0.02117 -0.04233,0.02117 -0.0635,0.02117 -0.105834,0.02117 -0.0635,0 -0.105833,-0.02117 -0.148166,-0.02117 l 0.08467,-0.3175 0.127,0 c 0,0.04233 0.02117,0.08467 0.04233,0.08467 0.02117,-0.02117 0.04233,-0.02117 0.04233,-0.02117 0,0 0.02117,0 0.04233,-0.02117 0,0 0.02117,-0.02117 0.04233,-0.04233 0.02117,-0.02117 0.0635,-0.04233 0.08467,-0.08467 0.04233,-0.04233 0.08467,-0.08467 0.127,-0.148167 0.0635,-0.04233 0.105834,-0.127 0.1905,-0.211666 z m 0,0"
     style="fill:#a6a6a6;fill-opacity:1;fill-rule:nonzero;stroke:none" />
  <path
     id="path123"
     d="m 35.094051,63.287769 c 0.148167,-0.1905 0.275167,-0.3175 0.402167,-0.402167 0.105833,-0.08467 0.232833,-0.127 0.381,-0.127 0.08467,0 0.169333,0 0.254,0.02117 l -0.105834,0.465667 -0.211666,0 c -0.02117,-0.0635 -0.02117,-0.105834 -0.04233,-0.127 -0.02117,-0.04233 -0.02117,-0.0635 -0.04233,-0.0635 -0.02117,-0.02117 -0.0635,-0.04233 -0.08467,-0.04233 -0.0635,0 -0.105833,0.04233 -0.169333,0.08467 -0.0635,0.04233 -0.127,0.105833 -0.1905,0.1905 -0.08467,0.08467 -0.127,0.169333 -0.169333,0.254 -0.04233,0.08467 -0.08467,0.1905 -0.127,0.338667 l -0.1905,0.889 -0.359834,0 0.296334,-1.312334 c 0.02117,-0.08467 0.04233,-0.148166 0.04233,-0.1905 0,-0.04233 0.02117,-0.08467 0.02117,-0.127 0,-0.04233 -0.02117,-0.08467 -0.04233,-0.105833 0,-0.02117 -0.04233,-0.04233 -0.08467,-0.04233 -0.04233,0 -0.08467,0.02117 -0.127,0.0635 -0.04233,0.02117 -0.105834,0.08467 -0.1905,0.169333 l -0.127,-0.105833 c 0.127,-0.127 0.232833,-0.232834 0.3175,-0.275167 0.08467,-0.0635 0.1905,-0.08467 0.296333,-0.08467 0.08467,0 0.148167,0.02117 0.1905,0.08467 0.0635,0.04233 0.08467,0.127 0.08467,0.211667 0,0.08467 -0.02117,0.148166 -0.04233,0.211666 z m 0,0"
     style="fill:#a6a6a6;fill-opacity:1;fill-rule:nonzero;stroke:none" />
  <path
     id="path125"
     d="m 35.877218,65.510269 c 0.02117,0 0.04233,0 0.0635,0 0.02117,-0.02117 0.04233,-0.02117 0.0635,-0.0635 0,-0.02117 0.02117,-0.04233 0.04233,-0.08467 0,-0.04233 0.02117,-0.105833 0.04233,-0.1905 l 0.254,-1.143 c 0.02117,-0.04233 0.02117,-0.08467 0.02117,-0.105833 0,-0.04233 0.02117,-0.0635 0.02117,-0.08467 0,-0.0635 -0.02117,-0.08467 -0.04233,-0.105833 -0.02117,-0.02117 -0.0635,-0.04233 -0.127,-0.04233 l 0.02117,-0.08467 0.804333,0 c 0.127,0 0.232834,0 0.3175,0.02117 0.08467,0.02117 0.148167,0.04233 0.211667,0.08467 0.04233,0.04233 0.08467,0.08467 0.105833,0.148167 0.02117,0.04233 0.04233,0.105833 0.04233,0.169333 0,0.254 -0.169334,0.423334 -0.486834,0.529167 l 0,0.02117 0,0 c 0.105834,0.04233 0.169334,0.105833 0.211667,0.169333 0.0635,0.0635 0.08467,0.148167 0.08467,0.232833 0,0.105834 -0.02117,0.1905 -0.0635,0.254 -0.02117,0.08467 -0.08467,0.148167 -0.169334,0.211667 -0.0635,0.04233 -0.169333,0.08467 -0.296333,0.127 -0.105833,0.02117 -0.254,0.04233 -0.423333,0.04233 l -0.719667,0 z m 0.910166,-1.016 c 0.105834,0 0.211667,-0.02117 0.275167,-0.04233 0.08467,-0.02117 0.148167,-0.04233 0.211667,-0.08467 0.04233,-0.04233 0.0635,-0.08467 0.08467,-0.148167 0.04233,-0.04233 0.04233,-0.105833 0.04233,-0.169333 0,-0.0635 0,-0.08467 -0.02117,-0.127 -0.02117,-0.04233 -0.04233,-0.0635 -0.08467,-0.08467 -0.02117,-0.02117 -0.0635,-0.04233 -0.127,-0.0635 -0.04233,0 -0.105833,-0.02117 -0.1905,-0.02117 -0.04233,0 -0.105833,0 -0.148166,0.02117 -0.04233,0 -0.08467,0 -0.127,0 l -0.148167,0.719667 z m -0.4445,0.9525 c 0.02117,0 0.04233,0 0.08467,0 l 0.127,0 c 0.127,0 0.211667,0 0.296333,-0.02117 0.08467,-0.02117 0.148167,-0.04233 0.1905,-0.08467 0.0635,-0.04233 0.105834,-0.105834 0.127,-0.169334 0.02117,-0.0635 0.04233,-0.148166 0.04233,-0.232833 0,-0.04233 0,-0.08467 -0.02117,-0.127 -0.02117,-0.02117 -0.04233,-0.0635 -0.08467,-0.08467 -0.02117,-0.02117 -0.0635,-0.04233 -0.127,-0.0635 -0.04233,0 -0.105833,-0.02117 -0.1905,-0.02117 l -0.275166,0 z m 0,0"
     style="fill:#a6a6a6;fill-opacity:1;fill-rule:nonzero;stroke:none" />
  <path
     id="path127"
     d="m 40.533884,63.689936 c -0.04233,0.02117 -0.0635,0.02117 -0.08467,0.02117 -0.02117,0.02117 -0.04233,0.02117 -0.04233,0.0635 -0.02117,0 -0.04233,0.04233 -0.04233,0.08467 -0.02117,0.04233 -0.04233,0.105833 -0.04233,0.1905 l -0.254,1.121833 c -0.02117,0.0635 -0.02117,0.105834 -0.02117,0.127 -0.02117,0.04233 -0.02117,0.0635 -0.02117,0.08467 0,0.04233 0.02117,0.08467 0.04233,0.105833 0.02117,0.02117 0.0635,0.02117 0.127,0.02117 l -0.02117,0.105833 -0.656167,0 0.02117,-0.105833 c 0.02117,0 0.0635,0 0.0635,-0.02117 0.02117,0 0.04233,-0.02117 0.0635,-0.02117 0,-0.02117 0.02117,-0.04233 0.02117,-0.0635 0.02117,-0.04233 0.02117,-0.08467 0.04233,-0.127 0.02117,-0.0635 0.04233,-0.105834 0.04233,-0.169334 0.02117,-0.0635 0.04233,-0.127 0.04233,-0.211666 0.02117,-0.0635 0.04233,-0.127 0.04233,-0.1905 0.02117,-0.08467 0.04233,-0.148167 0.0635,-0.211667 0,-0.04233 0,-0.08467 0.02117,-0.127 0,-0.0635 0.02117,-0.105833 0.02117,-0.148167 0.02117,-0.0635 0.04233,-0.105833 0.04233,-0.148166 0.02117,-0.04233 0.02117,-0.08467 0.04233,-0.105834 l -0.02117,0 -0.910166,1.418167 -0.1905,0 -0.211667,-1.4605 -0.02117,0 c -0.02117,0.0635 -0.04233,0.148167 -0.04233,0.254 -0.02117,0.08467 -0.04233,0.211667 -0.0635,0.338667 -0.02117,0.04233 -0.04233,0.105833 -0.04233,0.148166 -0.02117,0.0635 -0.02117,0.127 -0.04233,0.169334 -0.02117,0.0635 -0.02117,0.127 -0.04233,0.169333 0,0.0635 -0.02117,0.105833 -0.04233,0.169333 0,0.04233 -0.02117,0.08467 -0.02117,0.127 0,0.04233 0,0.0635 0,0.08467 0,0.04233 0,0.08467 0.04233,0.105833 0.02117,0.02117 0.0635,0.02117 0.127,0.02117 l -0.02117,0.105833 -0.5715,0 0.02117,-0.105833 c 0.02117,0 0.04233,0 0.0635,0 0.02117,-0.02117 0.04233,-0.02117 0.0635,-0.0635 0,-0.02117 0.02117,-0.04233 0.04233,-0.08467 0,-0.04233 0.02117,-0.105833 0.04233,-0.1905 l 0.254,-1.143 c 0.02117,-0.04233 0.02117,-0.0635 0.02117,-0.105833 0,-0.04233 0,-0.0635 0,-0.105833 0,-0.04233 0,-0.0635 -0.02117,-0.08467 -0.04233,-0.02117 -0.08467,-0.04233 -0.127,-0.04233 l 0.02117,-0.08467 0.592666,0 0.1905,1.397 0.910167,-1.397 0.508,0 z m 0,0"
     style="fill:#a6a6a6;fill-opacity:1;fill-rule:nonzero;stroke:none" />
  <path
     id="path129"
     d="m 26.987302,3.5983051 c 0.148167,-0.1693333 0.275167,-0.3175 0.402167,-0.4021667 0.127,-0.084667 0.254,-0.127 0.381,-0.127 0.08467,0 0.169333,0 0.254,0.021167 l -0.105833,0.4656667 -0.211667,0 c -0.02117,-0.0635 -0.02117,-0.1058334 -0.04233,-0.127 0,-0.042333 -0.02117,-0.0635 -0.04233,-0.0635 -0.02117,-0.021167 -0.0635,-0.021167 -0.08467,-0.021167 -0.04233,0 -0.105834,0.021167 -0.169334,0.0635 -0.0635,0.042333 -0.127,0.1058333 -0.1905,0.1905 -0.08467,0.1058333 -0.127,0.1905 -0.169333,0.2751667 -0.04233,0.084667 -0.08467,0.1905 -0.105833,0.3175 l -0.211667,0.889 -0.359833,0 0.3175,-1.3123334 c 0,-0.084667 0.02117,-0.1481666 0.02117,-0.1905 0,-0.042333 0.02117,-0.084667 0.02117,-0.1058333 0,-0.0635 -0.02117,-0.1058333 -0.04233,-0.127 0,-0.021167 -0.04233,-0.042333 -0.08467,-0.042333 -0.04233,0 -0.08467,0.021167 -0.127,0.0635 -0.04233,0.021167 -0.105833,0.084667 -0.1905,0.1905 l -0.127,-0.127 c 0.127,-0.127 0.232833,-0.2116667 0.3175,-0.2751667 0.08467,-0.0635 0.1905,-0.084667 0.296333,-0.084667 0.08467,0 0.148167,0.021167 0.1905,0.084667 0.0635,0.0635 0.08467,0.127 0.08467,0.2328333 0,0.0635 -0.02117,0.127 -0.04233,0.2116667 z m 0,0"
     style="fill:#a6a6a6;fill-opacity:1;fill-rule:nonzero;stroke:none" />
  <path
     id="path131"
     d="m 27.833969,5.4398051 c 0,0.127 0.04233,0.2328333 0.105833,0.2751667 0.0635,0.063472 0.148167,0.084638 0.296249,0.084638 0.0635,0 0.105833,0 0.169333,-0.021167 0.0635,-0.021167 0.105834,-0.042333 0.127,-0.084639 0.04233,-0.021167 0.08467,-0.0635 0.105834,-0.1058333 0,-0.0635 0.02117,-0.1058334 0.02117,-0.1693334 0,-0.042333 0,-0.084667 -0.02117,-0.1058333 0,-0.042333 -0.02117,-0.0635 -0.04233,-0.1058333 -0.02117,-0.042333 -0.0635,-0.0635 -0.105833,-0.1058334 -0.04233,-0.021167 -0.105833,-0.0635 -0.169333,-0.1058333 -0.0635,-0.042333 -0.126916,-0.084667 -0.169249,-0.127 -0.04233,-0.042333 -0.08467,-0.0635 -0.127,-0.1058333 -0.02117,-0.042333 -0.04233,-0.1058334 -0.0635,-0.1481667 -0.02117,-0.042333 -0.02117,-0.084667 -0.02117,-0.1481667 0,-0.084667 0.02117,-0.1693333 0.04233,-0.2328333 0.04233,-0.0635 0.08467,-0.127 0.148166,-0.1905 0.0635,-0.042333 0.148082,-0.084667 0.232749,-0.1058333 0.08467,-0.042333 0.1905,-0.042333 0.296333,-0.042333 0.105834,0 0.1905,0 0.275167,0.021167 0.105833,0 0.1905,0.042333 0.296333,0.0635 l -0.08467,0.4021667 -0.169334,0 c 0,-0.0635 -0.02117,-0.1058334 -0.02117,-0.1481667 -0.02117,-0.042333 -0.04233,-0.084667 -0.0635,-0.1058333 -0.04233,-0.021167 -0.0635,-0.042333 -0.105834,-0.0635 -0.04233,0 -0.08467,-0.021167 -0.148166,-0.021167 -0.0635,0 -0.127,0.021167 -0.169334,0.042333 -0.04233,0 -0.105833,0.021167 -0.127,0.0635 -0.04233,0.021167 -0.0635,0.0635 -0.08467,0.1058334 -0.02117,0.042333 -0.02117,0.084667 -0.02117,0.127 0,0.042333 0,0.084667 0,0.127 0.02117,0.021167 0.04233,0.042333 0.0635,0.084667 0.02117,0.021167 0.04233,0.0635 0.08467,0.084667 0.04233,0.042333 0.08467,0.0635 0.148166,0.1058333 0.08467,0.042333 0.148167,0.084667 0.1905,0.127 0.0635,0.042333 0.105834,0.084667 0.148167,0.127 0.02117,0.042333 0.04233,0.1058334 0.0635,0.1481667 0.02117,0.042333 0.02117,0.1058333 0.02117,0.1693333 0,0.084667 -0.02117,0.1693334 -0.04233,0.254 -0.04233,0.0635 -0.105833,0.1269718 -0.169333,0.1904718 -0.0635,0.042333 -0.148167,0.084667 -0.232833,0.127 -0.08467,0.021167 -0.1905,0.042333 -0.296249,0.042333 -0.105833,0 -0.211667,-0.021167 -0.3175,-0.042333 -0.105833,0 -0.211667,-0.021167 -0.3175,-0.0635 l 0.08467,-0.4233051 z m 0,0"
     style="fill:#a6a6a6;fill-opacity:1;fill-rule:nonzero;stroke:none" />
  <path
     id="path133"
     d="m 29.781218,5.5668051 c 0,0.0635 0.02117,0.1481667 0.02117,0.2116385 0,0.084667 -0.02117,0.1481666 -0.04233,0.1905 -0.02117,0.0635 -0.0635,0.127 -0.127,0.1905 -0.04233,0.0635 -0.127,0.127 -0.211667,0.1905 l -0.08467,-0.084667 c 0.04233,-0.0635 0.08467,-0.1058333 0.105833,-0.1481667 0.02117,-0.042333 0.04233,-0.084667 0.0635,-0.127 0,-0.042333 0,-0.1058333 0,-0.1905 0,-0.084638 0,-0.1481384 0,-0.2328051 z m 0,0"
     style="fill:#a6a6a6;fill-opacity:1;fill-rule:nonzero;stroke:none" />
  <path
     id="path135"
     d="m 31.199384,5.5456384 c -0.105833,0.1481667 -0.211666,0.2328052 -0.3175,0.3174718 -0.08467,0.0635 -0.1905,0.084667 -0.296333,0.084667 -0.105833,0 -0.1905,-0.021167 -0.254,-0.084667 -0.04233,-0.042333 -0.0635,-0.127 -0.0635,-0.2539718 0,-0.021167 0,-0.0635 0,-0.1058333 0.02117,-0.042333 0.02117,-0.1058333 0.04233,-0.1693333 0,-0.0635 0.02117,-0.127 0.04233,-0.1905 0.02117,-0.0635 0.04233,-0.127 0.04233,-0.1905 0.02117,-0.0635 0.02117,-0.127 0.04233,-0.1693334 0,-0.042333 0.02117,-0.084667 0.02117,-0.1058333 0,-0.084667 -0.04233,-0.127 -0.105833,-0.127 -0.02117,0 -0.04233,0 -0.04233,0.021167 -0.02117,0 -0.04233,0.021167 -0.0635,0.042333 -0.02117,0 -0.04233,0.021167 -0.08467,0.042333 l -0.0635,0.084667 -0.127,-0.1058333 c 0.0635,-0.042333 0.127,-0.084667 0.169333,-0.127 0.04233,-0.042333 0.08467,-0.0635 0.127,-0.1058334 0.02117,-0.021167 0.0635,-0.021167 0.105833,-0.042333 0.04233,0 0.08467,-0.021167 0.127,-0.021167 0.0635,0 0.127,0.042333 0.169334,0.084667 0.04233,0.042333 0.0635,0.1058333 0.0635,0.1905 0,0.042333 0,0.1058333 0,0.1693333 0,0.042333 -0.02117,0.1058334 -0.04233,0.1693334 -0.04233,0.1481666 -0.0635,0.2751666 -0.105833,0.381 -0.02117,0.1058333 -0.02117,0.1905 -0.02117,0.2328333 0,0.0635 0,0.1058333 0.04233,0.1481667 0.02117,0.021138 0.0635,0.042305 0.105833,0.042305 0.04233,0 0.105833,-0.021167 0.148167,-0.063472 0.0635,-0.042333 0.105833,-0.084667 0.169333,-0.127 0.04233,-0.0635 0.105833,-0.127 0.127,-0.1905 0.04233,-0.084667 0.08467,-0.1481667 0.105833,-0.2116667 l 0.169334,-0.7831666 0.296333,0 -0.232833,1.016 c -0.02117,0.042333 -0.02117,0.084667 -0.02117,0.127 -0.02117,0.042333 -0.02117,0.084667 -0.02117,0.1058333 0,0.042333 0.02117,0.084667 0.02117,0.084667 0.02117,0.021138 0.04233,0.021138 0.0635,0.021138 0.02117,0 0.04233,0 0.0635,0 0.02117,0 0.04233,-0.021138 0.0635,-0.042305 0.02117,0 0.04233,-0.021167 0.0635,-0.042333 0.02117,-0.021167 0.0635,-0.0635 0.08467,-0.1058334 l 0.105833,0.1058334 c -0.04233,0.0635 -0.105833,0.1058051 -0.148167,0.1481384 -0.04233,0.042333 -0.0635,0.0635 -0.105833,0.084667 -0.04233,0.021167 -0.08467,0.042333 -0.127,0.0635 -0.04233,0 -0.08467,0 -0.127,0 -0.0635,0 -0.127,-0.021167 -0.169333,-0.0635 -0.04233,-0.042333 -0.0635,-0.1058333 -0.0635,-0.1904718 0,-0.021167 0,-0.042333 0.02117,-0.084667 0,-0.021167 0,-0.042333 0,-0.0635 z m 0,0"
     style="fill:#a6a6a6;fill-opacity:1;fill-rule:nonzero;stroke:none" />
  <path
     id="path137"
     d="m 32.427051,4.9106384 c 0,-0.042333 0.02117,-0.1058333 0.02117,-0.127 0,-0.042333 0,-0.084667 0,-0.1058333 0,-0.084667 -0.02117,-0.127 -0.08467,-0.127 -0.02117,0 -0.04233,0 -0.0635,0.021167 -0.02117,0 -0.02117,0.021167 -0.0635,0.042333 -0.02117,0 -0.04233,0.021167 -0.0635,0.042333 -0.02117,0.021167 -0.04233,0.0635 -0.08467,0.084667 L 31.982551,4.6354718 c 0.0635,-0.042333 0.105833,-0.084667 0.148167,-0.127 0.04233,-0.042333 0.08467,-0.0635 0.127,-0.084667 0.04233,-0.021167 0.0635,-0.042333 0.105833,-0.0635 0.04233,0 0.08467,-0.021167 0.127,-0.021167 0.0635,0 0.127,0.042333 0.169333,0.084667 0.04233,0.042333 0.0635,0.1058333 0.0635,0.1905 0,0.021167 0,0.042333 0,0.0635 0,0.042333 -0.02117,0.0635 -0.02117,0.084667 l 0.02117,0 c 0.105834,-0.1481667 0.1905,-0.254 0.296334,-0.3175 0.105833,-0.0635 0.211666,-0.1058334 0.3175,-0.1058334 0.127,0 0.211666,0.042333 0.275166,0.1481667 0.0635,0.084667 0.105834,0.2116667 0.105834,0.381 0,0.1481667 -0.02117,0.2963333 -0.08467,0.4233333 -0.04233,0.127 -0.105833,0.254 -0.169333,0.3386667 -0.08467,0.1058051 -0.169334,0.1904718 -0.275167,0.2328051 -0.105833,0.0635 -0.232833,0.084667 -0.338667,0.084667 -0.08467,0 -0.148166,0 -0.211666,-0.021167 -0.0635,-0.021167 -0.105834,-0.021167 -0.148167,-0.0635 0,0.042333 -0.02117,0.084667 -0.02117,0.127 -0.02117,0.0635 -0.02117,0.084667 -0.04233,0.127 0,0.042333 -0.02117,0.084667 -0.02117,0.127 0,0.021167 0,0.0635 0,0.084667 0,0 0,0.021167 0,0.042333 0,0 0.02117,0.021167 0.04233,0.021167 0,0.021167 0.02117,0.021167 0.04233,0.021167 0.04233,0 0.0635,0.021167 0.105833,0.021167 l 0,0.084667 -0.550333,0 z m 0.1905,0.3386667 c 0,0.084667 -0.02117,0.1481667 -0.02117,0.1905 0,0.042333 -0.02117,0.084667 -0.02117,0.127 0,0.084667 0.02117,0.1481667 0.0635,0.1904718 0.04233,0.042333 0.105833,0.042333 0.1905,0.042333 0.0635,0 0.105833,0 0.169333,-0.021167 0.04233,-0.042333 0.08467,-0.084639 0.127,-0.1269718 0.0635,-0.042333 0.08467,-0.084667 0.127,-0.1481667 0.02117,-0.0635 0.0635,-0.127 0.08467,-0.1905 0.02117,-0.084667 0.04233,-0.1481667 0.04233,-0.2116667 0.02117,-0.084667 0.02117,-0.1481666 0.02117,-0.2116666 0,-0.127 -0.02117,-0.1905 -0.04233,-0.254 -0.04233,-0.042333 -0.08467,-0.084667 -0.148166,-0.084667 -0.0635,0 -0.127,0.021167 -0.1905,0.0635 -0.04233,0.042333 -0.105834,0.084667 -0.148167,0.1481667 -0.04233,0.042333 -0.0635,0.084667 -0.08467,0.1058333 -0.02117,0.042333 -0.04233,0.0635 -0.0635,0.1058333 -0.02117,0.042333 -0.04233,0.084667 -0.0635,0.127 0,0.042333 -0.02117,0.1058334 -0.04233,0.1481667 z m 0,0"
     style="fill:#a6a6a6;fill-opacity:1;fill-rule:nonzero;stroke:none" />
  <path
     id="path139"
     d="m 37.782218,26.479302 c 0.127,-0.1905 0.275166,-0.3175 0.381,-0.402166 0.127,-0.08467 0.254,-0.127 0.381,-0.127 0.105833,0 0.1905,0 0.254,0.02117 l -0.08467,0.465667 -0.211667,0 c -0.02117,-0.0635 -0.02117,-0.105833 -0.04233,-0.127 -0.02117,-0.04233 -0.04233,-0.0635 -0.0635,-0.08467 -0.02117,0 -0.04233,-0.02117 -0.0635,-0.02117 -0.0635,0 -0.105833,0.02117 -0.169333,0.08467 -0.0635,0.02117 -0.127,0.105834 -0.1905,0.1905 -0.08467,0.08467 -0.127,0.169334 -0.1905,0.254 -0.04233,0.08467 -0.0635,0.1905 -0.105834,0.3175 l -0.1905,0.910167 -0.359833,0 0.296333,-1.312333 c 0.02117,-0.08467 0.04233,-0.148167 0.04233,-0.1905 0,-0.04233 0,-0.08467 0,-0.127 0,-0.04233 0,-0.08467 -0.02117,-0.105834 -0.02117,-0.04233 -0.04233,-0.04233 -0.08467,-0.04233 -0.04233,0 -0.08467,0.02117 -0.127,0.04233 -0.04233,0.04233 -0.105833,0.105834 -0.1905,0.1905 l -0.127,-0.105833 c 0.127,-0.127 0.232834,-0.232833 0.3175,-0.275167 0.08467,-0.0635 0.1905,-0.08467 0.275167,-0.08467 0.08467,0 0.169333,0.02117 0.211667,0.08467 0.0635,0.04233 0.08467,0.127 0.08467,0.211667 0,0.08467 -0.02117,0.148167 -0.04233,0.211667 z m 0,0"
     style="fill:#a6a6a6;fill-opacity:1;fill-rule:nonzero;stroke:none" />
  <path
     id="path141"
     d="m 38.925218,26.796802 0.6985,0 c 0.105833,0 0.211666,0 0.296333,0.02117 0.08467,0.02117 0.148167,0.04233 0.211667,0.08467 0.0635,0.04233 0.105833,0.08467 0.127,0.148166 0.04233,0.0635 0.0635,0.127 0.0635,0.211667 0,0.127 -0.02117,0.211667 -0.0635,0.3175 -0.04233,0.08467 -0.105834,0.148167 -0.1905,0.211667 -0.0635,0.0635 -0.169334,0.105833 -0.275167,0.127 -0.105833,0.02117 -0.232833,0.04233 -0.359833,0.04233 l -0.148167,0 c -0.04233,0 -0.08467,0 -0.127,0 0,0.04233 -0.02117,0.105833 -0.02117,0.169333 -0.02117,0.0635 -0.04233,0.126916 -0.04233,0.190416 -0.02117,0.04233 -0.02117,0.105833 -0.04233,0.148166 0,0.0635 0,0.08467 0,0.105834 0,0.02117 0,0.04233 0,0.0635 0,0.02117 0.02117,0.02117 0.02117,0.04233 0.02117,0 0.04233,0 0.0635,0.02117 0.02117,0 0.04233,0 0.08467,0 l -0.02117,0.105833 -0.656166,0 0,-0.105833 c 0.04233,0 0.0635,0 0.08467,-0.02117 0.02117,0 0.04233,-0.02117 0.0635,-0.04233 0,-0.02117 0.02117,-0.04233 0.04233,-0.105834 0,-0.04233 0.02117,-0.105833 0.04233,-0.169333 l 0.254,-1.142915 c 0,-0.04233 0.02117,-0.08467 0.02117,-0.105834 0,-0.04233 0,-0.0635 0,-0.08467 0,-0.0635 0,-0.08467 -0.02117,-0.105834 -0.02117,-0.02117 -0.0635,-0.04233 -0.127,-0.04233 z m 0.465666,0.994834 c 0.105834,0 0.211667,0 0.296334,-0.02117 0.08467,-0.02117 0.148166,-0.0635 0.1905,-0.105833 0.04233,-0.0635 0.08467,-0.105834 0.105833,-0.169334 0.02117,-0.0635 0.02117,-0.148166 0.02117,-0.211666 0,-0.127 -0.04233,-0.1905 -0.105834,-0.254 -0.0635,-0.04233 -0.148166,-0.08467 -0.296333,-0.08467 -0.04233,0 -0.08467,0.02117 -0.105833,0.02117 l -0.105834,0 -0.1905,0.8255 z m 0,0"
     style="fill:#a6a6a6;fill-opacity:1;fill-rule:nonzero;stroke:none" />
  <path
     id="path143"
     d="m 40.978384,28.447718 c 0.02117,0.0635 0.02117,0.127 0.02117,0.211666 0,0.0635 0,0.127 -0.02117,0.1905 -0.04233,0.0635 -0.08467,0.127 -0.127,0.1905 -0.0635,0.04233 -0.127,0.105834 -0.232833,0.1905 l -0.0635,-0.105833 c 0.04233,-0.04233 0.08467,-0.08467 0.105833,-0.127 0.02117,-0.04233 0.04233,-0.08467 0.04233,-0.127 0.02117,-0.0635 0.02117,-0.127 0.02117,-0.1905 0,-0.08467 0,-0.169333 0,-0.232833 z m 0,0"
     style="fill:#a6a6a6;fill-opacity:1;fill-rule:nonzero;stroke:none" />
  <path
     id="path145"
     d="m 42.587051,28.468884 c -0.127,0.127 -0.232833,0.211667 -0.359833,0.275167 -0.127,0.0635 -0.254,0.08467 -0.381,0.08467 -0.08467,0 -0.169334,-0.02117 -0.211667,-0.04233 -0.0635,-0.02117 -0.127,-0.04233 -0.169333,-0.105833 -0.04233,-0.04233 -0.0635,-0.08467 -0.08467,-0.169333 -0.02117,-0.0635 -0.04233,-0.148167 -0.04233,-0.232834 0,-0.04233 0,-0.105748 0.02117,-0.169248 0,-0.0635 0.02117,-0.127 0.04233,-0.1905 0.02117,-0.0635 0.04233,-0.127 0.08467,-0.1905 0.02117,-0.0635 0.0635,-0.105834 0.105834,-0.169334 0.08467,-0.105833 0.1905,-0.1905 0.3175,-0.254 0.127,-0.0635 0.254,-0.08467 0.402166,-0.08467 0.127,0 0.232834,0.02117 0.296334,0.08467 0.0635,0.0635 0.105833,0.148167 0.105833,0.254 0,0.359834 -0.359833,0.550334 -1.058333,0.550334 0,0.02117 -0.02117,0.0635 -0.02117,0.08467 0,0.04225 0,0.08458 0,0.105749 0,0.105833 0.02117,0.1905 0.0635,0.254 0.04233,0.04233 0.127,0.0635 0.211667,0.0635 0.0635,0 0.105833,0 0.148166,0 0.04233,-0.02117 0.105834,-0.02117 0.148167,-0.0635 0.04233,-0.02117 0.08467,-0.04233 0.127,-0.08467 0.04233,-0.02117 0.08467,-0.0635 0.127,-0.127 z m -0.910167,-0.507915 c 0.127,0 0.254,0 0.338667,-0.02117 0.105833,-0.02117 0.169333,-0.0635 0.232833,-0.08467 0.0635,-0.04233 0.105834,-0.08467 0.127,-0.127 0.04233,-0.04233 0.0635,-0.105834 0.0635,-0.148167 0,-0.0635 -0.02117,-0.127 -0.0635,-0.148167 -0.02117,-0.04233 -0.0635,-0.0635 -0.127,-0.0635 -0.0635,0 -0.105833,0.02117 -0.169333,0.04233 -0.0635,0.04233 -0.105833,0.0635 -0.169333,0.127 -0.04233,0.04233 -0.08467,0.105833 -0.127,0.1905 -0.04233,0.0635 -0.0635,0.148166 -0.105834,0.232833 z m 0,0"
     style="fill:#a6a6a6;fill-opacity:1;fill-rule:nonzero;stroke:none" />
  <path
     id="path147"
     d="m 43.645384,28.045636 c 0,-0.08467 -0.02117,-0.148167 -0.04233,-0.211667 -0.02117,-0.0635 -0.02117,-0.127 -0.04233,-0.169333 0,-0.04233 -0.02117,-0.08467 -0.04233,-0.105834 0,-0.04233 -0.02117,-0.0635 -0.02117,-0.08467 -0.02117,0 -0.02117,-0.02117 -0.04233,-0.02117 -0.02117,-0.02117 -0.02117,-0.02117 -0.04233,-0.02117 -0.02117,0 -0.04233,0 -0.0635,0.02117 0,0 -0.02117,0 -0.04233,0.02117 0,0.02117 -0.02117,0.04233 -0.04233,0.0635 -0.02117,0.02117 -0.04233,0.0635 -0.0635,0.08467 l -0.127,-0.0635 c 0.04233,-0.0635 0.08467,-0.127 0.105834,-0.169333 0.04233,-0.04233 0.08467,-0.0635 0.105833,-0.105833 0.04233,-0.02117 0.0635,-0.04233 0.105833,-0.04233 0.04233,-0.02117 0.08467,-0.02117 0.127,-0.02117 0.0635,0 0.105834,0.02117 0.148167,0.04233 0.02117,0.02117 0.0635,0.04233 0.08467,0.105833 0.02117,0.04233 0.04233,0.105834 0.0635,0.169334 0,0.0635 0.02117,0.148166 0.04233,0.232833 l 0.02117,0 c 0.0635,-0.0635 0.127,-0.148167 0.169333,-0.211667 0.04233,-0.04233 0.08467,-0.105833 0.105833,-0.148166 0.04233,-0.04233 0.08467,-0.0635 0.105834,-0.105834 0.02117,-0.02117 0.0635,-0.04233 0.08467,-0.04233 0.02117,-0.02117 0.04233,-0.02117 0.08467,-0.04233 0.02117,0 0.0635,0 0.08467,0 0.0635,0 0.105833,0 0.148166,0.02117 l -0.08467,0.3175 -0.127,0 c 0,-0.0635 -0.02117,-0.08467 -0.04233,-0.08467 -0.02117,0 -0.02117,0.02117 -0.04233,0.02117 0,0 -0.02117,0 -0.04233,0.02117 -0.02117,0.02117 -0.04233,0.02117 -0.0635,0.04233 -0.02117,0.02117 -0.0635,0.0635 -0.08467,0.105834 -0.04233,0.02117 -0.08467,0.0635 -0.127,0.127 -0.04233,0.04233 -0.08467,0.105833 -0.148167,0.169333 0.04233,0.148167 0.0635,0.275082 0.08467,0.338582 0.02117,0.105833 0.04233,0.169333 0.0635,0.211667 0.02117,0.04233 0.02117,0.0635 0.04233,0.08467 0.02117,0.02117 0.04233,0.02117 0.0635,0.02117 0.02117,0 0.04233,0 0.0635,0 0,0 0.02117,-0.02117 0.04233,-0.02117 0,-0.02117 0.02117,-0.04233 0.04233,-0.0635 0.02117,-0.04233 0.04233,-0.0635 0.08467,-0.105833 l 0.105833,0.0635 c -0.04233,0.0635 -0.08467,0.127 -0.127,0.169333 -0.02117,0.04233 -0.0635,0.08467 -0.08467,0.105834 -0.04233,0.02117 -0.08467,0.04233 -0.105833,0.04233 -0.04233,0.02117 -0.08467,0.02117 -0.127,0.02117 -0.04233,0 -0.0635,0 -0.105833,-0.02117 -0.02117,0 -0.0635,-0.02117 -0.08467,-0.0635 0,-0.02117 -0.02117,-0.04233 -0.04233,-0.0635 0,-0.02117 -0.02117,-0.0635 -0.04233,-0.08467 0,-0.04233 -0.02117,-0.08467 -0.02117,-0.105833 -0.02117,-0.04233 -0.02117,-0.08467 -0.02117,-0.105833 0,-0.04233 -0.02117,-0.0635 -0.02117,-0.08467 0,-0.02117 0,-0.04233 0,-0.0635 l -0.02117,0 c -0.0635,0.08467 -0.127,0.148167 -0.169334,0.211667 -0.04233,0.0635 -0.08467,0.105833 -0.127,0.169333 -0.02117,0.04233 -0.0635,0.0635 -0.08467,0.105833 -0.04233,0.02117 -0.0635,0.04233 -0.08467,0.0635 -0.04233,0.02117 -0.0635,0.02117 -0.105833,0.02117 -0.02117,0.02117 -0.0635,0.02117 -0.08467,0.02117 -0.0635,0 -0.105833,0 -0.148167,-0.02117 l 0.0635,-0.3175 0.148167,0 c 0,0.0635 0.02117,0.08467 0.04233,0.08467 0.02117,0 0.02117,-0.02117 0.04233,-0.02117 0,0 0.02117,0 0.02117,-0.02117 0.02117,0 0.04233,-0.02117 0.0635,-0.04233 0.02117,-0.02117 0.04233,-0.04233 0.08467,-0.08467 0.04233,-0.04233 0.08467,-0.08467 0.127,-0.148166 0.04233,-0.04225 0.105833,-0.126916 0.169333,-0.211582 z m 0,0"
     style="fill:#a6a6a6;fill-opacity:1;fill-rule:nonzero;stroke:none" />
</svg>
