<?xml version="1.0" encoding="UTF-8" standalone="no"?>
<svg
   xmlns:dc="http://purl.org/dc/elements/1.1/"
   xmlns:cc="http://creativecommons.org/ns#"
   xmlns:rdf="http://www.w3.org/1999/02/22-rdf-syntax-ns#"
   xmlns:svg="http://www.w3.org/2000/svg"
   xmlns="http://www.w3.org/2000/svg"
   viewBox="0 0 221 280"
   id="svg4554"
   height="280mm"
   width="221mm"
   version="1.0">
  <metadata
     id="metadata4724">
    <rdf:RDF>
      <cc:Work
         rdf:about="">
        <dc:format>image/svg+xml</dc:format>
        <dc:type
           rdf:resource="http://purl.org/dc/dcmitype/StillImage" />
        <dc:title></dc:title>
      </cc:Work>
    </rdf:RDF>
  </metadata>
  <defs
     id="defs4556">
    <clipPath
       id="clipEmfPath1"
       clipPathUnits="userSpaceOnUse">
      <path
         id="path4559"
         d="m 0,0 779.544,0 0,992.093 -779.544,0 z m 0,0" />
    </clipPath>
    <clipPath
       id="clipEmfPath2"
       clipPathUnits="userSpaceOnUse">
      <path
         id="path4562"
         d="m 579.971,408.747 199.573,0 0,172.499 -199.573,0 z m 0,0" />
    </clipPath>
    <clipPath
       id="clipEmfPath3"
       clipPathUnits="userSpaceOnUse">
      <path
         id="path4565"
         d="m 288.748,393.747 490.796,0 0,598.346 -490.796,0 z m 0,0" />
    </clipPath>
    <pattern
       y="0"
       x="0"
       height="6"
       width="6"
       patternUnits="userSpaceOnUse"
       id="EMFhbasepattern" />
  </defs>
  <path
     id="path4568"
     d=""
     clip-path="url(#clipEmfPath1)"
     style="fill:none;stroke:none" />
  <path
     transform="scale(0.28222222,0.28222222)"
     id="path4570"
     d="m 0,992.093 779.544,0 L 779.544,0 0,0 Z m 0,0"
     clip-path="url(#clipEmfPath1)"
     style="fill:#ffffff;fill-opacity:1;fill-rule:nonzero;stroke:none" />
  <path
     id="path4572"
     d="m 105.28215,131.23249 c 15.494,-14.77434 31.00889,-29.5275 40.70322,-31.07267 8.29733,-1.291167 12.36133,7.09083 15.8115,16.86983"
     style="fill:none;stroke:#000000;stroke-width:2.11665082px;stroke-linecap:butt;stroke-linejoin:miter;stroke-miterlimit:8;stroke-dasharray:none;stroke-opacity:1" />
  <path
     id="path4574"
     d="m 164.46387,115.01882 -0.97367,7.02733 -5.03766,-4.99533 z m 0,0"
     style="fill:#000000;fill-opacity:1;fill-rule:evenodd;stroke:none" />
  <path
     id="path4576"
     d="m 117.91865,109.79065 3.13267,15.113"
     style="fill:none;stroke:#ffffff;stroke-width:4.93179703px;stroke-linecap:butt;stroke-linejoin:miter;stroke-miterlimit:8;stroke-dasharray:none;stroke-opacity:1" />
  <path
     id="path4578"
     d="m 50.651551,143.31837 c 0,0.6985 -0.127,1.31233 -0.381,1.86267 -0.254,0.52916 -0.613833,0.97366 -1.058333,1.35466 -0.4445,0.381 -0.973667,0.65617 -1.5875,0.84667 -0.613834,0.1905 -1.27,0.29633 -1.9685,0.29633 -0.486834,0 -0.9525,-0.0423 -1.375834,-0.127 -0.423333,-0.0847 -0.783166,-0.1905 -1.121833,-0.3175 -0.338667,-0.10583 -0.613833,-0.23283 -0.8255,-0.35983 -0.232833,-0.14817 -0.381,-0.254 -0.465667,-0.33867 -0.08467,-0.0847 -0.169333,-0.21166 -0.211666,-0.33866 -0.04233,-0.14817 -0.0635,-0.33867 -0.0635,-0.5715 0,-0.16934 0.02117,-0.29634 0.02117,-0.42334 0.02117,-0.10583 0.04233,-0.1905 0.08467,-0.254 0.02117,-0.0635 0.0635,-0.127 0.105833,-0.14816 0.04233,-0.0212 0.105834,-0.0423 0.169334,-0.0423 0.105833,0 0.254,0.0635 0.4445,0.1905 0.1905,0.127 0.4445,0.27517 0.740833,0.42334 0.3175,0.14816 0.677333,0.29633 1.100667,0.42333 0.423333,0.14817 0.931333,0.21167 1.481666,0.21167 0.423334,0 0.8255,-0.0635 1.164167,-0.16934 0.359833,-0.127 0.656167,-0.27516 0.910167,-0.48683 0.254,-0.21167 0.4445,-0.46567 0.592666,-0.762 0.127,-0.3175 0.1905,-0.65617 0.1905,-1.03717 0,-0.42333 -0.08467,-0.78316 -0.275166,-1.0795 -0.1905,-0.29633 -0.4445,-0.55033 -0.762,-0.78316 -0.296334,-0.21167 -0.656167,-0.42334 -1.058334,-0.61384 -0.402166,-0.16933 -0.804333,-0.35983 -1.227666,-0.55033 -0.402167,-0.21167 -0.804334,-0.42333 -1.2065,-0.65617 -0.402167,-0.23283 -0.740834,-0.508 -1.058334,-0.8255 -0.296333,-0.3175 -0.550333,-0.6985 -0.762,-1.12183 -0.1905,-0.42333 -0.275166,-0.93133 -0.275166,-1.54517 0,-0.61383 0.105833,-1.16416 0.338666,-1.62983 0.211667,-0.48683 0.529167,-0.889 0.931334,-1.2065 0.381,-0.33838 0.867833,-0.59238 1.418166,-0.76172 0.550334,-0.16933 1.143,-0.254 1.778,-0.254 0.3175,0 0.656167,0.0423 0.973667,0.0847 0.338667,0.0635 0.635,0.14817 0.931333,0.23283 0.296334,0.0847 0.550334,0.1905 0.783167,0.3175 0.232833,0.10584 0.381,0.21139 0.4445,0.27489 0.08467,0.0847 0.127,0.14816 0.148167,0.1905 0.02117,0.0212 0.04233,0.0847 0.0635,0.14816 0,0.0635 0.02117,0.14817 0.02117,0.23284 0.02117,0.0847 0.02117,0.21166 0.02117,0.35983 0,0.127 0,0.254 -0.02117,0.35983 -0.02117,0.10584 -0.02117,0.1905 -0.04233,0.27517 -0.02117,0.0635 -0.0635,0.10583 -0.105833,0.14817 -0.04233,0.0423 -0.08467,0.0635 -0.148167,0.0635 -0.08467,0 -0.211667,-0.0635 -0.381,-0.16934 -0.1905,-0.10583 -0.402167,-0.23283 -0.656167,-0.35983 -0.254,-0.127 -0.5715,-0.254 -0.910166,-0.35983 -0.359834,-0.10584 -0.762,-0.16934 -1.185334,-0.16934 -0.423333,0 -0.783166,0.0635 -1.0795,0.16934 -0.296333,0.10583 -0.550333,0.254 -0.740833,0.4445 -0.211667,0.16933 -0.359833,0.381 -0.4445,0.635 -0.105833,0.254 -0.148167,0.508 -0.148167,0.80433 0,0.40217 0.08467,0.762 0.275167,1.05833 0.1905,0.29634 0.4445,0.55034 0.762,0.78317 0.3175,0.21167 0.677333,0.42333 1.0795,0.61383 0.402167,0.1905 0.804333,0.381 1.2065,0.5715 0.423333,0.1905 0.846667,0.40217 1.248833,0.635 0.402167,0.23284 0.762,0.508 1.058334,0.8255 0.3175,0.3175 0.5715,0.67734 0.762,1.12184 0.1905,0.42333 0.296333,0.93133 0.296333,1.50283 z m 0,0"
     style="fill:#000000;fill-opacity:1;fill-rule:nonzero;stroke:none" />
  <path
     id="path4580"
     d="m 107.67399,15.896054 c 0,0.719666 -0.127,1.396972 -0.35984,1.989638 -0.254,0.592667 -0.59266,1.0795 -1.05833,1.502834 -0.4445,0.423333 -0.99483,0.740833 -1.651,0.973666 -0.65617,0.211667 -1.43933,0.338667 -2.3495,0.338667 l -1.67217,0 0,5.29161 c 0,0.0635 -0.0212,0.127 -0.0423,0.169333 -0.0423,0.04233 -0.0847,0.08467 -0.16933,0.105834 -0.0635,0.02117 -0.16934,0.04233 -0.29634,0.0635 -0.126997,0.02117 -0.275163,0.02117 -0.465663,0.02117 -0.1905,0 -0.338667,0 -0.465667,-0.02117 -0.127,-0.02117 -0.232833,-0.04233 -0.296333,-0.0635 -0.08467,-0.02117 -0.148167,-0.0635 -0.169334,-0.105834 -0.02117,-0.04233 -0.04233,-0.105833 -0.04233,-0.169333 l 0,-13.56772 c 0,-0.3175 0.08467,-0.529167 0.232833,-0.656167 0.148167,-0.127 0.338667,-0.1905 0.529167,-0.1905 l 3.15383,0 c 0.3175,0 0.635,0.02117 0.91017,0.04233 0.29633,0.02117 0.635,0.08467 1.03717,0.169334 0.40216,0.08467 0.80433,0.254 1.22766,0.486833 0.40217,0.232833 0.762,0.529167 1.03717,0.889 0.29633,0.338638 0.508,0.740805 0.67733,1.206472 0.14817,0.465666 0.23284,0.9525 0.23284,1.524 z m -2.05317,0.148166 c 0,-0.592666 -0.127,-1.100666 -0.33867,-1.502833 -0.23283,-0.402167 -0.508,-0.6985 -0.84666,-0.889 -0.3175,-0.1905 -0.65617,-0.317472 -1.016,-0.380972 -0.33867,-0.04233 -0.6985,-0.08467 -1.03717,-0.08467 l -1.79917,0 0,5.905443 1.75684,0 c 0.59266,0 1.0795,-0.08467 1.48166,-0.232833 0.381,-0.148167 0.71967,-0.359833 0.99484,-0.613833 0.254,-0.275167 0.4445,-0.613834 0.59266,-0.973667 0.127,-0.380972 0.21167,-0.783139 0.21167,-1.227639 z m 0,0"
     style="fill:#000000;fill-opacity:1;fill-rule:nonzero;stroke:none" />
  <path
     id="path4582"
     d="m 119.40032,79.543769 c 0.0635,0.169333 0.10583,0.296333 0.10583,0.402167 0,0.105833 -0.0212,0.1905 -0.0847,0.232833 -0.0635,0.0635 -0.16934,0.08467 -0.29634,0.105833 -0.14816,0 -0.33866,0.02117 -0.5715,0.02117 -0.23283,0 -0.42333,0 -0.5715,-0.02117 -0.127,0 -0.254,-0.02117 -0.3175,-0.0635 -0.0635,-0.02117 -0.127,-0.04233 -0.14816,-0.08467 -0.0423,-0.0635 -0.0635,-0.127 -0.10584,-0.1905 l -1.27,-3.577167 -6.096,0 -1.2065,3.534833 c -0.0212,0.0635 -0.0635,0.127 -0.10583,0.1905 -0.0423,0.04233 -0.0847,0.08467 -0.16933,0.105834 -0.0635,0.04233 -0.16934,0.0635 -0.29634,0.08467 -0.127,0 -0.29633,0.02117 -0.508,0.02117 -0.23283,0 -0.40216,-0.02117 -0.55033,-0.02117 -0.14817,-0.02117 -0.23283,-0.0635 -0.29633,-0.105833 -0.0635,-0.0635 -0.0847,-0.148167 -0.0847,-0.254 0,-0.08467 0.0423,-0.232833 0.10583,-0.402167 l 4.93184,-13.6525 c 0.0212,-0.08467 0.0635,-0.148166 0.127,-0.211666 0.0423,-0.04233 0.10583,-0.08467 0.21166,-0.127 0.0847,-0.02117 0.21167,-0.04233 0.35984,-0.0635 0.14816,0 0.33866,0 0.5715,0 0.23283,0 0.4445,0 0.59266,0 0.16934,0.02117 0.29634,0.04233 0.381,0.0635 0.10584,0.04233 0.1905,0.08467 0.23284,0.127 0.0635,0.0635 0.10583,0.127 0.127,0.211666 z m -6.32883,-12.065 -0.0212,0 -2.51883,7.323667 5.10116,0 z m 0,0"
     style="fill:#000000;fill-opacity:1;fill-rule:nonzero;stroke:none" />
  <path
     id="path4584"
     d="m 98.50882,146.62037 c 0,0.14817 -0.02117,0.254 -0.02117,0.35983 -0.02117,0.10584 -0.04233,0.1905 -0.08467,0.254 -0.04233,0.0635 -0.08467,0.127 -0.127,0.14817 -0.0635,0.0423 -0.105834,0.0423 -0.169334,0.0423 l -7.048217,0 c -0.1905,0 -0.359834,-0.0423 -0.508,-0.16933 -0.148167,-0.127 -0.232834,-0.3175 -0.232834,-0.61383 l 0,-13.12334 c 0,-0.29605 0.08467,-0.50771 0.232834,-0.61355 0.148166,-0.127 0.3175,-0.1905 0.508,-0.1905 l 6.963551,0 c 0.0635,0 0.127,0.0212 0.169333,0.0635 0.04233,0.0212 0.08467,0.0635 0.127,0.14817 0.02117,0.0635 0.04233,0.14817 0.0635,0.254 0.02117,0.0847 0.02117,0.21138 0.02117,0.38072 0,0.127 0,0.254 -0.02117,0.35983 -0.02117,0.0847 -0.04233,0.16933 -0.0635,0.23283 -0.04233,0.0635 -0.08467,0.127 -0.127,0.14817 -0.04233,0.0212 -0.105833,0.0423 -0.169333,0.0423 l -5.735885,0 0,4.61434 4.931551,0 c 0.04233,0 0.105834,0.0212 0.148167,0.0635 0.0635,0.0212 0.105833,0.0847 0.127,0.127 0.04233,0.0635 0.0635,0.14816 0.08467,0.254 0.02117,0.10583 0.02117,0.23283 0.02117,0.381 0,0.127 0,0.254 -0.02117,0.35983 -0.02117,0.0847 -0.04233,0.16933 -0.08467,0.23283 -0.02117,0.0635 -0.0635,0.10584 -0.127,0.127 -0.04233,0.0212 -0.105833,0.0423 -0.148167,0.0423 l -4.931551,0 0,5.24933 5.820551,0 c 0.0635,0 0.105834,0.0212 0.169334,0.0635 0.04233,0.0212 0.08467,0.0635 0.127,0.14817 0.04233,0.0635 0.0635,0.14816 0.08467,0.23283 0,0.10583 0.02117,0.23283 0.02117,0.381 z m 0,0"
     style="fill:#000000;fill-opacity:1;fill-rule:nonzero;stroke:none" />
  <path
     id="path4586"
     d="m 128.65015,194.05459 c 0,1.29117 -0.16933,2.39183 -0.508,3.34433 -0.3175,0.9525 -0.78316,1.73567 -1.41816,2.37067 -0.635,0.61383 -1.397,1.10067 -2.30717,1.397 -0.91017,0.3175 -1.98967,0.46567 -3.2385,0.46567 l -3.1115,0 c -0.1905,0 -0.35983,-0.0635 -0.508,-0.16934 -0.14817,-0.127 -0.23283,-0.3175 -0.23283,-0.61383 l 0,-13.12333 c 0,-0.29634 0.0847,-0.508 0.23283,-0.635 0.14817,-0.10584 0.3175,-0.16934 0.508,-0.16934 l 3.32317,0 c 1.27,0 2.3495,0.16934 3.21733,0.508 0.889,0.3175 1.62983,0.80434 2.2225,1.41817 0.59267,0.61383 1.03717,1.35467 1.35467,2.24367 0.29633,0.86783 0.46566,1.86266 0.46566,2.96333 z m -2.07433,0.0847 c 0,-0.78317 -0.0847,-1.524 -0.29633,-2.2225 -0.1905,-0.67734 -0.508,-1.27 -0.93134,-1.778 -0.40216,-0.48684 -0.9525,-0.889 -1.5875,-1.16417 -0.635,-0.27517 -1.48166,-0.42333 -2.49766,-0.42333 l -1.9685,0 0,11.45116 2.01083,0 c 0.93133,0 1.7145,-0.127 2.37067,-0.35983 0.635,-0.23283 1.18533,-0.59267 1.60866,-1.0795 0.42334,-0.48683 0.762,-1.10067 0.97367,-1.82033 0.21167,-0.74084 0.3175,-1.60867 0.3175,-2.6035 z m 0,0"
     style="fill:#000000;fill-opacity:1;fill-rule:nonzero;stroke:none" />
  <path
     id="path4588"
     d="m 106.38282,262.99386 c 0,0.1905 -0.0212,0.33866 -0.0212,0.4445 -0.0212,0.127 -0.0635,0.21166 -0.0847,0.27516 -0.0423,0.0635 -0.0847,0.10584 -0.127,0.127 -0.0423,0.0212 -0.10584,0.0423 -0.14817,0.0423 -0.14817,0 -0.381,-0.0635 -0.71967,-0.1905 -0.33866,-0.127 -0.74083,-0.3175 -1.16416,-0.55034 -0.4445,-0.23283 -0.91017,-0.52916 -1.41817,-0.86783 -0.508,-0.33867 -0.99483,-0.74083 -1.4605,-1.18533 -0.35983,0.21166 -0.84667,0.42333 -1.397,0.59266 -0.5715,0.14817 -1.227667,0.23284 -1.989667,0.23284 -1.100666,0 -2.053166,-0.14817 -2.878384,-0.48684 -0.804333,-0.3175 -1.4605,-0.80433 -1.989667,-1.41816 -0.529166,-0.635 -0.931333,-1.41817 -1.185333,-2.3495 -0.254,-0.9525 -0.381,-2.01084 -0.381,-3.2385 0,-1.16417 0.148167,-2.2225 0.423333,-3.15384 0.275167,-0.9525 0.6985,-1.75683 1.27,-2.413 0.550334,-0.65616 1.248834,-1.18533 2.0955,-1.54488 0.846385,-0.35983 1.820051,-0.52917 2.941885,-0.52917 1.058333,0 1.989663,0.16934 2.772833,0.48684 0.80433,0.3175 1.48167,0.80405 2.01083,1.43905 0.55034,0.61383 0.9525,1.397 1.22767,2.30716 0.27517,0.91017 0.42333,1.9685 0.42333,3.15384 0,0.61383 -0.0423,1.2065 -0.10583,1.75683 -0.0847,0.5715 -0.1905,1.10067 -0.35983,1.5875 -0.14817,0.508 -0.33867,0.97367 -0.5715,1.397 -0.23284,0.42333 -0.508,0.80433 -0.84667,1.143 0.5715,0.46567 1.05833,0.8255 1.4605,1.0795 0.42333,0.23283 0.762,0.4445 1.03717,0.5715 0.27516,0.127 0.48683,0.21167 0.635,0.27517 0.14816,0.0423 0.27516,0.10583 0.33866,0.1905 0.0847,0.0635 0.127,0.16933 0.16934,0.29633 0.0212,0.14817 0.0423,0.3175 0.0423,0.52917 z m -3.8735,-8.6995 c 0,-0.8255 -0.0635,-1.5875 -0.21167,-2.30717 -0.14816,-0.71967 -0.40216,-1.3335 -0.74083,-1.86267 -0.33867,-0.52916 -0.80433,-0.93133 -1.37583,-1.22766 -0.571503,-0.29634 -1.29117,-0.4445 -2.137837,-0.4445 -0.846666,0 -1.566333,0.14816 -2.137833,0.46566 -0.5715,0.3175 -1.058051,0.74084 -1.417884,1.27 -0.359834,0.55034 -0.613834,1.16417 -0.762,1.86267 -0.148167,0.6985 -0.232834,1.4605 -0.232834,2.24367 0,0.86783 0.0635,1.651 0.211667,2.37066 0.148167,0.74084 0.381,1.35467 0.740833,1.88384 0.338667,0.52916 0.783167,0.9525 1.354385,1.24883 0.5715,0.27517 1.291166,0.42333 2.159,0.42333 0.846666,0 1.566333,-0.14816 2.159003,-0.46566 0.59266,-0.3175 1.05833,-0.74084 1.41816,-1.29117 0.35984,-0.55033 0.61384,-1.16417 0.762,-1.88383 0.14817,-0.71967 0.21167,-1.48167 0.21167,-2.286 z m 0,0"
     style="fill:#000000;fill-opacity:1;fill-rule:nonzero;stroke:none" />
  <path
     id="path4590"
     d="m 163.91354,143.2337 c 0,0.46567 -0.0635,0.889 -0.1905,1.29117 -0.10584,0.381 -0.27517,0.74083 -0.48684,1.03717 -0.21166,0.3175 -0.46566,0.59266 -0.762,0.8255 -0.29633,0.23283 -0.635,0.42333 -1.016,0.59266 -0.381,0.16934 -0.78316,0.27517 -1.2065,0.35984 -0.42333,0.0847 -0.93133,0.10583 -1.48166,0.10583 l -3.83117,0 c -0.16933,0 -0.33867,-0.0423 -0.48683,-0.16933 -0.16934,-0.10584 -0.23284,-0.3175 -0.23284,-0.61384 l 0,-13.12333 c 0,-0.29605 0.0635,-0.50772 0.23284,-0.61355 0.14816,-0.127 0.3175,-0.1905 0.48683,-0.1905 l 3.34433,0 c 0.86784,0 1.5875,0.0847 2.159,0.254 0.55034,0.16933 1.03717,0.42305 1.397,0.74055 0.381,0.3175 0.65617,0.6985 0.84667,1.16417 0.1905,0.46566 0.29633,0.99483 0.29633,1.56633 0,0.33867 -0.0423,0.67733 -0.127,0.99483 -0.0847,0.3175 -0.21166,0.61384 -0.381,0.889 -0.14816,0.27517 -0.35983,0.508 -0.61383,0.71967 -0.23283,0.21167 -0.52917,0.381 -0.84667,0.52917 0.40217,0.0635 0.78317,0.21166 1.12184,0.40216 0.35983,0.21167 0.65616,0.46567 0.93133,0.78317 0.254,0.29633 0.46567,0.67733 0.61383,1.0795 0.14817,0.42333 0.23284,0.889 0.23284,1.37583 z m -2.94217,-6.58283 c 0,-0.35983 -0.0635,-0.67733 -0.14817,-0.9525 -0.10583,-0.29633 -0.27516,-0.55033 -0.48683,-0.74083 -0.1905,-0.1905 -0.48683,-0.35984 -0.8255,-0.46567 -0.33867,-0.10583 -0.78317,-0.14817 -1.3335,-0.14817 l -2.032,0 0,4.7625 2.2225,0 c 0.508,0 0.91017,-0.0847 1.22767,-0.21166 0.3175,-0.127 0.5715,-0.29634 0.762,-0.52917 0.21166,-0.23283 0.35983,-0.48683 0.46566,-0.78317 0.0847,-0.29633 0.14817,-0.61383 0.14817,-0.93133 z m 0.889,6.68867 c 0,-0.42334 -0.0847,-0.80434 -0.23283,-1.143 -0.127,-0.33867 -0.33867,-0.61384 -0.61384,-0.84667 -0.254,-0.23283 -0.59266,-0.40217 -0.99483,-0.508 -0.42333,-0.127 -0.93133,-0.1905 -1.54517,-0.1905 l -2.32833,0 0,5.18583 2.83633,0 c 0.4445,0 0.84667,-0.0423 1.16417,-0.14816 0.33867,-0.10584 0.635,-0.27517 0.889,-0.48684 0.254,-0.1905 0.4445,-0.46566 0.59267,-0.762 0.14816,-0.3175 0.23283,-0.67733 0.23283,-1.10066 z m 0,0"
     style="fill:#000000;fill-opacity:1;fill-rule:nonzero;stroke:none" />
  <path
     id="path4592"
     d="m 182.87859,147.14954 c 0,0.0635 -0.0212,0.127 -0.0635,0.16933 -0.0212,0.0423 -0.0847,0.0847 -0.14817,0.10583 -0.0847,0.0212 -0.16933,0.0423 -0.29633,0.0635 -0.10583,0.0212 -0.27517,0.0423 -0.46567,0.0423 -0.16933,0 -0.3175,-0.0212 -0.4445,-0.0423 -0.127,-0.0212 -0.21166,-0.0423 -0.29633,-0.0635 -0.0635,-0.0212 -0.127,-0.0635 -0.14817,-0.10583 -0.0212,-0.0423 -0.0423,-0.10583 -0.0423,-0.16933 l 0,-12.80584 -0.0212,0 -5.24933,12.86934 c -0.0212,0.0635 -0.0423,0.10583 -0.10583,0.14816 -0.0212,0.0212 -0.0847,0.0635 -0.16934,0.0847 -0.0847,0.0212 -0.16933,0.0423 -0.27516,0.0635 -0.127,0 -0.254,0.0212 -0.40217,0.0212 -0.14817,0 -0.29633,-0.0212 -0.40217,-0.0423 -0.127,0 -0.21166,-0.0212 -0.29633,-0.0423 -0.0635,-0.0423 -0.127,-0.0635 -0.16933,-0.10583 -0.0423,-0.0423 -0.0635,-0.0847 -0.0847,-0.127 l -5.01622,-12.86934 0,0 0,12.80584 c 0,0.0635 -0.0212,0.127 -0.0635,0.16933 -0.0212,0.0423 -0.0635,0.0847 -0.14817,0.10583 -0.0847,0.0212 -0.16933,0.0423 -0.29633,0.0635 -0.127,0.0212 -0.27517,0.0423 -0.46567,0.0423 -0.1905,0 -0.33866,-0.0212 -0.46566,-0.0423 -0.10584,-0.0212 -0.21167,-0.0423 -0.27517,-0.0635 -0.0847,-0.0212 -0.127,-0.0635 -0.14817,-0.10583 -0.0212,-0.0423 -0.0423,-0.10583 -0.0423,-0.16933 l 0,-13.5255 c 0,-0.31722 0.0847,-0.55005 0.254,-0.67705 0.16933,-0.127 0.33867,-0.21167 0.55033,-0.21167 l 1.18534,0 c 0.23283,0 0.4445,0.0423 0.635,0.0847 0.1905,0.0423 0.33866,0.10583 0.48683,0.21166 0.127,0.0847 0.23283,0.21167 0.3175,0.38072 0.10583,0.14817 0.1905,0.3175 0.254,0.52917 l 4.25422,10.64683 0.0635,0 4.42383,-10.62567 c 0.0847,-0.21166 0.1905,-0.40216 0.27517,-0.5715 0.10583,-0.16905 0.21167,-0.29605 0.33867,-0.38071 0.10583,-0.0847 0.23283,-0.16934 0.381,-0.21167 0.14816,-0.0423 0.3175,-0.0635 0.508,-0.0635 l 1.22766,0 c 0.127,0 0.23284,0.0212 0.33867,0.0635 0.10583,0.0423 0.1905,0.0847 0.254,0.16933 0.0635,0.0635 0.127,0.14817 0.16933,0.254 0.0635,0.10584 0.0847,0.25372 0.0847,0.40189 z m 0,0"
     style="fill:#000000;fill-opacity:1;fill-rule:nonzero;stroke:none" />
  <path
     id="path4594"
     d="M 8.8899436,139.9952 32.977384,139.82587"
     style="fill:none;stroke:#000000;stroke-width:2.11665082px;stroke-linecap:butt;stroke-linejoin:miter;stroke-miterlimit:8;stroke-dasharray:none;stroke-opacity:1" />
  <path
     id="path4596"
     d="m 31.961384,143.00087 6.307667,-3.21733 -6.371167,-3.13267 z m 0,0"
     style="fill:#000000;fill-opacity:1;fill-rule:evenodd;stroke:none" />
  <path
     id="path4598"
     d="m 54.186384,139.78354 26.309885,0"
     style="fill:none;stroke:#000000;stroke-width:2.11665082px;stroke-linecap:butt;stroke-linejoin:miter;stroke-miterlimit:8;stroke-dasharray:none;stroke-opacity:1" />
  <path
     id="path4600"
     d="m 79.437936,136.60854 6.35,3.175 -6.35,3.175 z m 0,0"
     style="fill:#000000;fill-opacity:1;fill-rule:evenodd;stroke:none" />
  <path
     id="path4602"
     d="M 54.186384,128.60782 99.672987,84.983602"
     style="fill:none;stroke:#000000;stroke-width:2.11665082px;stroke-linecap:butt;stroke-linejoin:miter;stroke-miterlimit:8;stroke-dasharray:none;stroke-opacity:1" />
  <path
     id="path4604"
     d="m 101.11232,88.010436 2.39183,-6.688667 -6.794497,2.0955 z m 0,0"
     style="fill:#000000;fill-opacity:1;fill-rule:evenodd;stroke:none" />
  <path
     id="path4606"
     d="m 50.969051,151.84854 c 10.625385,8.61483 21.229885,17.22966 28.468885,31.51688 6.582833,13.05984 10.3505,30.86072 13.885333,49.08522"
     style="fill:none;stroke:#000000;stroke-width:2.11665082px;stroke-linecap:butt;stroke-linejoin:miter;stroke-miterlimit:8;stroke-dasharray:none;stroke-opacity:1" />
  <path
     id="path4608"
     d="m 96.243987,230.82081 -1.925885,6.83683 -4.318,-5.63033 z m 0,0"
     style="fill:#000000;fill-opacity:1;fill-rule:evenodd;stroke:none" />
  <path
     id="path4610"
     d="m 88.179769,150.5362 c -7.1755,10.4775 -14.351,20.93356 -10.922,28.02439 3.005667,6.20183 14.181667,9.80017 26.373381,13.081"
     style="fill:none;stroke:#000000;stroke-width:2.11665082px;stroke-linecap:butt;stroke-linejoin:miter;stroke-miterlimit:8;stroke-dasharray:none;stroke-opacity:1" />
  <path
     id="path4612"
     d="m 103.41949,188.29726 5.334,4.699 -6.94267,1.43933 z m 0,0"
     style="fill:#000000;fill-opacity:1;fill-rule:evenodd;stroke:none" />
  <path
     id="path4614"
     d="m 45.254051,125.98315 c 6.096,-27.79183 12.191718,-55.604548 19.705885,-72.241266 6.265333,-13.843 13.504333,-19.960166 20.912666,-24.765"
     style="fill:none;stroke:#000000;stroke-width:2.11665082px;stroke-linecap:butt;stroke-linejoin:miter;stroke-miterlimit:8;stroke-dasharray:none;stroke-opacity:1" />
  <path
     id="path4616"
     d="m 83.311436,26.839136 7.069666,-0.677334 -3.704166,6.053582 z m 0,0"
     style="fill:#000000;fill-opacity:1;fill-rule:evenodd;stroke:none" />
  <path
     id="path4618"
     d="M 108.81699,59.202602 104.13915,36.131218"
     style="fill:none;stroke:#000000;stroke-width:2.11665082px;stroke-linecap:butt;stroke-linejoin:miter;stroke-miterlimit:8;stroke-dasharray:none;stroke-opacity:1" />
  <path
     id="path4620"
     d="m 101.23932,37.803384 1.8415,-6.858 4.3815,5.588 z m 0,0"
     style="fill:#000000;fill-opacity:1;fill-rule:evenodd;stroke:none" />
  <path
     id="path4622"
     d="m 110.57382,54.546218 -1.75683,4.656384 -3.429,-3.619218"
     style="fill:none;stroke:#000000;stroke-width:2.11665082px;stroke-linecap:round;stroke-linejoin:miter;stroke-miterlimit:8;stroke-dasharray:none;stroke-opacity:1" />
  <path
     id="path4624"
     d="m 106.04415,240.62097 11.66284,-28.29983"
     style="fill:none;stroke:#000000;stroke-width:2.11665082px;stroke-linecap:butt;stroke-linejoin:miter;stroke-miterlimit:8;stroke-dasharray:none;stroke-opacity:1" />
  <path
     id="path4626"
     d="m 120.24699,214.52247 -0.508,-7.09055 -5.35517,4.65639 z m 0,0"
     style="fill:#000000;fill-opacity:1;fill-rule:evenodd;stroke:none" />
  <path
     id="path4628"
     d="m 105.21865,235.71031 0.8255,4.91066 4.064,-2.89983"
     style="fill:none;stroke:#000000;stroke-width:2.11665082px;stroke-linecap:round;stroke-linejoin:miter;stroke-miterlimit:8;stroke-dasharray:none;stroke-opacity:1" />
  <path
     id="path4630"
     d="M 80.729102,254.71769 50.545718,254.18852"
     style="fill:none;stroke:#000000;stroke-width:2.11665082px;stroke-linecap:butt;stroke-linejoin:miter;stroke-miterlimit:8;stroke-dasharray:none;stroke-opacity:1" />
  <path
     id="path4632"
     d="m 51.540551,257.36352 -6.2865,-3.28083 6.4135,-3.048 z m 0,0"
     style="fill:#000000;fill-opacity:1;fill-rule:evenodd;stroke:none" />
  <path
     id="path4634"
     d="m 124.96715,84.835436 c 9.05905,8.614833 18.09722,17.229384 25.39972,14.456551 7.3025,-2.772834 23.70639,-18.753385 18.39383,-31.093551 -4.99533,-11.535552 -24.99783,-25.653718 -45.97371,-39.941218"
     style="fill:none;stroke:#000000;stroke-width:2.11665082px;stroke-linecap:butt;stroke-linejoin:miter;stroke-miterlimit:8;stroke-dasharray:none;stroke-opacity:1" />
  <path
     id="path4636"
     d="m 121.87682,31.474551 -3.47133,-6.201749 7.02733,0.9525 z m 0,0"
     style="fill:#000000;fill-opacity:1;fill-rule:evenodd;stroke:none" />
  <path
     id="path4638"
     d="m 106.59449,145.24454 c 13.61016,12.954 27.22005,25.908 36.78738,27.47405 8.04333,1.3335 13.22917,-5.41839 17.94933,-13.41939"
     style="fill:none;stroke:#000000;stroke-width:2.11665082px;stroke-linecap:butt;stroke-linejoin:miter;stroke-miterlimit:8;stroke-dasharray:none;stroke-opacity:1" />
  <path
     id="path4640"
     d="m 158.05037,158.62187 5.9055,-3.937 -0.40217,7.09083 z m 0,0"
     style="fill:#000000;fill-opacity:1;fill-rule:evenodd;stroke:none" />
  <path
     id="path4642"
     d="m 130.66099,183.80992 c 5.77821,-6.30766 11.53555,-12.61505 16.63671,-10.49866 5.12234,2.11666 12.48834,11.811 14.01234,23.19866 1.524,11.38767 2.32833,35.41155 -4.80484,45.10589 -6.35,8.61455 -19.21933,10.94288 -32.82921,12.55155"
     style="fill:none;stroke:#000000;stroke-width:2.11665082px;stroke-linecap:butt;stroke-linejoin:miter;stroke-miterlimit:8;stroke-dasharray:none;stroke-opacity:1" />
  <path
     id="path4644"
     d="m 125.07299,257.19419 -6.6675,-2.43417 5.94783,-3.8735 z m 0,0"
     style="fill:#000000;fill-opacity:1;fill-rule:evenodd;stroke:none" />
  <path
     id="path4646"
     d=""
     clip-path="url(#clipEmfPath2)"
     style="fill:none;stroke:none" />
  <path
     transform="scale(0.28222222,0.28222222)"
     id="path4648"
     d="m 665.095,495.296 85.349,-0.6"
     clip-path="url(#clipEmfPath2)"
     style="fill:none;stroke:#000000;stroke-width:7.49994421px;stroke-linecap:butt;stroke-linejoin:miter;stroke-miterlimit:8;stroke-dasharray:none;stroke-opacity:1" />
  <path
     id="path4650"
     d="m 210.75481,142.7892 6.32883,-3.21733 -6.37117,-3.13267 z m 0,0"
     style="fill:#000000;fill-opacity:1;fill-rule:evenodd;stroke:none" />
  <path
     id="path4652"
     d="m 115.61149,16.04422 57.69977,0"
     style="fill:none;stroke:#000000;stroke-width:2.11665082px;stroke-linecap:butt;stroke-linejoin:miter;stroke-miterlimit:8;stroke-dasharray:none;stroke-opacity:1" />
  <path
     id="path4654"
     d="m 172.25292,19.219192 6.35,-3.174972 -6.35,-3.174971 z m 0,0"
     style="fill:#000000;fill-opacity:1;fill-rule:evenodd;stroke:none" />
  <path
     id="path4656"
     d="m 87.798769,72.833936 c 0.508,-0.677334 0.973667,-1.164167 1.439333,-1.481667 0.465667,-0.3175 0.931334,-0.465667 1.397,-0.465667 0.359834,0 0.677334,0.02117 0.931334,0.0635 l -0.381,1.7145 -0.783167,0 c -0.02117,-0.211666 -0.0635,-0.381 -0.127,-0.508 -0.04233,-0.105833 -0.105833,-0.1905 -0.1905,-0.232833 -0.08467,-0.04233 -0.169333,-0.0635 -0.296333,-0.0635 -0.169334,0 -0.381,0.08467 -0.592667,0.232833 -0.211667,0.148167 -0.4445,0.402167 -0.719667,0.740834 -0.275166,0.338666 -0.486833,0.656166 -0.635,0.9525 -0.169333,0.3175 -0.296333,0.6985 -0.402166,1.185333 l -0.719667,3.280833 -1.312333,0 1.100666,-4.804833 c 0.0635,-0.3175 0.105834,-0.550333 0.127,-0.6985 0.02117,-0.169333 0.04233,-0.3175 0.04233,-0.423333 0,-0.211667 -0.04233,-0.359834 -0.105834,-0.4445 -0.0635,-0.08467 -0.169333,-0.148167 -0.3175,-0.148167 -0.148166,0 -0.3175,0.0635 -0.486833,0.211667 -0.169333,0.127 -0.423333,0.359833 -0.719667,0.6985 l -0.423333,-0.423334 c 0.465667,-0.486833 0.846667,-0.846666 1.164167,-1.037166 0.3175,-0.211667 0.656166,-0.3175 1.037166,-0.3175 0.3175,0 0.5715,0.105833 0.762,0.3175 0.169334,0.211666 0.275167,0.486833 0.275167,0.8255 0,0.254 -0.0635,0.508 -0.148167,0.783166 z m 0,0"
     style="fill:#4270c2;fill-opacity:1;fill-rule:nonzero;stroke:none" />
  <path
     id="path4658"
     d="m 93.831269,79.967102 c 0,0.105834 0,0.211667 0,0.296334 0.02117,0.08467 0.02117,0.148166 0.04233,0.211666 0.02117,0.0635 0.04233,0.105834 0.0635,0.148167 0.02117,0.04233 0.0635,0.0635 0.105834,0.105833 0.04233,0.04233 0.08467,0.0635 0.169333,0.105834 0.0635,0.02117 0.169333,0.04233 0.275167,0.0635 0.127,0 0.254,0.02117 0.423333,0.04233 0.148167,0 0.359551,0 0.571218,0 l 0,0.486833 -4.381218,0 0,-0.486833 c 0.211667,0 0.381,0 0.550333,-0.02117 0.148167,0 0.275167,-0.02117 0.381,-0.04233 0.105834,-0.02117 0.1905,-0.04233 0.254,-0.04233 0.0635,-0.02117 0.127,-0.0635 0.169334,-0.08467 0.0635,-0.04233 0.105833,-0.0635 0.127,-0.105833 0.04233,-0.04233 0.08467,-0.08467 0.105833,-0.148167 0.02117,-0.0635 0.04233,-0.127 0.04233,-0.211667 0.02117,-0.08467 0.02117,-0.1905 0.02117,-0.3175 l 0,-3.979333 c 0,-0.148167 -0.02117,-0.232833 -0.08467,-0.296333 -0.0635,-0.0635 -0.127,-0.08467 -0.232833,-0.08467 -0.127,0 -0.296333,0.04233 -0.508,0.169333 -0.232833,0.127 -0.508,0.296334 -0.867833,0.529167 -0.0635,-0.08467 -0.105834,-0.169333 -0.148167,-0.254 -0.04233,-0.08467 -0.08467,-0.169333 -0.127,-0.254 0.465667,-0.254 0.910167,-0.508 1.354667,-0.762 0.465666,-0.254 0.910166,-0.486833 1.375833,-0.740833 l 0.338667,0 c 0,0.211666 -0.02117,0.381 -0.02117,0.550333 0,0.148167 0,0.3175 0,0.465667 l 0,0.4445 z m 0,0"
     style="fill:#4270c2;fill-opacity:1;fill-rule:nonzero;stroke:none" />
  <path
     id="path4660"
     d="m 84.136936,118.97699 c 0.486833,-0.65617 0.9525,-1.16417 1.418166,-1.4605 0.465667,-0.3175 0.931334,-0.48684 1.397,-0.48684 0.359834,0 0.677334,0.0212 0.931334,0.0847 l -0.381,1.7145 -0.783167,0 c -0.02117,-0.21167 -0.0635,-0.381 -0.127,-0.508 -0.04233,-0.10583 -0.105833,-0.1905 -0.1905,-0.23283 -0.08467,-0.0423 -0.169333,-0.0635 -0.275167,-0.0635 -0.1905,0 -0.402166,0.0635 -0.613833,0.23283 -0.211667,0.14817 -0.4445,0.40217 -0.719667,0.71967 -0.275166,0.33866 -0.486833,0.65616 -0.635,0.97366 -0.169333,0.3175 -0.296333,0.6985 -0.402166,1.16417 l -0.719667,3.302 -1.312333,0 1.100666,-4.826 c 0.0635,-0.29633 0.105834,-0.52917 0.127,-0.6985 0.02117,-0.16933 0.04233,-0.29633 0.04233,-0.42333 0,-0.1905 -0.04233,-0.33867 -0.105834,-0.42334 -0.0635,-0.10583 -0.169333,-0.14816 -0.3175,-0.14816 -0.148166,0 -0.3175,0.0635 -0.486833,0.1905 -0.169333,0.127 -0.423333,0.35983 -0.719667,0.6985 l -0.423333,-0.42334 c 0.465667,-0.48683 0.846667,-0.8255 1.164167,-1.03716 0.3175,-0.1905 0.656166,-0.29634 1.037166,-0.29634 0.3175,0 0.5715,0.10584 0.762,0.3175 0.169334,0.21167 0.275167,0.48684 0.275167,0.8255 0,0.254 -0.0635,0.508 -0.148167,0.78317 z m 0,0"
     style="fill:#4270c2;fill-opacity:1;fill-rule:nonzero;stroke:none" />
  <path
     id="path4662"
     d="m 90.465769,126.68165 c 0.169333,0 0.296333,0 0.402167,-0.0212 0.105833,-0.0212 0.1905,-0.0423 0.254,-0.0847 0.0635,-0.0423 0.127,-0.10583 0.169333,-0.1905 0.0635,-0.10583 0.105833,-0.23283 0.169333,-0.381 l 0.529167,0 c -0.02117,0.254 -0.04233,0.52917 -0.0635,0.78317 -0.02117,0.27516 -0.02117,0.52916 -0.04233,0.80433 l -4.699,0 0,-0.29633 c 0.08467,-0.1905 0.1905,-0.40217 0.3175,-0.59267 0.105833,-0.1905 0.232833,-0.381 0.381,-0.59267 0.148166,-0.1905 0.3175,-0.40216 0.508,-0.61383 0.1905,-0.21167 0.402166,-0.42333 0.635,-0.65617 0.338666,-0.35983 0.635,-0.65616 0.846666,-0.889 0.211667,-0.254 0.381,-0.46566 0.508,-0.65616 0.127,-0.1905 0.211667,-0.381 0.254,-0.52917 0.0635,-0.16933 0.08467,-0.33867 0.08467,-0.52917 0,-0.1905 -0.04233,-0.35983 -0.08467,-0.508 -0.0635,-0.16933 -0.127,-0.29633 -0.232833,-0.40216 -0.105833,-0.127 -0.232833,-0.21167 -0.381,-0.27517 -0.148167,-0.0635 -0.3175,-0.0847 -0.529167,-0.0847 -0.338666,0 -0.635,0.0847 -0.867833,0.27517 -0.232833,0.1905 -0.402167,0.4445 -0.529167,0.80433 l -0.740833,0 0,-1.0795 c 0.486833,-0.1905 0.910167,-0.33866 1.312333,-0.42333 0.402167,-0.0847 0.762,-0.127 1.0795,-0.127 0.381,0 0.6985,0.0423 0.973667,0.127 0.275167,0.0847 0.486833,0.21167 0.656167,0.33867 0.169333,0.14816 0.296333,0.33866 0.381,0.55033 0.0635,0.1905 0.105833,0.42333 0.105833,0.65617 0,0.14816 0,0.27516 -0.02117,0.40216 -0.02117,0.127 -0.0635,0.254 -0.105833,0.381 -0.0635,0.10584 -0.127,0.23284 -0.211667,0.35984 -0.08467,0.10583 -0.169333,0.23283 -0.296333,0.381 -0.08467,0.127 -0.211667,0.254 -0.359833,0.40216 -0.148167,0.16934 -0.296334,0.33867 -0.486834,0.508 l -0.550333,0.55034 c -0.1905,0.1905 -0.381,0.381 -0.550333,0.5715 -0.1905,0.1905 -0.359834,0.381 -0.508,0.55033 -0.148167,0.16933 -0.275167,0.33867 -0.359834,0.48683 z m 0,0"
     style="fill:#4270c2;fill-opacity:1;fill-rule:nonzero;stroke:none" />
  <path
     id="path4664"
     d="m 46.037218,161.54287 c 0.486833,-0.67733 0.9525,-1.16417 1.418166,-1.48167 0.465667,-0.3175 0.931334,-0.46566 1.397,-0.46566 0.359834,0 0.677334,0.0212 0.931334,0.0847 l -0.381,1.69334 -0.783167,0 c -0.02117,-0.21167 -0.0635,-0.381 -0.127,-0.48684 -0.04233,-0.127 -0.105833,-0.21166 -0.1905,-0.254 -0.08467,-0.0423 -0.169333,-0.0635 -0.275167,-0.0635 -0.1905,0 -0.402166,0.0847 -0.613833,0.23284 -0.211667,0.16933 -0.4445,0.40216 -0.719667,0.74083 -0.275166,0.33867 -0.486833,0.65617 -0.635,0.97367 -0.169333,0.29633 -0.296333,0.6985 -0.402166,1.16416 l -0.719667,3.28084 -1.312333,0 1.100666,-4.80484 c 0.0635,-0.29633 0.105834,-0.52916 0.127,-0.6985 0.02117,-0.16933 0.04233,-0.3175 0.04233,-0.42333 0,-0.1905 -0.04233,-0.33867 -0.105834,-0.4445 -0.0635,-0.0847 -0.169333,-0.127 -0.3175,-0.127 -0.148166,0 -0.3175,0.0635 -0.486833,0.1905 -0.169333,0.127 -0.423333,0.35983 -0.719667,0.6985 l -0.423333,-0.42333 c 0.465667,-0.48684 0.846667,-0.8255 1.164167,-1.03717 0.3175,-0.1905 0.656166,-0.29633 1.037166,-0.29633 0.3175,0 0.5715,0.10583 0.762,0.29633 0.169334,0.21167 0.275167,0.48683 0.275167,0.8255 0,0.254 -0.0635,0.52917 -0.148167,0.78317 z m 0,0"
     style="fill:#4270c2;fill-opacity:1;fill-rule:nonzero;stroke:none" />
  <path
     id="path4666"
     d="m 49.275718,164.61204 0,-1.0795 c 0.4445,-0.1905 0.846666,-0.3175 1.248833,-0.42334 0.381,-0.0847 0.740833,-0.127 1.100667,-0.127 0.296333,0 0.5715,0.0212 0.8255,0.0847 0.254,0.0635 0.486833,0.14817 0.677333,0.27517 0.1905,0.127 0.3175,0.29633 0.4445,0.48683 0.105833,0.1905 0.148167,0.40217 0.148167,0.65617 0,0.23283 -0.02117,0.4445 -0.105834,0.635 -0.0635,0.16933 -0.169333,0.33866 -0.296333,0.48683 -0.148167,0.14817 -0.3175,0.27517 -0.508,0.40217 -0.211667,0.127 -0.4445,0.23283 -0.6985,0.33866 l 0,0.0847 c 0.254,0.0423 0.486833,0.10583 0.6985,0.21167 0.211667,0.0847 0.381,0.21166 0.550333,0.35983 0.169334,0.14817 0.296334,0.3175 0.381,0.52917 0.08467,0.1905 0.148167,0.40216 0.148167,0.635 0,0.29633 -0.0635,0.5715 -0.169333,0.8255 -0.105834,0.254 -0.275167,0.46566 -0.508,0.65616 -0.211667,0.1905 -0.486834,0.33867 -0.8255,0.42334 -0.3175,0.10583 -0.6985,0.16933 -1.121834,0.16933 -0.359833,0 -0.6985,-0.0423 -1.058333,-0.10583 -0.359833,-0.0635 -0.6985,-0.14817 -0.994833,-0.27517 l 0,-1.18533 0.6985,0 c 0.0635,0.1905 0.127,0.33866 0.211666,0.46566 0.08467,0.127 0.1905,0.23284 0.296334,0.3175 0.105833,0.0847 0.232833,0.14817 0.359833,0.1905 0.148167,0.0423 0.3175,0.0423 0.486833,0.0423 0.486834,0 0.846667,-0.10584 1.100667,-0.33867 0.232833,-0.21167 0.359833,-0.5715 0.359833,-1.03717 0,-0.48683 -0.169333,-0.84666 -0.486833,-1.10066 -0.3175,-0.254 -0.804333,-0.381 -1.439333,-0.381 l -0.486834,0 0,-0.52917 c 0.381,-0.0212 0.719667,-0.0847 1.016,-0.16933 0.275167,-0.0847 0.508,-0.21167 0.6985,-0.35984 0.1905,-0.127 0.338667,-0.29633 0.423334,-0.48683 0.08467,-0.21167 0.127,-0.40217 0.127,-0.635 0,-0.33867 -0.105834,-0.61383 -0.3175,-0.8255 -0.211667,-0.21167 -0.508,-0.3175 -0.910167,-0.3175 -0.338667,0 -0.613833,0.10583 -0.846667,0.29633 -0.211666,0.16934 -0.402166,0.4445 -0.508,0.80434 z m 0,0"
     style="fill:#4270c2;fill-opacity:1;fill-rule:nonzero;stroke:none" />
  <path
     id="path4668"
     d="m 128.92532,210.39497 c 0.48683,-0.67733 0.9525,-1.16388 1.41817,-1.48138 0.46566,-0.3175 0.93133,-0.46567 1.397,-0.46567 0.35983,0 0.67733,0.0212 0.93133,0.0847 l -0.381,1.69305 -0.78317,0 c -0.0212,-0.21167 -0.0635,-0.381 -0.127,-0.48683 -0.0423,-0.127 -0.10583,-0.21139 -0.1905,-0.25372 -0.0847,-0.0423 -0.16933,-0.0635 -0.27516,-0.0635 -0.1905,0 -0.40217,0.0847 -0.61384,0.23255 -0.21166,0.16933 -0.4445,0.40217 -0.71966,0.74083 -0.27517,0.33867 -0.48684,0.65617 -0.635,0.97367 -0.16934,0.29633 -0.29634,0.6985 -0.40217,1.16417 l -0.71967,3.28083 -1.31233,0 1.10067,-4.80483 c 0.0635,-0.29634 0.10583,-0.52917 0.127,-0.6985 0.0212,-0.16934 0.0423,-0.3175 0.0423,-0.42334 0,-0.1905 -0.0423,-0.33838 -0.10583,-0.44421 -0.0635,-0.0847 -0.16934,-0.127 -0.3175,-0.127 -0.14817,0 -0.3175,0.0635 -0.48684,0.1905 -0.16933,0.12671 -0.42333,0.35955 -0.71966,0.69821 l -0.42334,-0.42333 c 0.46567,-0.48655 0.84667,-0.82522 1.16417,-1.03688 0.3175,-0.1905 0.65617,-0.29634 1.03717,-0.29634 0.3175,0 0.5715,0.10584 0.762,0.3175 0.16933,0.1905 0.27516,0.46567 0.27516,0.80405 0,0.254 -0.0635,0.52917 -0.14816,0.78317 z m 0,0"
     style="fill:#4270c2;fill-opacity:1;fill-rule:nonzero;stroke:none" />
  <path
     id="path4670"
     d="m 133.47587,218.67114 c 0.127,-0.0423 0.21167,-0.0635 0.29633,-0.0847 0.0635,-0.0212 0.127,-0.0423 0.1905,-0.0847 0.0423,-0.0212 0.0847,-0.0635 0.10584,-0.10584 0.0212,-0.0423 0.0423,-0.10583 0.0635,-0.16933 0,-0.0635 0.0212,-0.14817 0.0212,-0.23283 0,-0.10584 0,-0.23284 0,-0.35984 l 0,-0.74083 -3.11121,0 0,-0.42333 c 0.55033,-0.762 1.0795,-1.524 1.62983,-2.286 0.55033,-0.762 1.10038,-1.524 1.62955,-2.286 l 0.889,0 0,4.42383 0.10583,0 c 0.14817,0 0.27517,-0.0212 0.35984,-0.0212 0.10583,-0.0212 0.16933,-0.0423 0.23283,-0.10583 0.0635,-0.0423 0.10583,-0.10583 0.14817,-0.1905 0.0423,-0.0847 0.0847,-0.1905 0.127,-0.3175 l 0.46566,0 c -0.0212,0.1905 -0.0212,0.40217 -0.0423,0.61383 -0.0212,0.1905 -0.0212,0.381 -0.0423,0.59267 l -1.35467,0 0,0.74083 c 0,0.21167 0,0.35984 0.0212,0.48684 0,0.127 0.0212,0.21166 0.0847,0.27516 0.0423,0.0635 0.10584,0.127 0.1905,0.14817 0.0847,0.0423 0.23284,0.0847 0.381,0.127 l 0,0.3175 -2.39183,0 z m -1.46022,-2.3495 2.13755,0 0,-1.12183 c 0,-0.127 0,-0.27517 0,-0.46567 0,-0.1905 0,-0.35983 0.0212,-0.55033 0,-0.1905 0,-0.381 0.0212,-0.55034 0,-0.16933 0,-0.3175 0.0212,-0.4445 l -0.0635,0 c -0.35983,0.52917 -0.6985,1.03717 -1.05805,1.54517 -0.35983,0.508 -0.71966,1.016 -1.0795,1.524 z m 0,0"
     style="fill:#4270c2;fill-opacity:1;fill-rule:nonzero;stroke:none" />
  <path
     id="path4672"
     d="m 168.16804,197.29309 c 0.48683,-0.67733 0.97366,-1.16417 1.41816,-1.48167 0.46567,-0.3175 0.93134,-0.46566 1.397,-0.46566 0.381,0 0.67706,0.0212 0.93106,0.0847 l -0.35984,1.69334 -0.78288,0 c -0.0423,-0.21167 -0.0635,-0.35984 -0.127,-0.48684 -0.0635,-0.127 -0.127,-0.1905 -0.1905,-0.254 -0.0847,-0.0423 -0.1905,-0.0635 -0.29634,-0.0635 -0.1905,0 -0.381,0.0847 -0.59266,0.254 -0.21167,0.14817 -0.46567,0.381 -0.71967,0.71967 -0.27517,0.33867 -0.48683,0.65617 -0.65617,0.97367 -0.14816,0.29633 -0.27516,0.6985 -0.381,1.16416 l -0.74083,3.28084 -1.31233,0 1.10066,-4.80484 c 0.0847,-0.29633 0.127,-0.52916 0.14817,-0.6985 0.0212,-0.16933 0.0212,-0.3175 0.0212,-0.42333 0,-0.1905 -0.0212,-0.33867 -0.0847,-0.4445 -0.0635,-0.0847 -0.16933,-0.127 -0.3175,-0.127 -0.14817,0 -0.3175,0.0635 -0.508,0.1905 -0.16933,0.127 -0.40217,0.35983 -0.6985,0.6985 l -0.4445,-0.42333 c 0.46567,-0.48684 0.84667,-0.8255 1.16417,-1.03717 0.3175,-0.1905 0.65616,-0.29633 1.03716,-0.29633 0.3175,0 0.5715,0.10583 0.762,0.3175 0.1905,0.1905 0.27517,0.46566 0.27517,0.80433 0,0.254 -0.0423,0.52917 -0.14817,0.78317 z m 0,0"
     style="fill:#4270c2;fill-opacity:1;fill-rule:nonzero;stroke:none" />
  <path
     id="path4674"
     d="m 171.44887,204.40509 0.69822,0 c 0.10583,0.381 0.27517,0.65617 0.508,0.80433 0.21167,0.16934 0.508,0.254 0.86783,0.254 0.48684,0 0.84667,-0.127 1.10067,-0.381 0.254,-0.254 0.35983,-0.65616 0.35983,-1.18533 0,-0.508 -0.127,-0.889 -0.381,-1.143 -0.27516,-0.254 -0.635,-0.381 -1.10066,-0.381 -0.127,0 -0.23284,0 -0.33867,0.0212 -0.10583,0 -0.21167,0 -0.3175,0.0212 -0.0847,0.0212 -0.1905,0.0423 -0.29633,0.0635 -0.0847,0.0212 -0.1905,0.0423 -0.3175,0.0847 l -0.46567,-0.254 0,-3.47133 3.06917,0 c 0.10583,-0.0212 0.16933,-0.0212 0.21166,-0.0212 0.0635,-0.0212 0.10584,-0.0212 0.14817,-0.0635 0.0212,-0.0212 0.0423,-0.0423 0.0847,-0.10583 0.0212,-0.0423 0.0423,-0.10584 0.0847,-0.1905 l 0.508,0 -0.0847,1.3335 -3.2385,0 0,2.18016 c 0.1905,-0.0847 0.40216,-0.127 0.635,-0.16933 0.23283,-0.0423 0.46566,-0.0635 0.6985,-0.0635 0.33866,0 0.65616,0.0423 0.93133,0.14817 0.27517,0.0847 0.508,0.23283 0.6985,0.40216 0.21167,0.16934 0.35983,0.381 0.46567,0.635 0.10583,0.254 0.16933,0.52917 0.16933,0.84667 0,0.35983 -0.0635,0.65617 -0.1905,0.93133 -0.127,0.27517 -0.29633,0.52917 -0.52917,0.71967 -0.23283,0.1905 -0.508,0.33867 -0.8255,0.4445 -0.33866,0.10583 -0.6985,0.14817 -1.10066,0.14817 -0.33867,0 -0.65617,-0.0423 -1.016,-0.10584 -0.33867,-0.0423 -0.67734,-0.14816 -1.03689,-0.27516 z m 0,0"
     style="fill:#4270c2;fill-opacity:1;fill-rule:nonzero;stroke:none" />
  <path
     id="path4676"
     d="m 177.58692,75.035269 c 0.48684,-0.656167 0.97367,-1.164167 1.41817,-1.4605 0.46567,-0.3175 0.93133,-0.486833 1.397,-0.486833 0.381,0 0.67733,0.02117 0.93133,0.08467 l -0.35983,1.7145 -0.78317,0 c -0.0423,-0.232833 -0.0847,-0.381 -0.127,-0.508 -0.0635,-0.105833 -0.127,-0.1905 -0.21166,-0.232833 -0.0635,-0.04233 -0.16934,-0.0635 -0.27517,-0.0635 -0.1905,0 -0.381,0.0635 -0.61383,0.232833 -0.21167,0.148167 -0.4445,0.402167 -0.71967,0.719667 -0.254,0.338667 -0.48683,0.656167 -0.635,0.973667 -0.14817,0.296333 -0.29633,0.6985 -0.40217,1.164166 l -0.71966,3.302 -1.31234,0 1.10067,-4.826 c 0.0635,-0.296333 0.127,-0.529166 0.14817,-0.6985 0.0212,-0.169333 0.0212,-0.296333 0.0212,-0.423333 0,-0.1905 -0.0212,-0.338667 -0.10583,-0.423333 -0.0635,-0.105834 -0.16933,-0.148167 -0.29633,-0.148167 -0.16934,0 -0.33867,0.0635 -0.508,0.1905 -0.16934,0.127 -0.40217,0.359833 -0.71967,0.6985 l -0.42333,-0.423333 c 0.46566,-0.486834 0.84666,-0.8255 1.16416,-1.037167 0.3175,-0.1905 0.65617,-0.296333 1.03717,-0.296333 0.3175,0 0.5715,0.105833 0.762,0.3175 0.16933,0.211666 0.27517,0.486833 0.27517,0.8255 0,0.254 -0.0423,0.508 -0.14817,0.783166 z m 0,0"
     style="fill:#4270c2;fill-opacity:1;fill-rule:nonzero;stroke:none" />
  <path
     id="path4678"
     d="m 184.86826,76.474602 c 0.0423,0.04233 0.0847,0.105834 0.127,0.148167 0.0423,0.04233 0.0847,0.08467 0.127,0.148167 l 0,0.3175 c -0.4445,0 -0.84667,0.04233 -1.2065,0.1905 -0.35984,0.105833 -0.67734,0.296333 -0.9525,0.550333 -0.27517,0.232833 -0.508,0.529167 -0.67734,0.889 -0.1905,0.338667 -0.33866,0.740833 -0.4445,1.185333 l 0.0635,0.02117 c 0.14817,-0.08467 0.29634,-0.1905 0.4445,-0.254 0.14817,-0.08467 0.29634,-0.148167 0.4445,-0.1905 0.16934,-0.0635 0.3175,-0.08467 0.48684,-0.105833 0.14816,-0.04233 0.33866,-0.04233 0.508,-0.04233 0.33866,0 0.61383,0.04233 0.86783,0.148167 0.254,0.08467 0.46567,0.232833 0.635,0.423333 0.16933,0.169334 0.29633,0.402167 0.40217,0.656167 0.0847,0.254 0.127,0.550333 0.127,0.867833 0,0.338667 -0.0635,0.635 -0.16934,0.931334 -0.10583,0.296333 -0.27516,0.529166 -0.508,0.740833 -0.21166,0.211667 -0.48683,0.381 -0.80433,0.486833 -0.33867,0.105834 -0.71967,0.169334 -1.16417,0.169334 -0.8255,0 -1.4605,-0.232834 -1.86266,-0.719667 -0.42334,-0.465667 -0.635,-1.164167 -0.635,-2.074333 0,-0.423334 0.0423,-0.8255 0.127,-1.2065 0.0847,-0.381 0.23283,-0.719667 0.40216,-1.058334 0.1905,-0.3175 0.40217,-0.613833 0.65617,-0.867833 0.254,-0.275167 0.52917,-0.508 0.84667,-0.6985 0.3175,-0.1905 0.65616,-0.338667 1.016,-0.465667 0.381,-0.105833 0.762,-0.169333 1.143,-0.1905 z m -1.4605,3.4925 c -0.254,0 -0.46567,0.04233 -0.67734,0.105834 -0.21166,0.0635 -0.42333,0.148166 -0.59266,0.275166 -0.0847,0.04233 -0.14817,0.08467 -0.1905,0.127 -0.0423,0.04233 -0.0635,0.105834 -0.0847,0.169334 -0.0212,0.0635 -0.0423,0.127 -0.0423,0.232833 -0.0212,0.08467 -0.0212,0.211667 -0.0212,0.359833 0,1.312334 0.48683,1.9685 1.41817,1.9685 0.27516,0 0.48683,-0.04233 0.67733,-0.127 0.1905,-0.0635 0.33867,-0.169333 0.46567,-0.3175 0.10583,-0.148166 0.1905,-0.3175 0.254,-0.529166 0.0423,-0.211667 0.0847,-0.4445 0.0847,-0.719667 0,-0.486833 -0.127,-0.867833 -0.33866,-1.143 -0.21167,-0.254 -0.52917,-0.402167 -0.9525,-0.402167 z m 0,0"
     style="fill:#4270c2;fill-opacity:1;fill-rule:nonzero;stroke:none" />
  <path
     id="path4680"
     d="m 120.26815,56.303051 c 0.48684,-0.677333 0.97367,-1.164167 1.41817,-1.481667 0.46567,-0.3175 0.93133,-0.465666 1.397,-0.465666 0.381,0 0.67733,0.02117 0.93133,0.08467 l -0.35983,1.693334 -0.78317,0 c -0.0423,-0.211667 -0.0847,-0.381 -0.127,-0.486834 -0.0635,-0.127 -0.127,-0.211666 -0.21166,-0.254 -0.0635,-0.04233 -0.16934,-0.0635 -0.27517,-0.0635 -0.1905,0 -0.381,0.08467 -0.61383,0.232834 -0.21167,0.169333 -0.4445,0.402166 -0.71967,0.740833 -0.254,0.338667 -0.48683,0.656167 -0.635,0.973385 -0.14817,0.296333 -0.29633,0.6985 -0.40217,1.164166 l -0.71966,3.280834 -1.31234,0 1.10067,-4.804552 c 0.0635,-0.296333 0.127,-0.529166 0.14817,-0.6985 0.0212,-0.169333 0.0212,-0.3175 0.0212,-0.423333 0,-0.1905 -0.0212,-0.338667 -0.10583,-0.4445 -0.0635,-0.08467 -0.16933,-0.127 -0.29633,-0.127 -0.16934,0 -0.33867,0.0635 -0.508,0.1905 -0.16934,0.127 -0.40217,0.359833 -0.71967,0.6985 l -0.42333,-0.423333 c 0.46566,-0.486834 0.84666,-0.8255 1.16416,-1.037167 0.3175,-0.211667 0.65617,-0.296333 1.03717,-0.296333 0.3175,0 0.5715,0.105833 0.762,0.296333 0.16933,0.211667 0.27517,0.486833 0.27517,0.8255 0,0.254 -0.0423,0.529167 -0.14817,0.783167 z m 0,0"
     style="fill:#4270c2;fill-opacity:1;fill-rule:nonzero;stroke:none" />
  <path
     id="path4682"
     d="m 128.41732,58.101936 -3.2385,6.836833 -0.84667,0 0,-0.254 2.9845,-5.799667 0,-0.08467 -2.3495,0 c -0.16933,0 -0.29633,0.02117 -0.381,0.04233 -0.0847,0.02117 -0.16933,0.0635 -0.23283,0.105833 -0.0423,0.04233 -0.0635,0.0635 -0.0847,0.08467 -0.0212,0.02117 -0.0423,0.0635 -0.0847,0.105833 -0.0212,0.04233 -0.0423,0.105834 -0.0635,0.1905 -0.0212,0.0635 -0.0423,0.169334 -0.0847,0.296334 l -0.55033,0 0.127,-1.799167 4.80483,0 z m 0,0"
     style="fill:#4270c2;fill-opacity:1;fill-rule:nonzero;stroke:none" />
  <path
     id="path4684"
     d="m 173.35359,29.103884 c 0.508,-0.677333 0.97367,-1.164082 1.43933,-1.481582 0.4445,-0.3175 0.91017,-0.486833 1.397,-0.486833 0.35984,0 0.67734,0.04233 0.91017,0.08467 l -0.35983,1.714415 -0.78317,0 c -0.0212,-0.211667 -0.0635,-0.381 -0.127,-0.508 -0.0423,-0.105833 -0.127,-0.1905 -0.1905,-0.232749 -0.0847,-0.04233 -0.16933,-0.0635 -0.29633,-0.0635 -0.16934,0 -0.381,0.08467 -0.59267,0.232749 -0.21167,0.148167 -0.46567,0.402167 -0.71967,0.740833 -0.27516,0.3175 -0.48683,0.656167 -0.635,0.9525 -0.16933,0.3175 -0.29633,0.6985 -0.40216,1.185334 l -0.71967,3.280833 -1.31205,0 1.10038,-4.804833 c 0.0635,-0.3175 0.10584,-0.550334 0.127,-0.719667 0.0212,-0.148167 0.0423,-0.296333 0.0423,-0.402167 0,-0.211666 -0.0423,-0.359833 -0.10584,-0.444415 -0.0635,-0.08467 -0.16933,-0.148167 -0.3175,-0.148167 -0.14816,0 -0.3175,0.0635 -0.48655,0.1905 -0.1905,0.148082 -0.42333,0.380916 -0.71967,0.719582 l -0.4445,-0.4445 c 0.46567,-0.465582 0.86784,-0.825415 1.16417,-1.015915 0.31722,-0.211667 0.67705,-0.3175 1.05805,-0.3175 0.3175,0 0.5715,0.105833 0.74084,0.3175 0.1905,0.211667 0.27516,0.486833 0.27516,0.825415 0,0.254 -0.0423,0.508 -0.127,0.783167 z m 0,0"
     style="fill:#4270c2;fill-opacity:1;fill-rule:nonzero;stroke:none" />
  <path
     id="path4686"
     d="m 177.39642,30.522051 2.49767,0 c 0.40217,0 0.762,0.02117 1.05833,0.08467 0.3175,0.0635 0.5715,0.148166 0.78317,0.296333 0.21167,0.127 0.381,0.296333 0.48683,0.529167 0.127,0.211666 0.16934,0.465666 0.1905,0.783166 0,0.402167 -0.0847,0.783167 -0.23283,1.0795 -0.14817,0.3175 -0.381,0.5715 -0.65617,0.783167 -0.27516,0.211667 -0.61383,0.359833 -0.99483,0.465667 -0.381,0.105833 -0.80433,0.148166 -1.29117,0.148166 -0.1905,0 -0.381,0 -0.55033,0 -0.14817,0 -0.29633,0 -0.40217,-0.02117 -0.0423,0.1905 -0.0847,0.402166 -0.127,0.635 -0.0635,0.211666 -0.10583,0.4445 -0.14816,0.656166 -0.0423,0.1905 -0.0847,0.402167 -0.10584,0.5715 -0.0423,0.169334 -0.0423,0.296334 -0.0423,0.381 0,0.0635 0,0.127 0.0212,0.1905 0.0212,0.04233 0.0423,0.105834 0.10583,0.127 0.0423,0.04233 0.10583,0.0635 0.1905,0.08467 0.0847,0.02117 0.1905,0.04233 0.33867,0.04233 l -0.0847,0.338667 -2.413,0 0.0635,-0.338667 c 0.127,-0.02117 0.21167,-0.04233 0.29633,-0.0635 0.0635,-0.04233 0.127,-0.08467 0.1905,-0.169333 0.0635,-0.08467 0.10584,-0.1905 0.14817,-0.359833 0.0423,-0.148167 0.10583,-0.381 0.16933,-0.656167 l 0.91017,-4.042833 c 0.0423,-0.169334 0.0635,-0.296334 0.0847,-0.423334 0.0212,-0.127 0.0212,-0.232833 0.0212,-0.3175 0,-0.169333 -0.0423,-0.296333 -0.127,-0.359833 -0.0847,-0.0635 -0.23283,-0.105833 -0.46566,-0.105833 z m 1.67217,3.598333 c 0.42333,0 0.78317,-0.04233 1.05833,-0.127 0.29634,-0.08467 0.508,-0.232833 0.6985,-0.402166 0.16934,-0.169334 0.27517,-0.359834 0.35984,-0.592667 0.0635,-0.232833 0.10583,-0.486833 0.10583,-0.740833 0,-0.402167 -0.127,-0.6985 -0.35983,-0.889 -0.23284,-0.169334 -0.59267,-0.275167 -1.0795,-0.275167 -0.14817,0 -0.27517,0 -0.40217,0 -0.10583,0.02117 -0.23283,0.02117 -0.35983,0.02117 l -0.6985,3.005666 z m 0,0"
     style="fill:#4270c2;fill-opacity:1;fill-rule:nonzero;stroke:none" />
  <path
     id="path4688"
     d="m 198.30909,151.12887 c 0.508,-0.65617 0.97367,-1.16417 1.43933,-1.4605 0.4445,-0.3175 0.91017,-0.48683 1.397,-0.48683 0.35984,0 0.67734,0.0423 0.91017,0.0847 l -0.35983,1.7145 -0.78317,0 c -0.0212,-0.21166 -0.0635,-0.381 -0.127,-0.508 -0.0423,-0.10583 -0.127,-0.1905 -0.1905,-0.23283 -0.0847,-0.0423 -0.16933,-0.0635 -0.29633,-0.0635 -0.16934,0 -0.381,0.0635 -0.59267,0.23283 -0.21167,0.14817 -0.46567,0.40217 -0.71967,0.71967 -0.27516,0.33867 -0.48683,0.65617 -0.635,0.97367 -0.16933,0.3175 -0.29633,0.6985 -0.40216,1.16416 l -0.71967,3.302 -1.31233,0 1.0795,-4.826 c 0.0847,-0.29633 0.127,-0.52916 0.14816,-0.6985 0.0212,-0.16933 0.0423,-0.29633 0.0423,-0.42333 0,-0.1905 -0.0423,-0.33867 -0.10584,-0.42333 -0.0635,-0.10584 -0.16933,-0.14817 -0.3175,-0.14817 -0.14816,0 -0.3175,0.0635 -0.48683,0.1905 -0.1905,0.127 -0.42333,0.35983 -0.71967,0.6985 l -0.4445,-0.42333 c 0.46567,-0.48684 0.86784,-0.8255 1.16417,-1.016 0.3175,-0.21167 0.67733,-0.3175 1.05833,-0.3175 0.3175,0 0.5715,0.10583 0.74084,0.3175 0.1905,0.21166 0.27516,0.48683 0.27516,0.8255 0,0.254 -0.0423,0.508 -0.127,0.78316 z m 0,0"
     style="fill:#4270c2;fill-opacity:1;fill-rule:nonzero;stroke:none" />
  <path
     id="path4690"
     d="m 201.08192,159.40504 c 0.127,-0.0212 0.21167,-0.0423 0.27517,-0.0635 0.0847,-0.0212 0.14817,-0.0847 0.21167,-0.16934 0.0423,-0.0635 0.10583,-0.1905 0.14816,-0.35983 0.0423,-0.14817 0.10584,-0.381 0.16934,-0.65617 l 0.91016,-4.04283 c 0.0423,-0.16933 0.0635,-0.3175 0.0847,-0.4445 0.0212,-0.127 0.0212,-0.23283 0.0212,-0.29633 0,-0.16934 -0.0423,-0.29634 -0.127,-0.35984 -0.0847,-0.0635 -0.23284,-0.10583 -0.46567,-0.10583 l 0.0847,-0.35983 2.89983,0 c 0.4445,0 0.80433,0.0423 1.10067,0.10583 0.29633,0.0847 0.55033,0.16933 0.74083,0.3175 0.1905,0.127 0.33867,0.27517 0.42333,0.46567 0.0847,0.1905 0.127,0.40216 0.127,0.635 0,0.91016 -0.5715,1.56633 -1.7145,1.92616 0,0.0212 0,0.0423 0,0.0423 l 0,0.0423 c 0.33867,0.127 0.61384,0.3175 0.78317,0.5715 0.16933,0.23283 0.27517,0.508 0.27517,0.8255 0,0.33867 -0.0847,0.65617 -0.21167,0.93133 -0.127,0.29634 -0.33867,0.52917 -0.59267,0.71967 -0.27516,0.1905 -0.635,0.33867 -1.05833,0.4445 -0.42333,0.10583 -0.9525,0.16933 -1.54517,0.16933 l -2.6035,0 z m 3.28084,-3.683 c 0.40216,0 0.762,-0.0212 1.03716,-0.10584 0.27517,-0.0847 0.508,-0.1905 0.67734,-0.3175 0.16933,-0.14816 0.29633,-0.3175 0.381,-0.508 0.0635,-0.21166 0.10583,-0.42333 0.10583,-0.67733 0,-0.14817 -0.0423,-0.29633 -0.0847,-0.42333 -0.0635,-0.127 -0.14816,-0.23284 -0.27516,-0.3175 -0.10584,-0.0847 -0.27517,-0.14817 -0.46567,-0.16934 -0.1905,-0.0635 -0.42333,-0.0847 -0.67733,-0.0847 -0.1905,0 -0.35984,0.0212 -0.508,0.0212 -0.16934,0 -0.3175,0.0212 -0.46567,0.0212 l -0.5715,2.56117 z m -1.60867,3.429 c 0.0847,0 0.1905,0 0.3175,0 0.14817,0.0212 0.29633,0.0212 0.48683,0.0212 0.40217,0 0.74084,-0.0423 1.03717,-0.10583 0.29633,-0.0635 0.52917,-0.16933 0.71967,-0.3175 0.1905,-0.14817 0.33866,-0.33867 0.42333,-0.5715 0.0847,-0.23283 0.127,-0.508 0.127,-0.84667 0,-0.16933 -0.0212,-0.3175 -0.0635,-0.4445 -0.0635,-0.127 -0.14817,-0.23283 -0.27517,-0.3175 -0.10583,-0.0847 -0.254,-0.14816 -0.4445,-0.1905 -0.1905,-0.0423 -0.42333,-0.0635 -0.6985,-0.0635 l -1.016,0 z m 0,0"
     style="fill:#4270c2;fill-opacity:1;fill-rule:nonzero;stroke:none" />
  <path
     id="path4692"
     d="m 217.86681,152.8857 c -0.127,0.0423 -0.23284,0.0635 -0.29634,0.0847 -0.0847,0.0212 -0.14816,0.0847 -0.1905,0.14817 -0.0423,0.0847 -0.10583,0.1905 -0.14816,0.35983 -0.0423,0.14817 -0.0847,0.381 -0.16934,0.65617 l -0.889,4.064 c -0.0423,0.16933 -0.0635,0.3175 -0.0847,0.4445 -0.0212,0.10583 -0.0212,0.21166 -0.0212,0.29633 0,0.16933 0.0423,0.27517 0.127,0.33867 0.0847,0.0635 0.23283,0.10583 0.4445,0.127 l -0.0635,0.33866 -2.3495,0 0.0635,-0.33866 c 0.10583,-0.0212 0.21167,-0.0423 0.27517,-0.0847 0.0635,-0.0212 0.10583,-0.0635 0.14816,-0.10583 0.0423,-0.0423 0.0847,-0.127 0.127,-0.254 0.0423,-0.127 0.10584,-0.27517 0.14817,-0.4445 0.0635,-0.1905 0.10583,-0.381 0.16933,-0.61384 0.0423,-0.23283 0.10584,-0.46566 0.14817,-0.6985 0.0635,-0.254 0.10583,-0.48683 0.16933,-0.74083 0.0423,-0.254 0.0847,-0.48683 0.14817,-0.71967 0.0212,-0.127 0.0635,-0.29633 0.10583,-0.46566 0.0423,-0.1905 0.0847,-0.381 0.127,-0.55034 0.0423,-0.1905 0.0847,-0.35983 0.127,-0.508 0.0423,-0.14816 0.0847,-0.27516 0.127,-0.35983 l -0.0847,0 -3.25967,5.05883 -0.635,0 -0.78317,-5.22816 -0.10583,0 c -0.0212,0.23283 -0.0847,0.52916 -0.14817,0.889 -0.0635,0.35983 -0.14816,0.762 -0.23283,1.24883 -0.0423,0.16933 -0.0847,0.35983 -0.127,0.55033 -0.0423,0.1905 -0.10583,0.381 -0.14817,0.59267 -0.0423,0.1905 -0.0847,0.40217 -0.14816,0.59267 -0.0423,0.1905 -0.0847,0.381 -0.10584,0.5715 -0.0423,0.16933 -0.0635,0.33866 -0.0847,0.46566 -0.0212,0.14817 -0.0423,0.254 -0.0423,0.33867 0,0.16933 0.0635,0.27517 0.14817,0.33867 0.0847,0.0635 0.23283,0.10583 0.4445,0.127 l -0.0635,0.33866 -2.05288,0 0.0635,-0.33866 c 0.10583,-0.0212 0.1905,-0.0423 0.27516,-0.0635 0.0635,-0.0212 0.127,-0.0847 0.1905,-0.14817 0.0635,-0.0847 0.10584,-0.21167 0.16934,-0.35983 0.0423,-0.16934 0.10583,-0.381 0.16933,-0.67734 l 0.90988,-4.04283 c 0.0212,-0.14817 0.0423,-0.29633 0.0635,-0.40217 0.0212,-0.14816 0.0212,-0.254 0.0212,-0.35983 0,-0.16933 -0.0423,-0.27517 -0.127,-0.33867 -0.0847,-0.0635 -0.23283,-0.10583 -0.46567,-0.10583 l 0.0847,-0.35983 2.11667,0 0.74083,4.99533 3.19617,-4.99533 1.8415,0 z m 0,0"
     style="fill:#4270c2;fill-opacity:1;fill-rule:nonzero;stroke:none" />
  <path
     id="path4694"
     d="m 7.7681102,151.5522 c 0.508,-0.67733 0.9736667,-1.16416 1.4393334,-1.48166 0.4444717,-0.3175 0.9101384,-0.46567 1.3758054,-0.46567 0.381,0 0.6985,0.0212 0.931333,0.0847 l -0.359833,1.69333 -0.783167,0 c -0.02117,-0.21167 -0.0635,-0.381 -0.127,-0.48683 -0.0635,-0.127 -0.127,-0.21167 -0.1905,-0.254 -0.084667,-0.0423 -0.1905,-0.0635 -0.2963333,-0.0635 -0.1905,0 -0.3809718,0.0847 -0.5926385,0.23283 -0.2116666,0.16933 -0.4656666,0.40217 -0.7196666,0.74083 -0.2751667,0.33867 -0.4868334,0.65617 -0.6561667,0.97367 -0.1481667,0.29633 -0.2751667,0.6985 -0.381,1.16417 l -0.7196667,3.28083 -1.3123051,0 1.0794718,-4.80483 c 0.084667,-0.29634 0.127,-0.52917 0.1481667,-0.6985 0.021167,-0.16934 0.021167,-0.3175 0.021167,-0.42334 0,-0.1905 -0.021167,-0.33866 -0.084667,-0.4445 -0.0635,-0.0847 -0.1693334,-0.127 -0.3175,-0.127 -0.1481667,0 -0.3175,0.0635 -0.4868334,0.1905 -0.1904718,0.127 -0.4233051,0.35984 -0.7196384,0.6985 l -0.4445,-0.42333 c 0.4656666,-0.48683 0.8678333,-0.8255 1.1641384,-1.03717 0.3175,-0.1905 0.6773334,-0.29633 1.0583334,-0.29633 0.3175,0 0.5503333,0.10583 0.7408333,0.29633 0.1905,0.21167 0.2751667,0.48684 0.2751667,0.8255 0,0.254 -0.042333,0.52917 -0.1481667,0.78317 z m 0,0"
     style="fill:#4270c2;fill-opacity:1;fill-rule:nonzero;stroke:none" />
  <path
     id="path4696"
     d="m 10.794915,158.43137 c 0,0.4445 0.127,0.78317 0.359834,0.97367 0.211666,0.21166 0.5715,0.29633 1.037166,0.29633 0.232834,0 0.4445,-0.0212 0.656167,-0.0847 0.1905,-0.0635 0.338667,-0.16933 0.465667,-0.27516 0.148138,-0.127 0.232805,-0.27517 0.317471,-0.4445 0.0635,-0.14817 0.105834,-0.35984 0.105834,-0.5715 0,-0.14817 -0.02117,-0.27517 -0.0635,-0.381 -0.02117,-0.127 -0.105834,-0.254 -0.1905,-0.35984 -0.08467,-0.127 -0.211639,-0.23283 -0.380972,-0.35983 -0.148167,-0.127 -0.338667,-0.254 -0.5715,-0.40217 -0.232833,-0.14816 -0.4445,-0.29633 -0.613833,-0.4445 -0.169334,-0.127 -0.3175,-0.27516 -0.423334,-0.42333 -0.127,-0.16933 -0.211666,-0.3175 -0.275166,-0.48683 -0.04233,-0.16934 -0.0635,-0.33867 -0.0635,-0.52917 0,-0.3175 0.04233,-0.59267 0.169333,-0.84667 0.127,-0.254 0.296333,-0.46566 0.529167,-0.65616 0.232833,-0.1905 0.508,-0.3175 0.8255,-0.42334 0.3175,-0.10583 0.677305,-0.14816 1.079471,-0.14816 0.338667,0 0.677334,0.0212 1.016,0.0847 0.3175,0.0423 0.656167,0.127 1.016,0.254 l -0.3175,1.397 -0.613833,0 c 0,-0.1905 -0.04233,-0.381 -0.08467,-0.52916 -0.0635,-0.14817 -0.148166,-0.27517 -0.232833,-0.35984 -0.105833,-0.10583 -0.211667,-0.16933 -0.359833,-0.21166 -0.148167,-0.0423 -0.3175,-0.0635 -0.529167,-0.0635 -0.211667,0 -0.423305,0.0212 -0.592638,0.0847 -0.169334,0.0635 -0.338667,0.14817 -0.465667,0.254 -0.127,0.10584 -0.211667,0.23284 -0.275167,0.40217 -0.08467,0.14817 -0.105833,0.29633 -0.105833,0.48683 0,0.127 0.02117,0.254 0.04233,0.381 0.04233,0.10584 0.08467,0.23284 0.169334,0.33867 0.08467,0.10583 0.1905,0.21167 0.338666,0.3175 0.148167,0.10583 0.3175,0.23283 0.550334,0.35983 0.253971,0.16934 0.486805,0.33867 0.677305,0.46567 0.1905,0.14817 0.338666,0.3175 0.465666,0.46567 0.127,0.16933 0.211667,0.33866 0.254,0.508 0.0635,0.1905 0.08467,0.381 0.08467,0.59266 0,0.33867 -0.0635,0.635 -0.1905,0.889 -0.127,0.27517 -0.296333,0.48684 -0.529167,0.6985 -0.232833,0.1905 -0.529166,0.33867 -0.846638,0.4445 -0.3175,0.10584 -0.6985,0.14817 -1.100667,0.14817 -0.338666,0 -0.6985,-0.0212 -1.100666,-0.0847 -0.381,-0.0635 -0.762,-0.14816 -1.1430003,-0.254 l 0.3175003,-1.50283 z m 0,0"
     style="fill:#4270c2;fill-opacity:1;fill-rule:nonzero;stroke:none" />
  <path
     id="path4698"
     d="m 34.141551,263.96752 c 0.486833,-0.65616 0.9525,-1.16416 1.418167,-1.4605 0.465666,-0.3175 0.931333,-0.48683 1.397,-0.48683 0.359833,0 0.677333,0.0212 0.931333,0.0847 l -0.381,1.7145 -0.783167,0 c -0.02117,-0.21167 -0.0635,-0.381 -0.127,-0.508 -0.04233,-0.10584 -0.105833,-0.1905 -0.1905,-0.23284 -0.08467,-0.0423 -0.169333,-0.0635 -0.275166,-0.0635 -0.1905,0 -0.402167,0.0635 -0.613834,0.23284 -0.211666,0.14816 -0.4445,0.40216 -0.719666,0.71966 -0.275167,0.33867 -0.486834,0.65617 -0.635,0.97367 -0.169334,0.3175 -0.296334,0.6985 -0.402167,1.16417 l -0.719667,3.302 -1.312333,0 1.100667,-4.826 c 0.0635,-0.29634 0.105833,-0.52917 0.127,-0.6985 0.02117,-0.16934 0.04233,-0.29634 0.04233,-0.42334 0,-0.1905 -0.04233,-0.33866 -0.105833,-0.42333 -0.0635,-0.10583 -0.169334,-0.14817 -0.3175,-0.14817 -0.148167,0 -0.3175,0.0635 -0.486834,0.1905 -0.169333,0.127 -0.423333,0.35984 -0.719666,0.6985 l -0.423334,-0.42333 c 0.465667,-0.48683 0.846667,-0.8255 1.164167,-1.016 0.3175,-0.21167 0.656167,-0.3175 1.037167,-0.3175 0.3175,0 0.5715,0.10583 0.762,0.3175 0.169333,0.21167 0.275166,0.48683 0.275166,0.8255 0,0.254 -0.0635,0.508 -0.148166,0.78317 z m 0,0"
     style="fill:#4270c2;fill-opacity:1;fill-rule:nonzero;stroke:none" />
  <path
     id="path4700"
     d="m 41.190051,274.59319 c -0.232833,0 -0.423333,-0.0212 -0.613833,-0.0847 -0.169334,-0.0635 -0.3175,-0.16933 -0.4445,-0.3175 -0.127,-0.14816 -0.254,-0.33866 -0.381,-0.59266 -0.105834,-0.23284 -0.211667,-0.55034 -0.338667,-0.91017 -0.338667,-0.0212 -0.635,-0.10583 -0.910167,-0.21167 -0.254,-0.127 -0.486833,-0.27516 -0.677333,-0.48683 -0.1905,-0.21167 -0.3175,-0.4445 -0.423333,-0.74083 -0.105834,-0.29634 -0.148167,-0.61384 -0.148167,-0.97367 0,-0.3175 0.02117,-0.67733 0.08467,-1.03717 0.0635,-0.35983 0.169333,-0.74083 0.296333,-1.10066 0.127,-0.381 0.296333,-0.74084 0.508,-1.0795 0.211667,-0.33867 0.465667,-0.635 0.762,-0.91017 0.296333,-0.254 0.635,-0.46567 1.016,-0.61383 0.402167,-0.16934 0.8255,-0.254 1.312333,-0.254 0.381,0 0.740834,0.0635 1.037167,0.1905 0.296333,0.10583 0.529167,0.27516 0.740833,0.48683 0.1905,0.1905 0.338667,0.4445 0.4445,0.762 0.105834,0.29633 0.148167,0.61383 0.148167,0.99483 0,0.254 -0.02117,0.55034 -0.0635,0.86784 -0.04233,0.3175 -0.127,0.635 -0.211667,0.97366 -0.105833,0.33867 -0.254,0.65617 -0.402166,0.99484 -0.169334,0.3175 -0.359834,0.61383 -0.592667,0.889 -0.232833,0.27516 -0.486833,0.508 -0.804333,0.71966 -0.296334,0.1905 -0.635,0.33867 -1.016,0.4445 0.105833,0.27517 0.1905,0.48684 0.275166,0.65617 0.08467,0.16933 0.169334,0.29633 0.254,0.381 0.08467,0.10583 0.169334,0.14817 0.254,0.1905 0.08467,0.0212 0.1905,0.0423 0.3175,0.0423 0.0635,0 0.127,-0.0212 0.211667,-0.0212 0.0635,-0.0212 0.127,-0.0635 0.211667,-0.10584 0.0635,-0.0423 0.148166,-0.0847 0.232833,-0.16933 0.105833,-0.0635 0.1905,-0.14817 0.296333,-0.254 l 0.338667,0.40217 c -0.169333,0.14816 -0.3175,0.27516 -0.465667,0.40216 -0.148166,0.10584 -0.296333,0.1905 -0.423333,0.27517 -0.148167,0.0635 -0.275167,0.127 -0.423333,0.14817 -0.127,0.0423 -0.275167,0.0423 -0.402167,0.0423 z m -2.794,-4.08517 c 0,0.55034 0.105833,0.9525 0.3175,1.2065 0.211667,0.27517 0.529167,0.40217 0.973667,0.40217 0.3175,0 0.592666,-0.0635 0.846666,-0.21167 0.254,-0.14816 0.486834,-0.35983 0.6985,-0.59266 0.211667,-0.254 0.381,-0.52917 0.550334,-0.84667 0.148166,-0.3175 0.275166,-0.65617 0.381,-0.99483 0.105833,-0.35984 0.1905,-0.6985 0.232833,-1.03717 0.0635,-0.35983 0.08467,-0.67733 0.08467,-0.97367 0,-0.52916 -0.105834,-0.93133 -0.3175,-1.2065 -0.211667,-0.27516 -0.529167,-0.40216 -0.973667,-0.40216 -0.338667,0 -0.635,0.0847 -0.889,0.23283 -0.275167,0.14817 -0.508,0.35983 -0.719667,0.61383 -0.211666,0.254 -0.381,0.55034 -0.529166,0.889 -0.148167,0.33867 -0.275167,0.67734 -0.381,1.016 -0.08467,0.33867 -0.169334,0.67734 -0.211667,1.016 -0.04233,0.33867 -0.0635,0.635 -0.0635,0.889 z m 0,0"
     style="fill:#4270c2;fill-opacity:1;fill-rule:nonzero;stroke:none" />
  <path
     id="path4702"
     d="m 64.113269,19.833026 c 0.508,-0.677334 0.973667,-1.164167 1.439333,-1.481667 0.465667,-0.3175 0.931334,-0.465667 1.397,-0.465667 0.359834,0 0.677334,0.02117 0.931334,0.08467 l -0.381,1.693333 -0.783167,0 c -0.02117,-0.211666 -0.0635,-0.381 -0.127,-0.486833 -0.04233,-0.127 -0.105833,-0.211667 -0.1905,-0.254 -0.08467,-0.04233 -0.169333,-0.0635 -0.296333,-0.0635 -0.169334,0 -0.381,0.08467 -0.592667,0.232833 -0.211667,0.169334 -0.4445,0.402167 -0.719667,0.740834 -0.275166,0.338666 -0.486833,0.656166 -0.635,0.9525 -0.169333,0.317471 -0.296333,0.719638 -0.402166,1.185305 l -0.719667,3.280805 -1.312333,0 1.100666,-4.804777 c 0.0635,-0.296333 0.105834,-0.529167 0.127,-0.6985 0.02117,-0.169333 0.04233,-0.3175 0.04233,-0.423333 0,-0.211667 -0.04233,-0.359834 -0.105834,-0.4445 -0.0635,-0.08467 -0.169333,-0.127 -0.3175,-0.127 -0.148166,0 -0.3175,0.0635 -0.486833,0.1905 -0.169333,0.127 -0.423333,0.359833 -0.719667,0.6985 l -0.423333,-0.423334 c 0.465667,-0.486833 0.846667,-0.8255 1.164167,-1.037166 0.3175,-0.211667 0.656166,-0.3175 1.037166,-0.3175 0.3175,0 0.5715,0.105833 0.762,0.3175 0.169334,0.211666 0.275167,0.486833 0.275167,0.8255 0,0.254 -0.0635,0.508 -0.148167,0.783166 z m 0,0"
     style="fill:#4270c2;fill-opacity:1;fill-rule:nonzero;stroke:none" />
  <path
     id="path4704"
     d="m 70.971269,24.701331 0,0.04233 c 0,0.02117 0,0.04231 0,0.04231 0.4445,0.148167 0.762,0.381 0.973667,0.677333 0.211666,0.296334 0.3175,0.656167 0.3175,1.037167 0,0.296333 -0.04233,0.592667 -0.169334,0.846667 -0.127,0.232833 -0.296333,0.465666 -0.529166,0.635 -0.232834,0.1905 -0.508,0.338582 -0.8255,0.423248 -0.3175,0.105834 -0.677334,0.148167 -1.0795,0.148167 -0.381,0 -0.719667,-0.04233 -1.037167,-0.127 -0.296333,-0.08467 -0.5715,-0.211582 -0.783167,-0.380915 -0.232833,-0.169334 -0.402166,-0.381 -0.508,-0.635 -0.127,-0.232834 -0.1905,-0.508 -0.1905,-0.8255 0,-0.211667 0.04233,-0.423334 0.08467,-0.592667 0.0635,-0.169333 0.148167,-0.3175 0.275167,-0.465667 0.105833,-0.127 0.232833,-0.254 0.402166,-0.359833 0.148167,-0.105833 0.338667,-0.211667 0.529167,-0.3175 l 0,-0.0635 c -0.402167,-0.169305 -0.719667,-0.402138 -0.910167,-0.677305 -0.1905,-0.275167 -0.275166,-0.613833 -0.275166,-0.994833 -0.02117,-0.275167 0.04233,-0.529167 0.169333,-0.762 0.127,-0.211667 0.3175,-0.423334 0.529167,-0.5715 0.232833,-0.169334 0.508,-0.296334 0.804333,-0.381 0.3175,-0.08467 0.656167,-0.148167 0.994833,-0.148167 0.423334,0 0.804334,0.04233 1.100667,0.148167 0.3175,0.08467 0.5715,0.211666 0.783167,0.359833 0.1905,0.148167 0.338666,0.338667 0.4445,0.5715 0.105833,0.211667 0.148166,0.4445 0.148166,0.719667 0,0.381 -0.105833,0.6985 -0.3175,0.9525 -0.1905,0.275166 -0.508,0.508 -0.931333,0.6985 z m -2.6035,-1.608667 c 0,0.232833 0.02117,0.423333 0.0635,0.592667 0.0635,0.169333 0.148167,0.3175 0.254,0.4445 0.127,0.127 0.254,0.211666 0.4445,0.275166 0.169333,0.0635 0.381,0.08467 0.613833,0.08467 0.254,0 0.465667,-0.02117 0.635,-0.08467 0.169334,-0.08467 0.3175,-0.1905 0.423334,-0.296333 0.105833,-0.127 0.169333,-0.275167 0.232833,-0.423333 0.04233,-0.169334 0.0635,-0.338667 0.0635,-0.529167 0,-0.211667 -0.04233,-0.402167 -0.105833,-0.5715 -0.0635,-0.169333 -0.169334,-0.3175 -0.275167,-0.4445 -0.127,-0.105833 -0.275167,-0.211667 -0.4445,-0.254 -0.169333,-0.0635 -0.338667,-0.08467 -0.550333,-0.08467 -0.4445,0 -0.783167,0.105834 -1.016,0.338667 -0.232834,0.232833 -0.338667,0.550333 -0.338667,0.9525 z m -0.08467,3.365472 c 0,0.232833 0.02117,0.4445 0.08467,0.635 0.04233,0.1905 0.148167,0.338666 0.275167,0.486833 0.105833,0.127 0.275166,0.232833 0.4445,0.296333 0.1905,0.08467 0.402166,0.105834 0.656166,0.105834 0.254,0 0.465667,-0.02117 0.635,-0.105834 0.169334,-0.08467 0.3175,-0.1905 0.423334,-0.3175 0.127,-0.127 0.211666,-0.275166 0.254,-0.4445 0.04233,-0.169333 0.08467,-0.359833 0.08467,-0.550333 0,-0.232833 -0.04233,-0.4445 -0.105833,-0.635 -0.0635,-0.1905 -0.169333,-0.359833 -0.275167,-0.486833 -0.127,-0.127 -0.275166,-0.211667 -0.465666,-0.296334 -0.169334,-0.0635 -0.359834,-0.105833 -0.5715,-0.105833 -0.254,0 -0.486834,0.04233 -0.656167,0.105833 -0.1905,0.0635 -0.338667,0.169334 -0.465667,0.296334 -0.105833,0.127 -0.1905,0.275166 -0.254,0.4445 -0.04233,0.169333 -0.0635,0.359833 -0.0635,0.5715 z m 0,0"
     style="fill:#4270c2;fill-opacity:1;fill-rule:nonzero;stroke:none" />
  <path
     id="path4706"
     d="m 113.79115,89.068769 c 4.59317,16.467381 5.16467,35.072881 11.13367,43.518381 4.67783,6.60372 12.67855,7.00589 19.47305,7.04822"
     style="fill:none;stroke:#000000;stroke-width:2.11665082px;stroke-linecap:butt;stroke-linejoin:miter;stroke-miterlimit:8;stroke-dasharray:none;stroke-opacity:1" />
  <path
     id="path4708"
     d="m 143.40304,136.46037 6.2865,3.28083 -6.4135,3.06917 z m 0,0"
     style="fill:#000000;fill-opacity:1;fill-rule:evenodd;stroke:none" />
  <path
     id="path4710"
     d="m 154.19804,158.13504 8.1915,11.049"
     style="fill:none;stroke:#ffffff;stroke-width:4.93179703px;stroke-linecap:butt;stroke-linejoin:miter;stroke-miterlimit:8;stroke-dasharray:none;stroke-opacity:1" />
  <path
     id="path4712"
     d=""
     clip-path="url(#clipEmfPath3)"
     style="fill:none;stroke:none" />
  <path
     transform="scale(0.28222222,0.28222222)"
     id="path4714"
     d="m 374.847,486.971 c 35.925,-10.05 71.925,-20.099 128.174,30.825 56.25,51 187.724,207.374 209.474,274.948 21.825,67.65 -30.75,107.924 -78.825,130.724 -44.324,21 -116.399,15.6 -190.648,8.1"
     clip-path="url(#clipEmfPath3)"
     style="fill:none;stroke:#000000;stroke-width:7.49994421px;stroke-linecap:butt;stroke-linejoin:miter;stroke-miterlimit:8;stroke-dasharray:none;stroke-opacity:1" />
  <path
     id="path4716"
     d="m 125.68682,266.16886 -5.99017,-3.81 6.64634,-2.49767 z m 0,0"
     style="fill:#000000;fill-opacity:1;fill-rule:evenodd;stroke:none" />
  <path
     id="path4718"
     d="m 200.12942,258.50652 c 0.48684,-0.67733 0.97367,-1.16416 1.41817,-1.48166 0.46567,-0.3175 0.93133,-0.48684 1.397,-0.48684 0.381,0 0.67733,0.0423 0.93133,0.0847 l -0.35983,1.7145 -0.78317,0 c -0.0423,-0.21167 -0.0635,-0.381 -0.127,-0.508 -0.0635,-0.10583 -0.127,-0.1905 -0.1905,-0.23283 -0.0847,-0.0423 -0.1905,-0.0635 -0.29633,-0.0635 -0.1905,0 -0.381,0.0847 -0.59267,0.23283 -0.21166,0.14817 -0.46566,0.40217 -0.71966,0.74083 -0.27517,0.33867 -0.48684,0.65617 -0.65617,0.9525 -0.14817,0.3175 -0.27517,0.6985 -0.381,1.18534 l -0.74083,3.28083 -1.31234,0 1.10067,-4.80483 c 0.0847,-0.3175 0.127,-0.55034 0.14817,-0.6985 0.0212,-0.16934 0.0212,-0.3175 0.0212,-0.42334 0,-0.21166 -0.0212,-0.35983 -0.0847,-0.4445 -0.0635,-0.0847 -0.16934,-0.14816 -0.3175,-0.14816 -0.14817,0 -0.3175,0.0635 -0.508,0.1905 -0.16934,0.14816 -0.40217,0.381 -0.6985,0.71966 l -0.4445,-0.42333 c 0.46566,-0.48683 0.84666,-0.84667 1.16416,-1.03717 0.3175,-0.21166 0.65617,-0.3175 1.03717,-0.3175 0.3175,0 0.5715,0.10584 0.762,0.3175 0.1905,0.21167 0.27517,0.48684 0.27517,0.8255 0,0.254 -0.0423,0.508 -0.14817,0.78317 z m 0,0"
     style="fill:#4270c2;fill-opacity:1;fill-rule:nonzero;stroke:none" />
  <path
     id="path4720"
     d="m 204.27809,266.90969 0,-0.33867 c 0.42333,0 0.78317,-0.0635 1.10067,-0.1905 0.33866,-0.14816 0.59266,-0.33866 0.8255,-0.59266 0.23283,-0.254 0.40216,-0.52917 0.55033,-0.86784 0.127,-0.35983 0.1905,-0.71966 0.23283,-1.143 l -0.0423,-0.0212 c -0.3175,0.1905 -0.635,0.33866 -0.93133,0.4445 -0.29634,0.10583 -0.61384,0.14816 -0.97367,0.14816 -0.3175,0 -0.61383,-0.0423 -0.86783,-0.14816 -0.23284,-0.0847 -0.4445,-0.23284 -0.61384,-0.40217 -0.16933,-0.1905 -0.29633,-0.40217 -0.381,-0.65617 -0.10583,-0.254 -0.127,-0.55033 -0.127,-0.86783 0,-0.33867 0.0423,-0.635 0.14817,-0.91017 0.127,-0.27516 0.29633,-0.52916 0.508,-0.74083 0.23283,-0.21167 0.508,-0.381 0.84667,-0.508 0.33866,-0.127 0.71966,-0.1905 1.16416,-0.1905 0.40217,0 0.74084,0.0635 1.03717,0.21167 0.3175,0.127 0.5715,0.3175 0.78317,0.55033 0.1905,0.254 0.35983,0.5715 0.46566,0.93133 0.10584,0.35984 0.14817,0.78317 0.14817,1.27 0,0.635 -0.0847,1.2065 -0.254,1.7145 -0.16933,0.52917 -0.40217,0.9525 -0.71967,1.3335 -0.33866,0.381 -0.71966,0.65617 -1.16416,0.889 -0.4445,0.21167 -0.9525,0.33867 -1.48167,0.381 z m 1.16417,-3.21733 c 0.23283,0 0.46566,-0.0212 0.6985,-0.0847 0.21166,-0.0635 0.40216,-0.14817 0.5715,-0.27517 0.0847,-0.0423 0.127,-0.0847 0.16933,-0.127 0.0423,-0.0423 0.0847,-0.0847 0.10583,-0.14816 0.0212,-0.0423 0.0423,-0.10584 0.0423,-0.1905 0,-0.0635 0.0212,-0.16934 0.0212,-0.29634 0,-0.29633 -0.0423,-0.5715 -0.0847,-0.8255 -0.0423,-0.27516 -0.127,-0.48683 -0.254,-0.67733 -0.10584,-0.1905 -0.254,-0.33867 -0.42334,-0.4445 -0.1905,-0.10583 -0.40216,-0.16933 -0.65616,-0.16933 -0.254,0 -0.46567,0.0423 -0.65617,0.127 -0.1905,0.0847 -0.33867,0.1905 -0.46567,0.35983 -0.127,0.127 -0.21166,0.3175 -0.27516,0.52917 -0.0635,0.21166 -0.0847,0.4445 -0.0847,0.71966 0,0.46567 0.10583,0.84667 0.3175,1.12184 0.21167,0.254 0.52917,0.381 0.97367,0.381 z m 0,0"
     style="fill:#4270c2;fill-opacity:1;fill-rule:nonzero;stroke:none" />
</svg>
